<svg xmlns="http://www.w3.org/2000/svg" xmlns:xlink="http://www.w3.org/1999/xlink" width="600" height="400" viewBox="0 0 2400 1600">
<defs>
  <clipPath id="clip250">
    <rect x="0" y="0" width="2400" height="1600"></rect>
  </clipPath>
</defs>
<path clip-path="url(#clip250)" d="M0 1600 L2400 1600 L2400 0 L0 0  Z" fill="#ffffff" fill-rule="evenodd" fill-opacity="1"></path>
<defs>
  <clipPath id="clip251">
    <rect x="480" y="0" width="1681" height="1600"></rect>
  </clipPath>
</defs>
<path clip-path="url(#clip250)" d="M249.542 1423.18 L2352.76 1423.18 L2352.76 123.472 L249.542 123.472  Z" fill="#ffffff" fill-rule="evenodd" fill-opacity="1"></path>
<defs>
  <clipPath id="clip252">
    <rect x="249" y="123" width="2104" height="1301"></rect>
  </clipPath>
</defs>
<polyline clip-path="url(#clip252)" style="stroke:#000000; stroke-linecap:round; stroke-linejoin:round; stroke-width:2; stroke-opacity:0.1; fill:none" points="289.025,1423.18 289.025,123.472 "></polyline>
<polyline clip-path="url(#clip252)" style="stroke:#000000; stroke-linecap:round; stroke-linejoin:round; stroke-width:2; stroke-opacity:0.1; fill:none" points="790.076,1423.18 790.076,123.472 "></polyline>
<polyline clip-path="url(#clip252)" style="stroke:#000000; stroke-linecap:round; stroke-linejoin:round; stroke-width:2; stroke-opacity:0.1; fill:none" points="1291.13,1423.18 1291.13,123.472 "></polyline>
<polyline clip-path="url(#clip252)" style="stroke:#000000; stroke-linecap:round; stroke-linejoin:round; stroke-width:2; stroke-opacity:0.1; fill:none" points="1792.18,1423.18 1792.18,123.472 "></polyline>
<polyline clip-path="url(#clip252)" style="stroke:#000000; stroke-linecap:round; stroke-linejoin:round; stroke-width:2; stroke-opacity:0.1; fill:none" points="2293.23,1423.18 2293.23,123.472 "></polyline>
<polyline clip-path="url(#clip250)" style="stroke:#000000; stroke-linecap:round; stroke-linejoin:round; stroke-width:4; stroke-opacity:1; fill:none" points="249.542,1423.18 2352.76,1423.18 "></polyline>
<polyline clip-path="url(#clip250)" style="stroke:#000000; stroke-linecap:round; stroke-linejoin:round; stroke-width:4; stroke-opacity:1; fill:none" points="289.025,1423.18 289.025,1404.28 "></polyline>
<polyline clip-path="url(#clip250)" style="stroke:#000000; stroke-linecap:round; stroke-linejoin:round; stroke-width:4; stroke-opacity:1; fill:none" points="790.076,1423.18 790.076,1404.28 "></polyline>
<polyline clip-path="url(#clip250)" style="stroke:#000000; stroke-linecap:round; stroke-linejoin:round; stroke-width:4; stroke-opacity:1; fill:none" points="1291.13,1423.18 1291.13,1404.28 "></polyline>
<polyline clip-path="url(#clip250)" style="stroke:#000000; stroke-linecap:round; stroke-linejoin:round; stroke-width:4; stroke-opacity:1; fill:none" points="1792.18,1423.18 1792.18,1404.28 "></polyline>
<polyline clip-path="url(#clip250)" style="stroke:#000000; stroke-linecap:round; stroke-linejoin:round; stroke-width:4; stroke-opacity:1; fill:none" points="2293.23,1423.18 2293.23,1404.28 "></polyline>
<path clip-path="url(#clip250)" d="M289.025 1454.1 Q285.414 1454.1 283.585 1457.66 Q281.78 1461.2 281.78 1468.33 Q281.78 1475.44 283.585 1479.01 Q285.414 1482.55 289.025 1482.55 Q292.659 1482.55 294.465 1479.01 Q296.293 1475.44 296.293 1468.33 Q296.293 1461.2 294.465 1457.66 Q292.659 1454.1 289.025 1454.1 M289.025 1450.39 Q294.835 1450.39 297.891 1455 Q300.969 1459.58 300.969 1468.33 Q300.969 1477.06 297.891 1481.67 Q294.835 1486.25 289.025 1486.25 Q283.215 1486.25 280.136 1481.67 Q277.081 1477.06 277.081 1468.33 Q277.081 1459.58 280.136 1455 Q283.215 1450.39 289.025 1450.39 Z" fill="#000000" fill-rule="nonzero" fill-opacity="1"></path><path clip-path="url(#clip250)" d="M769.347 1481.64 L785.667 1481.64 L785.667 1485.58 L763.722 1485.58 L763.722 1481.64 Q766.384 1478.89 770.968 1474.26 Q775.574 1469.61 776.755 1468.27 Q779 1465.74 779.88 1464.01 Q780.782 1462.25 780.782 1460.56 Q780.782 1457.8 778.838 1456.07 Q776.917 1454.33 773.815 1454.33 Q771.616 1454.33 769.162 1455.09 Q766.732 1455.86 763.954 1457.41 L763.954 1452.69 Q766.778 1451.55 769.232 1450.97 Q771.685 1450.39 773.722 1450.39 Q779.093 1450.39 782.287 1453.08 Q785.482 1455.77 785.482 1460.26 Q785.482 1462.39 784.671 1464.31 Q783.884 1466.2 781.778 1468.8 Q781.199 1469.47 778.097 1472.69 Q774.995 1475.88 769.347 1481.64 Z" fill="#000000" fill-rule="nonzero" fill-opacity="1"></path><path clip-path="url(#clip250)" d="M795.528 1451.02 L813.884 1451.02 L813.884 1454.96 L799.81 1454.96 L799.81 1463.43 Q800.829 1463.08 801.847 1462.92 Q802.866 1462.73 803.884 1462.73 Q809.671 1462.73 813.051 1465.9 Q816.43 1469.08 816.43 1474.49 Q816.43 1480.07 812.958 1483.17 Q809.486 1486.25 803.167 1486.25 Q800.991 1486.25 798.722 1485.88 Q796.477 1485.51 794.069 1484.77 L794.069 1480.07 Q796.153 1481.2 798.375 1481.76 Q800.597 1482.32 803.074 1482.32 Q807.079 1482.32 809.417 1480.21 Q811.755 1478.1 811.755 1474.49 Q811.755 1470.88 809.417 1468.77 Q807.079 1466.67 803.074 1466.67 Q801.199 1466.67 799.324 1467.08 Q797.472 1467.5 795.528 1468.38 L795.528 1451.02 Z" fill="#000000" fill-rule="nonzero" fill-opacity="1"></path><path clip-path="url(#clip250)" d="M1265.83 1451.02 L1284.18 1451.02 L1284.18 1454.96 L1270.11 1454.96 L1270.11 1463.43 Q1271.13 1463.08 1272.15 1462.92 Q1273.17 1462.73 1274.18 1462.73 Q1279.97 1462.73 1283.35 1465.9 Q1286.73 1469.08 1286.73 1474.49 Q1286.73 1480.07 1283.26 1483.17 Q1279.79 1486.25 1273.47 1486.25 Q1271.29 1486.25 1269.02 1485.88 Q1266.78 1485.51 1264.37 1484.77 L1264.37 1480.07 Q1266.45 1481.2 1268.67 1481.76 Q1270.9 1482.32 1273.37 1482.32 Q1277.38 1482.32 1279.72 1480.21 Q1282.05 1478.1 1282.05 1474.49 Q1282.05 1470.88 1279.72 1468.77 Q1277.38 1466.67 1273.37 1466.67 Q1271.5 1466.67 1269.62 1467.08 Q1267.77 1467.5 1265.83 1468.38 L1265.83 1451.02 Z" fill="#000000" fill-rule="nonzero" fill-opacity="1"></path><path clip-path="url(#clip250)" d="M1305.94 1454.1 Q1302.33 1454.1 1300.5 1457.66 Q1298.7 1461.2 1298.7 1468.33 Q1298.7 1475.44 1300.5 1479.01 Q1302.33 1482.55 1305.94 1482.55 Q1309.58 1482.55 1311.38 1479.01 Q1313.21 1475.44 1313.21 1468.33 Q1313.21 1461.2 1311.38 1457.66 Q1309.58 1454.1 1305.94 1454.1 M1305.94 1450.39 Q1311.75 1450.39 1314.81 1455 Q1317.89 1459.58 1317.89 1468.33 Q1317.89 1477.06 1314.81 1481.67 Q1311.75 1486.25 1305.94 1486.25 Q1300.13 1486.25 1297.05 1481.67 Q1294 1477.06 1294 1468.33 Q1294 1459.58 1297.05 1455 Q1300.13 1450.39 1305.94 1450.39 Z" fill="#000000" fill-rule="nonzero" fill-opacity="1"></path><path clip-path="url(#clip250)" d="M1766.03 1451.02 L1788.26 1451.02 L1788.26 1453.01 L1775.71 1485.58 L1770.83 1485.58 L1782.63 1454.96 L1766.03 1454.96 L1766.03 1451.02 Z" fill="#000000" fill-rule="nonzero" fill-opacity="1"></path><path clip-path="url(#clip250)" d="M1797.42 1451.02 L1815.78 1451.02 L1815.78 1454.96 L1801.7 1454.96 L1801.7 1463.43 Q1802.72 1463.08 1803.74 1462.92 Q1804.76 1462.73 1805.78 1462.73 Q1811.57 1462.73 1814.95 1465.9 Q1818.33 1469.08 1818.33 1474.49 Q1818.33 1480.07 1814.85 1483.17 Q1811.38 1486.25 1805.06 1486.25 Q1802.89 1486.25 1800.62 1485.88 Q1798.37 1485.51 1795.96 1484.77 L1795.96 1480.07 Q1798.05 1481.2 1800.27 1481.76 Q1802.49 1482.32 1804.97 1482.32 Q1808.97 1482.32 1811.31 1480.21 Q1813.65 1478.1 1813.65 1474.49 Q1813.65 1470.88 1811.31 1468.77 Q1808.97 1466.67 1804.97 1466.67 Q1803.09 1466.67 1801.22 1467.08 Q1799.37 1467.5 1797.42 1468.38 L1797.42 1451.02 Z" fill="#000000" fill-rule="nonzero" fill-opacity="1"></path><path clip-path="url(#clip250)" d="M2252.84 1481.64 L2260.48 1481.64 L2260.48 1455.28 L2252.17 1456.95 L2252.17 1452.69 L2260.43 1451.02 L2265.11 1451.02 L2265.11 1481.64 L2272.74 1481.64 L2272.74 1485.58 L2252.84 1485.58 L2252.84 1481.64 Z" fill="#000000" fill-rule="nonzero" fill-opacity="1"></path><path clip-path="url(#clip250)" d="M2292.19 1454.1 Q2288.58 1454.1 2286.75 1457.66 Q2284.94 1461.2 2284.94 1468.33 Q2284.94 1475.44 2286.75 1479.01 Q2288.58 1482.55 2292.19 1482.55 Q2295.82 1482.55 2297.63 1479.01 Q2299.46 1475.44 2299.46 1468.33 Q2299.46 1461.2 2297.63 1457.66 Q2295.82 1454.1 2292.19 1454.1 M2292.19 1450.39 Q2298 1450.39 2301.06 1455 Q2304.13 1459.58 2304.13 1468.33 Q2304.13 1477.06 2301.06 1481.67 Q2298 1486.25 2292.19 1486.25 Q2286.38 1486.25 2283.3 1481.67 Q2280.24 1477.06 2280.24 1468.33 Q2280.24 1459.58 2283.3 1455 Q2286.38 1450.39 2292.19 1450.39 Z" fill="#000000" fill-rule="nonzero" fill-opacity="1"></path><path clip-path="url(#clip250)" d="M2322.35 1454.1 Q2318.74 1454.1 2316.91 1457.66 Q2315.11 1461.2 2315.11 1468.33 Q2315.11 1475.44 2316.91 1479.01 Q2318.74 1482.55 2322.35 1482.55 Q2325.99 1482.55 2327.79 1479.01 Q2329.62 1475.44 2329.62 1468.33 Q2329.62 1461.2 2327.79 1457.66 Q2325.99 1454.1 2322.35 1454.1 M2322.35 1450.39 Q2328.16 1450.39 2331.22 1455 Q2334.3 1459.58 2334.3 1468.33 Q2334.3 1477.06 2331.22 1481.67 Q2328.16 1486.25 2322.35 1486.25 Q2316.54 1486.25 2313.46 1481.67 Q2310.41 1477.06 2310.41 1468.33 Q2310.41 1459.58 2313.46 1455 Q2316.54 1450.39 2322.35 1450.39 Z" fill="#000000" fill-rule="nonzero" fill-opacity="1"></path><path clip-path="url(#clip250)" d="M1207.32 1520.52 L1237.36 1520.52 L1237.36 1525.93 L1213.75 1525.93 L1213.75 1540 L1236.38 1540 L1236.38 1545.41 L1213.75 1545.41 L1213.75 1562.63 L1237.94 1562.63 L1237.94 1568.04 L1207.32 1568.04 L1207.32 1520.52 Z" fill="#000000" fill-rule="nonzero" fill-opacity="1"></path><path clip-path="url(#clip250)" d="M1253.92 1562.7 L1253.92 1581.6 L1248.03 1581.6 L1248.03 1532.4 L1253.92 1532.4 L1253.92 1537.81 Q1255.76 1534.62 1258.56 1533.1 Q1261.4 1531.54 1265.31 1531.54 Q1271.8 1531.54 1275.85 1536.69 Q1279.92 1541.85 1279.92 1550.25 Q1279.92 1558.65 1275.85 1563.81 Q1271.8 1568.97 1265.31 1568.97 Q1261.4 1568.97 1258.56 1567.44 Q1255.76 1565.88 1253.92 1562.7 M1273.84 1550.25 Q1273.84 1543.79 1271.17 1540.13 Q1268.52 1536.44 1263.88 1536.44 Q1259.23 1536.44 1256.56 1540.13 Q1253.92 1543.79 1253.92 1550.25 Q1253.92 1556.71 1256.56 1560.4 Q1259.23 1564.07 1263.88 1564.07 Q1268.52 1564.07 1271.17 1560.4 Q1273.84 1556.71 1273.84 1550.25 Z" fill="#000000" fill-rule="nonzero" fill-opacity="1"></path><path clip-path="url(#clip250)" d="M1303.44 1536.5 Q1298.73 1536.5 1295.99 1540.19 Q1293.26 1543.85 1293.26 1550.25 Q1293.26 1556.65 1295.96 1560.34 Q1298.7 1564 1303.44 1564 Q1308.12 1564 1310.86 1560.31 Q1313.59 1556.62 1313.59 1550.25 Q1313.59 1543.92 1310.86 1540.23 Q1308.12 1536.5 1303.44 1536.5 M1303.44 1531.54 Q1311.08 1531.54 1315.44 1536.5 Q1319.8 1541.47 1319.8 1550.25 Q1319.8 1559 1315.44 1564 Q1311.08 1568.97 1303.44 1568.97 Q1295.77 1568.97 1291.41 1564 Q1287.08 1559 1287.08 1550.25 Q1287.08 1541.47 1291.41 1536.5 Q1295.77 1531.54 1303.44 1531.54 Z" fill="#000000" fill-rule="nonzero" fill-opacity="1"></path><path clip-path="url(#clip250)" d="M1355.16 1533.76 L1355.16 1539.24 Q1352.68 1537.87 1350.16 1537.2 Q1347.68 1536.5 1345.14 1536.5 Q1339.44 1536.5 1336.29 1540.13 Q1333.14 1543.73 1333.14 1550.25 Q1333.14 1556.78 1336.29 1560.4 Q1339.44 1564 1345.14 1564 Q1347.68 1564 1350.16 1563.33 Q1352.68 1562.63 1355.16 1561.26 L1355.16 1566.68 Q1352.71 1567.82 1350.07 1568.39 Q1347.46 1568.97 1344.5 1568.97 Q1336.45 1568.97 1331.7 1563.91 Q1326.96 1558.85 1326.96 1550.25 Q1326.96 1541.53 1331.74 1536.53 Q1336.54 1531.54 1344.88 1531.54 Q1347.59 1531.54 1350.16 1532.11 Q1352.74 1532.65 1355.16 1533.76 Z" fill="#000000" fill-rule="nonzero" fill-opacity="1"></path><path clip-path="url(#clip250)" d="M1394.98 1546.53 L1394.98 1568.04 L1389.12 1568.04 L1389.12 1546.72 Q1389.12 1541.66 1387.15 1539.14 Q1385.18 1536.63 1381.23 1536.63 Q1376.49 1536.63 1373.75 1539.65 Q1371.01 1542.68 1371.01 1547.9 L1371.01 1568.04 L1365.12 1568.04 L1365.12 1518.52 L1371.01 1518.52 L1371.01 1537.93 Q1373.11 1534.72 1375.95 1533.13 Q1378.81 1531.54 1382.53 1531.54 Q1388.68 1531.54 1391.83 1535.36 Q1394.98 1539.14 1394.98 1546.53 Z" fill="#000000" fill-rule="nonzero" fill-opacity="1"></path><polyline clip-path="url(#clip252)" style="stroke:#000000; stroke-linecap:round; stroke-linejoin:round; stroke-width:2; stroke-opacity:0.1; fill:none" points="249.542,1420.56 2352.76,1420.56 "></polyline>
<polyline clip-path="url(#clip252)" style="stroke:#000000; stroke-linecap:round; stroke-linejoin:round; stroke-width:2; stroke-opacity:0.1; fill:none" points="249.542,1100.6 2352.76,1100.6 "></polyline>
<polyline clip-path="url(#clip252)" style="stroke:#000000; stroke-linecap:round; stroke-linejoin:round; stroke-width:2; stroke-opacity:0.1; fill:none" points="249.542,780.645 2352.76,780.645 "></polyline>
<polyline clip-path="url(#clip252)" style="stroke:#000000; stroke-linecap:round; stroke-linejoin:round; stroke-width:2; stroke-opacity:0.1; fill:none" points="249.542,460.69 2352.76,460.69 "></polyline>
<polyline clip-path="url(#clip252)" style="stroke:#000000; stroke-linecap:round; stroke-linejoin:round; stroke-width:2; stroke-opacity:0.1; fill:none" points="249.542,140.734 2352.76,140.734 "></polyline>
<polyline clip-path="url(#clip250)" style="stroke:#000000; stroke-linecap:round; stroke-linejoin:round; stroke-width:4; stroke-opacity:1; fill:none" points="249.542,1423.18 249.542,123.472 "></polyline>
<polyline clip-path="url(#clip250)" style="stroke:#000000; stroke-linecap:round; stroke-linejoin:round; stroke-width:4; stroke-opacity:1; fill:none" points="249.542,1420.56 268.44,1420.56 "></polyline>
<polyline clip-path="url(#clip250)" style="stroke:#000000; stroke-linecap:round; stroke-linejoin:round; stroke-width:4; stroke-opacity:1; fill:none" points="249.542,1100.6 268.44,1100.6 "></polyline>
<polyline clip-path="url(#clip250)" style="stroke:#000000; stroke-linecap:round; stroke-linejoin:round; stroke-width:4; stroke-opacity:1; fill:none" points="249.542,780.645 268.44,780.645 "></polyline>
<polyline clip-path="url(#clip250)" style="stroke:#000000; stroke-linecap:round; stroke-linejoin:round; stroke-width:4; stroke-opacity:1; fill:none" points="249.542,460.69 268.44,460.69 "></polyline>
<polyline clip-path="url(#clip250)" style="stroke:#000000; stroke-linecap:round; stroke-linejoin:round; stroke-width:4; stroke-opacity:1; fill:none" points="249.542,140.734 268.44,140.734 "></polyline>
<path clip-path="url(#clip250)" d="M126.205 1406.36 Q122.593 1406.36 120.765 1409.92 Q118.959 1413.46 118.959 1420.59 Q118.959 1427.7 120.765 1431.26 Q122.593 1434.8 126.205 1434.8 Q129.839 1434.8 131.644 1431.26 Q133.473 1427.7 133.473 1420.59 Q133.473 1413.46 131.644 1409.92 Q129.839 1406.36 126.205 1406.36 M126.205 1402.65 Q132.015 1402.65 135.07 1407.26 Q138.149 1411.84 138.149 1420.59 Q138.149 1429.32 135.07 1433.92 Q132.015 1438.51 126.205 1438.51 Q120.394 1438.51 117.316 1433.92 Q114.26 1429.32 114.26 1420.59 Q114.26 1411.84 117.316 1407.26 Q120.394 1402.65 126.205 1402.65 Z" fill="#000000" fill-rule="nonzero" fill-opacity="1"></path><path clip-path="url(#clip250)" d="M146.366 1431.96 L151.251 1431.96 L151.251 1437.84 L146.366 1437.84 L146.366 1431.96 Z" fill="#000000" fill-rule="nonzero" fill-opacity="1"></path><path clip-path="url(#clip250)" d="M171.436 1406.36 Q167.825 1406.36 165.996 1409.92 Q164.19 1413.46 164.19 1420.59 Q164.19 1427.7 165.996 1431.26 Q167.825 1434.8 171.436 1434.8 Q175.07 1434.8 176.876 1431.26 Q178.704 1427.7 178.704 1420.59 Q178.704 1413.46 176.876 1409.92 Q175.07 1406.36 171.436 1406.36 M171.436 1402.65 Q177.246 1402.65 180.301 1407.26 Q183.38 1411.84 183.38 1420.59 Q183.38 1429.32 180.301 1433.92 Q177.246 1438.51 171.436 1438.51 Q165.626 1438.51 162.547 1433.92 Q159.491 1429.32 159.491 1420.59 Q159.491 1411.84 162.547 1407.26 Q165.626 1402.65 171.436 1402.65 Z" fill="#000000" fill-rule="nonzero" fill-opacity="1"></path><path clip-path="url(#clip250)" d="M201.598 1406.36 Q197.987 1406.36 196.158 1409.92 Q194.352 1413.46 194.352 1420.59 Q194.352 1427.7 196.158 1431.26 Q197.987 1434.8 201.598 1434.8 Q205.232 1434.8 207.037 1431.26 Q208.866 1427.7 208.866 1420.59 Q208.866 1413.46 207.037 1409.92 Q205.232 1406.36 201.598 1406.36 M201.598 1402.65 Q207.408 1402.65 210.463 1407.26 Q213.542 1411.84 213.542 1420.59 Q213.542 1429.32 210.463 1433.92 Q207.408 1438.51 201.598 1438.51 Q195.787 1438.51 192.709 1433.92 Q189.653 1429.32 189.653 1420.59 Q189.653 1411.84 192.709 1407.26 Q195.787 1402.65 201.598 1402.65 Z" fill="#000000" fill-rule="nonzero" fill-opacity="1"></path><path clip-path="url(#clip250)" d="M127.2 1086.4 Q123.589 1086.4 121.76 1089.96 Q119.955 1093.51 119.955 1100.64 Q119.955 1107.74 121.76 1111.31 Q123.589 1114.85 127.2 1114.85 Q130.834 1114.85 132.64 1111.31 Q134.468 1107.74 134.468 1100.64 Q134.468 1093.51 132.64 1089.96 Q130.834 1086.4 127.2 1086.4 M127.2 1082.7 Q133.01 1082.7 136.066 1087.3 Q139.144 1091.89 139.144 1100.64 Q139.144 1109.36 136.066 1113.97 Q133.01 1118.55 127.2 1118.55 Q121.39 1118.55 118.311 1113.97 Q115.256 1109.36 115.256 1100.64 Q115.256 1091.89 118.311 1087.3 Q121.39 1082.7 127.2 1082.7 Z" fill="#000000" fill-rule="nonzero" fill-opacity="1"></path><path clip-path="url(#clip250)" d="M147.362 1112 L152.246 1112 L152.246 1117.88 L147.362 1117.88 L147.362 1112 Z" fill="#000000" fill-rule="nonzero" fill-opacity="1"></path><path clip-path="url(#clip250)" d="M166.459 1113.95 L182.778 1113.95 L182.778 1117.88 L160.834 1117.88 L160.834 1113.95 Q163.496 1111.19 168.079 1106.56 Q172.686 1101.91 173.866 1100.57 Q176.112 1098.04 176.991 1096.31 Q177.894 1094.55 177.894 1092.86 Q177.894 1090.1 175.95 1088.37 Q174.028 1086.63 170.927 1086.63 Q168.727 1086.63 166.274 1087.4 Q163.843 1088.16 161.065 1089.71 L161.065 1084.99 Q163.89 1083.85 166.343 1083.27 Q168.797 1082.7 170.834 1082.7 Q176.204 1082.7 179.399 1085.38 Q182.593 1088.07 182.593 1092.56 Q182.593 1094.69 181.783 1096.61 Q180.996 1098.51 178.889 1101.1 Q178.311 1101.77 175.209 1104.99 Q172.107 1108.18 166.459 1113.95 Z" fill="#000000" fill-rule="nonzero" fill-opacity="1"></path><path clip-path="url(#clip250)" d="M192.639 1083.32 L210.996 1083.32 L210.996 1087.26 L196.922 1087.26 L196.922 1095.73 Q197.94 1095.38 198.959 1095.22 Q199.977 1095.03 200.996 1095.03 Q206.783 1095.03 210.162 1098.21 Q213.542 1101.38 213.542 1106.79 Q213.542 1112.37 210.07 1115.47 Q206.598 1118.55 200.278 1118.55 Q198.102 1118.55 195.834 1118.18 Q193.588 1117.81 191.181 1117.07 L191.181 1112.37 Q193.264 1113.51 195.487 1114.06 Q197.709 1114.62 200.186 1114.62 Q204.19 1114.62 206.528 1112.51 Q208.866 1110.4 208.866 1106.79 Q208.866 1103.18 206.528 1101.08 Q204.19 1098.97 200.186 1098.97 Q198.311 1098.97 196.436 1099.39 Q194.584 1099.8 192.639 1100.68 L192.639 1083.32 Z" fill="#000000" fill-rule="nonzero" fill-opacity="1"></path><path clip-path="url(#clip250)" d="M126.205 766.444 Q122.593 766.444 120.765 770.009 Q118.959 773.551 118.959 780.68 Q118.959 787.787 120.765 791.351 Q122.593 794.893 126.205 794.893 Q129.839 794.893 131.644 791.351 Q133.473 787.787 133.473 780.68 Q133.473 773.551 131.644 770.009 Q129.839 766.444 126.205 766.444 M126.205 762.74 Q132.015 762.74 135.07 767.347 Q138.149 771.93 138.149 780.68 Q138.149 789.407 135.07 794.013 Q132.015 798.597 126.205 798.597 Q120.394 798.597 117.316 794.013 Q114.26 789.407 114.26 780.68 Q114.26 771.93 117.316 767.347 Q120.394 762.74 126.205 762.74 Z" fill="#000000" fill-rule="nonzero" fill-opacity="1"></path><path clip-path="url(#clip250)" d="M146.366 792.046 L151.251 792.046 L151.251 797.925 L146.366 797.925 L146.366 792.046 Z" fill="#000000" fill-rule="nonzero" fill-opacity="1"></path><path clip-path="url(#clip250)" d="M161.482 763.365 L179.839 763.365 L179.839 767.301 L165.765 767.301 L165.765 775.773 Q166.783 775.426 167.802 775.264 Q168.82 775.078 169.839 775.078 Q175.626 775.078 179.005 778.25 Q182.385 781.421 182.385 786.838 Q182.385 792.416 178.913 795.518 Q175.44 798.597 169.121 798.597 Q166.945 798.597 164.677 798.226 Q162.431 797.856 160.024 797.115 L160.024 792.416 Q162.107 793.55 164.329 794.106 Q166.552 794.662 169.028 794.662 Q173.033 794.662 175.371 792.555 Q177.709 790.449 177.709 786.838 Q177.709 783.226 175.371 781.12 Q173.033 779.013 169.028 779.013 Q167.153 779.013 165.278 779.43 Q163.427 779.847 161.482 780.726 L161.482 763.365 Z" fill="#000000" fill-rule="nonzero" fill-opacity="1"></path><path clip-path="url(#clip250)" d="M201.598 766.444 Q197.987 766.444 196.158 770.009 Q194.352 773.551 194.352 780.68 Q194.352 787.787 196.158 791.351 Q197.987 794.893 201.598 794.893 Q205.232 794.893 207.037 791.351 Q208.866 787.787 208.866 780.68 Q208.866 773.551 207.037 770.009 Q205.232 766.444 201.598 766.444 M201.598 762.74 Q207.408 762.74 210.463 767.347 Q213.542 771.93 213.542 780.68 Q213.542 789.407 210.463 794.013 Q207.408 798.597 201.598 798.597 Q195.787 798.597 192.709 794.013 Q189.653 789.407 189.653 780.68 Q189.653 771.93 192.709 767.347 Q195.787 762.74 201.598 762.74 Z" fill="#000000" fill-rule="nonzero" fill-opacity="1"></path><path clip-path="url(#clip250)" d="M127.2 446.488 Q123.589 446.488 121.76 450.053 Q119.955 453.595 119.955 460.724 Q119.955 467.831 121.76 471.396 Q123.589 474.937 127.2 474.937 Q130.834 474.937 132.64 471.396 Q134.468 467.831 134.468 460.724 Q134.468 453.595 132.64 450.053 Q130.834 446.488 127.2 446.488 M127.2 442.785 Q133.01 442.785 136.066 447.391 Q139.144 451.974 139.144 460.724 Q139.144 469.451 136.066 474.058 Q133.01 478.641 127.2 478.641 Q121.39 478.641 118.311 474.058 Q115.256 469.451 115.256 460.724 Q115.256 451.974 118.311 447.391 Q121.39 442.785 127.2 442.785 Z" fill="#000000" fill-rule="nonzero" fill-opacity="1"></path><path clip-path="url(#clip250)" d="M147.362 472.09 L152.246 472.09 L152.246 477.97 L147.362 477.97 L147.362 472.09 Z" fill="#000000" fill-rule="nonzero" fill-opacity="1"></path><path clip-path="url(#clip250)" d="M161.251 443.41 L183.473 443.41 L183.473 445.4 L170.927 477.97 L166.042 477.97 L177.848 447.345 L161.251 447.345 L161.251 443.41 Z" fill="#000000" fill-rule="nonzero" fill-opacity="1"></path><path clip-path="url(#clip250)" d="M192.639 443.41 L210.996 443.41 L210.996 447.345 L196.922 447.345 L196.922 455.817 Q197.94 455.47 198.959 455.308 Q199.977 455.123 200.996 455.123 Q206.783 455.123 210.162 458.294 Q213.542 461.465 213.542 466.882 Q213.542 472.46 210.07 475.562 Q206.598 478.641 200.278 478.641 Q198.102 478.641 195.834 478.271 Q193.588 477.9 191.181 477.16 L191.181 472.46 Q193.264 473.595 195.487 474.15 Q197.709 474.706 200.186 474.706 Q204.19 474.706 206.528 472.599 Q208.866 470.493 208.866 466.882 Q208.866 463.271 206.528 461.164 Q204.19 459.058 200.186 459.058 Q198.311 459.058 196.436 459.474 Q194.584 459.891 192.639 460.771 L192.639 443.41 Z" fill="#000000" fill-rule="nonzero" fill-opacity="1"></path><path clip-path="url(#clip250)" d="M117.015 154.079 L124.654 154.079 L124.654 127.713 L116.343 129.38 L116.343 125.121 L124.607 123.454 L129.283 123.454 L129.283 154.079 L136.922 154.079 L136.922 158.014 L117.015 158.014 L117.015 154.079 Z" fill="#000000" fill-rule="nonzero" fill-opacity="1"></path><path clip-path="url(#clip250)" d="M146.366 152.134 L151.251 152.134 L151.251 158.014 L146.366 158.014 L146.366 152.134 Z" fill="#000000" fill-rule="nonzero" fill-opacity="1"></path><path clip-path="url(#clip250)" d="M171.436 126.533 Q167.825 126.533 165.996 130.097 Q164.19 133.639 164.19 140.769 Q164.19 147.875 165.996 151.44 Q167.825 154.982 171.436 154.982 Q175.07 154.982 176.876 151.44 Q178.704 147.875 178.704 140.769 Q178.704 133.639 176.876 130.097 Q175.07 126.533 171.436 126.533 M171.436 122.829 Q177.246 122.829 180.301 127.435 Q183.38 132.019 183.38 140.769 Q183.38 149.496 180.301 154.102 Q177.246 158.685 171.436 158.685 Q165.626 158.685 162.547 154.102 Q159.491 149.496 159.491 140.769 Q159.491 132.019 162.547 127.435 Q165.626 122.829 171.436 122.829 Z" fill="#000000" fill-rule="nonzero" fill-opacity="1"></path><path clip-path="url(#clip250)" d="M201.598 126.533 Q197.987 126.533 196.158 130.097 Q194.352 133.639 194.352 140.769 Q194.352 147.875 196.158 151.44 Q197.987 154.982 201.598 154.982 Q205.232 154.982 207.037 151.44 Q208.866 147.875 208.866 140.769 Q208.866 133.639 207.037 130.097 Q205.232 126.533 201.598 126.533 M201.598 122.829 Q207.408 122.829 210.463 127.435 Q213.542 132.019 213.542 140.769 Q213.542 149.496 210.463 154.102 Q207.408 158.685 201.598 158.685 Q195.787 158.685 192.709 154.102 Q189.653 149.496 189.653 140.769 Q189.653 132.019 192.709 127.435 Q195.787 122.829 201.598 122.829 Z" fill="#000000" fill-rule="nonzero" fill-opacity="1"></path><path clip-path="url(#clip250)" d="M16.4842 840.023 L16.4842 833.593 L58.5933 833.593 L58.5933 810.454 L64.0042 810.454 L64.0042 840.023 L16.4842 840.023 Z" fill="#000000" fill-rule="nonzero" fill-opacity="1"></path><path clip-path="url(#clip250)" d="M32.4621 791.293 Q32.4621 796.004 36.1542 798.741 Q39.8145 801.478 46.212 801.478 Q52.6095 801.478 56.3017 798.773 Q59.9619 796.036 59.9619 791.293 Q59.9619 786.614 56.2698 783.877 Q52.5777 781.14 46.212 781.14 Q39.8781 781.14 36.186 783.877 Q32.4621 786.614 32.4621 791.293 M27.4968 791.293 Q27.4968 783.654 32.4621 779.294 Q37.4273 774.933 46.212 774.933 Q54.9649 774.933 59.9619 779.294 Q64.9272 783.654 64.9272 791.293 Q64.9272 798.964 59.9619 803.324 Q54.9649 807.653 46.212 807.653 Q37.4273 807.653 32.4621 803.324 Q27.4968 798.964 27.4968 791.293 Z" fill="#000000" fill-rule="nonzero" fill-opacity="1"></path><path clip-path="url(#clip250)" d="M29.4065 742.5 L34.9447 742.5 Q33.6716 744.983 33.035 747.656 Q32.3984 750.33 32.3984 753.194 Q32.3984 757.555 33.7352 759.751 Q35.072 761.915 37.7456 761.915 Q39.7826 761.915 40.9603 760.356 Q42.1061 758.796 43.1565 754.086 L43.6021 752.08 Q44.9389 745.842 47.3897 743.232 Q49.8086 740.59 54.1691 740.59 Q59.1344 740.59 62.0308 744.537 Q64.9272 748.452 64.9272 755.327 Q64.9272 758.192 64.3543 761.311 Q63.8132 764.398 62.6992 767.836 L56.6518 767.836 Q58.3387 764.589 59.198 761.438 Q60.0256 758.287 60.0256 755.2 Q60.0256 751.062 58.6251 748.834 Q57.1929 746.606 54.6147 746.606 Q52.2276 746.606 50.9545 748.229 Q49.6813 749.821 48.5037 755.263 L48.0262 757.3 Q46.8804 762.743 44.5251 765.162 Q42.138 767.581 38.0002 767.581 Q32.9713 767.581 30.2341 764.016 Q27.4968 760.451 27.4968 753.895 Q27.4968 750.648 27.9743 747.784 Q28.4517 744.919 29.4065 742.5 Z" fill="#000000" fill-rule="nonzero" fill-opacity="1"></path><path clip-path="url(#clip250)" d="M29.4065 708.539 L34.9447 708.539 Q33.6716 711.022 33.035 713.695 Q32.3984 716.369 32.3984 719.233 Q32.3984 723.594 33.7352 725.79 Q35.072 727.954 37.7456 727.954 Q39.7826 727.954 40.9603 726.395 Q42.1061 724.835 43.1565 720.125 L43.6021 718.119 Q44.9389 711.881 47.3897 709.271 Q49.8086 706.629 54.1691 706.629 Q59.1344 706.629 62.0308 710.576 Q64.9272 714.491 64.9272 721.366 Q64.9272 724.23 64.3543 727.35 Q63.8132 730.437 62.6992 733.875 L56.6518 733.875 Q58.3387 730.628 59.198 727.477 Q60.0256 724.326 60.0256 721.239 Q60.0256 717.101 58.6251 714.873 Q57.1929 712.645 54.6147 712.645 Q52.2276 712.645 50.9545 714.268 Q49.6813 715.86 48.5037 721.302 L48.0262 723.339 Q46.8804 728.782 44.5251 731.201 Q42.138 733.62 38.0002 733.62 Q32.9713 733.62 30.2341 730.055 Q27.4968 726.49 27.4968 719.934 Q27.4968 716.687 27.9743 713.823 Q28.4517 710.958 29.4065 708.539 Z" fill="#000000" fill-rule="nonzero" fill-opacity="1"></path><path clip-path="url(#clip250)" d="M616.951 12.096 L627.97 12.096 L654.787 62.6918 L654.787 12.096 L662.726 12.096 L662.726 72.576 L651.708 72.576 L624.891 21.9802 L624.891 72.576 L616.951 72.576 L616.951 12.096 Z" fill="#000000" fill-rule="nonzero" fill-opacity="1"></path><path clip-path="url(#clip250)" d="M717.495 48.0275 L717.495 51.6733 L683.224 51.6733 Q683.71 59.3701 687.842 63.421 Q692.015 67.4314 699.428 67.4314 Q703.722 67.4314 707.732 66.3781 Q711.783 65.3249 715.753 63.2184 L715.753 70.267 Q711.742 71.9684 707.529 72.8596 Q703.317 73.7508 698.982 73.7508 Q688.126 73.7508 681.766 67.4314 Q675.446 61.1119 675.446 50.3365 Q675.446 39.1965 681.442 32.6746 Q687.477 26.1121 697.686 26.1121 Q706.841 26.1121 712.147 32.0264 Q717.495 37.9003 717.495 48.0275 M710.041 45.84 Q709.96 39.7232 706.598 36.0774 Q703.276 32.4315 697.767 32.4315 Q691.528 32.4315 687.761 35.9558 Q684.034 39.4801 683.467 45.8805 L710.041 45.84 Z" fill="#000000" fill-rule="nonzero" fill-opacity="1"></path><path clip-path="url(#clip250)" d="M728.959 54.671 L728.959 27.2059 L736.412 27.2059 L736.412 54.3874 Q736.412 60.8284 738.924 64.0691 Q741.436 67.2693 746.459 67.2693 Q752.495 67.2693 755.978 63.421 Q759.503 59.5726 759.503 52.9291 L759.503 27.2059 L766.956 27.2059 L766.956 72.576 L759.503 72.576 L759.503 65.6084 Q756.788 69.7404 753.183 71.7658 Q749.618 73.7508 744.879 73.7508 Q737.061 73.7508 733.01 68.8897 Q728.959 64.0286 728.959 54.671 M747.714 26.1121 L747.714 26.1121 Z" fill="#000000" fill-rule="nonzero" fill-opacity="1"></path><path clip-path="url(#clip250)" d="M808.6 34.1734 Q807.344 33.4443 805.845 33.1202 Q804.387 32.7556 802.604 32.7556 Q796.285 32.7556 792.882 36.8875 Q789.52 40.9789 789.52 48.6757 L789.52 72.576 L782.026 72.576 L782.026 27.2059 L789.52 27.2059 L789.52 34.2544 Q791.869 30.1225 795.637 28.1376 Q799.404 26.1121 804.792 26.1121 Q805.561 26.1121 806.493 26.2337 Q807.425 26.3147 808.559 26.5172 L808.6 34.1734 Z" fill="#000000" fill-rule="nonzero" fill-opacity="1"></path><path clip-path="url(#clip250)" d="M837.037 49.7694 Q828.003 49.7694 824.52 51.8354 Q821.036 53.9013 821.036 58.8839 Q821.036 62.8538 823.628 65.2034 Q826.261 67.5124 830.758 67.5124 Q836.956 67.5124 840.683 63.1374 Q844.45 58.7219 844.45 51.4303 L844.45 49.7694 L837.037 49.7694 M851.904 46.6907 L851.904 72.576 L844.45 72.576 L844.45 65.6895 Q841.898 69.8214 838.09 71.8063 Q834.282 73.7508 828.773 73.7508 Q821.805 73.7508 817.674 69.8619 Q813.582 65.9325 813.582 59.3701 Q813.582 51.7138 818.686 47.825 Q823.831 43.9361 833.999 43.9361 L844.45 43.9361 L844.45 43.2069 Q844.45 38.0623 841.047 35.2672 Q837.685 32.4315 831.568 32.4315 Q827.679 32.4315 823.993 33.3632 Q820.307 34.295 816.904 36.1584 L816.904 29.2718 Q820.995 27.692 824.844 26.9223 Q828.692 26.1121 832.338 26.1121 Q842.182 26.1121 847.043 31.2163 Q851.904 36.3204 851.904 46.6907 Z" fill="#000000" fill-rule="nonzero" fill-opacity="1"></path><path clip-path="url(#clip250)" d="M867.257 9.54393 L874.71 9.54393 L874.71 72.576 L867.257 72.576 L867.257 9.54393 Z" fill="#000000" fill-rule="nonzero" fill-opacity="1"></path><path clip-path="url(#clip250)" d="M917.002 12.096 L928.02 12.096 L954.837 62.6918 L954.837 12.096 L962.777 12.096 L962.777 72.576 L951.758 72.576 L924.941 21.9802 L924.941 72.576 L917.002 72.576 L917.002 12.096 Z" fill="#000000" fill-rule="nonzero" fill-opacity="1"></path><path clip-path="url(#clip250)" d="M1017.55 48.0275 L1017.55 51.6733 L983.275 51.6733 Q983.761 59.3701 987.893 63.421 Q992.065 67.4314 999.478 67.4314 Q1003.77 67.4314 1007.78 66.3781 Q1011.83 65.3249 1015.8 63.2184 L1015.8 70.267 Q1011.79 71.9684 1007.58 72.8596 Q1003.37 73.7508 999.033 73.7508 Q988.176 73.7508 981.816 67.4314 Q975.497 61.1119 975.497 50.3365 Q975.497 39.1965 981.492 32.6746 Q987.528 26.1121 997.736 26.1121 Q1006.89 26.1121 1012.2 32.0264 Q1017.55 37.9003 1017.55 48.0275 M1010.09 45.84 Q1010.01 39.7232 1006.65 36.0774 Q1003.33 32.4315 997.817 32.4315 Q991.579 32.4315 987.812 35.9558 Q984.085 39.4801 983.518 45.8805 L1010.09 45.84 Z" fill="#000000" fill-rule="nonzero" fill-opacity="1"></path><path clip-path="url(#clip250)" d="M1037.15 14.324 L1037.15 27.2059 L1052.5 27.2059 L1052.5 32.9987 L1037.15 32.9987 L1037.15 57.6282 Q1037.15 63.1779 1038.65 64.7578 Q1040.19 66.3376 1044.85 66.3376 L1052.5 66.3376 L1052.5 72.576 L1044.85 72.576 Q1036.22 72.576 1032.94 69.3758 Q1029.66 66.1351 1029.66 57.6282 L1029.66 32.9987 L1024.19 32.9987 L1024.19 27.2059 L1029.66 27.2059 L1029.66 14.324 L1037.15 14.324 Z" fill="#000000" fill-rule="nonzero" fill-opacity="1"></path><path clip-path="url(#clip250)" d="M1057.97 27.2059 L1065.43 27.2059 L1074.74 62.6108 L1084.02 27.2059 L1092.81 27.2059 L1102.13 62.6108 L1111.4 27.2059 L1118.86 27.2059 L1106.99 72.576 L1098.2 72.576 L1088.44 35.3887 L1078.63 72.576 L1069.84 72.576 L1057.97 27.2059 Z" fill="#000000" fill-rule="nonzero" fill-opacity="1"></path><path clip-path="url(#clip250)" d="M1147.74 32.4315 Q1141.75 32.4315 1138.26 37.1306 Q1134.78 41.7891 1134.78 49.9314 Q1134.78 58.0738 1138.22 62.7728 Q1141.71 67.4314 1147.74 67.4314 Q1153.7 67.4314 1157.18 62.7323 Q1160.66 58.0333 1160.66 49.9314 Q1160.66 41.8701 1157.18 37.1711 Q1153.7 32.4315 1147.74 32.4315 M1147.74 26.1121 Q1157.46 26.1121 1163.01 32.4315 Q1168.56 38.7509 1168.56 49.9314 Q1168.56 61.0714 1163.01 67.4314 Q1157.46 73.7508 1147.74 73.7508 Q1137.98 73.7508 1132.43 67.4314 Q1126.92 61.0714 1126.92 49.9314 Q1126.92 38.7509 1132.43 32.4315 Q1137.98 26.1121 1147.74 26.1121 Z" fill="#000000" fill-rule="nonzero" fill-opacity="1"></path><path clip-path="url(#clip250)" d="M1207.21 34.1734 Q1205.95 33.4443 1204.45 33.1202 Q1203 32.7556 1201.21 32.7556 Q1194.89 32.7556 1191.49 36.8875 Q1188.13 40.9789 1188.13 48.6757 L1188.13 72.576 L1180.63 72.576 L1180.63 27.2059 L1188.13 27.2059 L1188.13 34.2544 Q1190.48 30.1225 1194.25 28.1376 Q1198.01 26.1121 1203.4 26.1121 Q1204.17 26.1121 1205.1 26.2337 Q1206.03 26.3147 1207.17 26.5172 L1207.21 34.1734 Z" fill="#000000" fill-rule="nonzero" fill-opacity="1"></path><path clip-path="url(#clip250)" d="M1214.74 9.54393 L1222.24 9.54393 L1222.24 46.7717 L1244.48 27.2059 L1254 27.2059 L1229.93 48.4326 L1255.01 72.576 L1245.29 72.576 L1222.24 50.4176 L1222.24 72.576 L1214.74 72.576 L1214.74 9.54393 Z" fill="#000000" fill-rule="nonzero" fill-opacity="1"></path><path clip-path="url(#clip250)" d="M1281.38 12.096 L1332.54 12.096 L1332.54 18.9825 L1311.07 18.9825 L1311.07 72.576 L1302.85 72.576 L1302.85 18.9825 L1281.38 18.9825 L1281.38 12.096 Z" fill="#000000" fill-rule="nonzero" fill-opacity="1"></path><path clip-path="url(#clip250)" d="M1354.22 34.1734 Q1352.96 33.4443 1351.46 33.1202 Q1350 32.7556 1348.22 32.7556 Q1341.9 32.7556 1338.5 36.8875 Q1335.14 40.9789 1335.14 48.6757 L1335.14 72.576 L1327.64 72.576 L1327.64 27.2059 L1335.14 27.2059 L1335.14 34.2544 Q1337.49 30.1225 1341.25 28.1376 Q1345.02 26.1121 1350.41 26.1121 Q1351.18 26.1121 1352.11 26.2337 Q1353.04 26.3147 1354.18 26.5172 L1354.22 34.1734 Z" fill="#000000" fill-rule="nonzero" fill-opacity="1"></path><path clip-path="url(#clip250)" d="M1382.65 49.7694 Q1373.62 49.7694 1370.14 51.8354 Q1366.65 53.9013 1366.65 58.8839 Q1366.65 62.8538 1369.24 65.2034 Q1371.88 67.5124 1376.37 67.5124 Q1382.57 67.5124 1386.3 63.1374 Q1390.07 58.7219 1390.07 51.4303 L1390.07 49.7694 L1382.65 49.7694 M1397.52 46.6907 L1397.52 72.576 L1390.07 72.576 L1390.07 65.6895 Q1387.51 69.8214 1383.71 71.8063 Q1379.9 73.7508 1374.39 73.7508 Q1367.42 73.7508 1363.29 69.8619 Q1359.2 65.9325 1359.2 59.3701 Q1359.2 51.7138 1364.3 47.825 Q1369.45 43.9361 1379.61 43.9361 L1390.07 43.9361 L1390.07 43.2069 Q1390.07 38.0623 1386.66 35.2672 Q1383.3 32.4315 1377.18 32.4315 Q1373.3 32.4315 1369.61 33.3632 Q1365.92 34.295 1362.52 36.1584 L1362.52 29.2718 Q1366.61 27.692 1370.46 26.9223 Q1374.31 26.1121 1377.95 26.1121 Q1387.8 26.1121 1392.66 31.2163 Q1397.52 36.3204 1397.52 46.6907 Z" fill="#000000" fill-rule="nonzero" fill-opacity="1"></path><path clip-path="url(#clip250)" d="M1412.87 27.2059 L1420.33 27.2059 L1420.33 72.576 L1412.87 72.576 L1412.87 27.2059 M1412.87 9.54393 L1420.33 9.54393 L1420.33 18.9825 L1412.87 18.9825 L1412.87 9.54393 Z" fill="#000000" fill-rule="nonzero" fill-opacity="1"></path><path clip-path="url(#clip250)" d="M1473.64 45.1919 L1473.64 72.576 L1466.18 72.576 L1466.18 45.4349 Q1466.18 38.994 1463.67 35.7938 Q1461.16 32.5936 1456.14 32.5936 Q1450.1 32.5936 1446.62 36.4419 Q1443.13 40.2903 1443.13 46.9338 L1443.13 72.576 L1435.64 72.576 L1435.64 27.2059 L1443.13 27.2059 L1443.13 34.2544 Q1445.81 30.163 1449.41 28.1376 Q1453.06 26.1121 1457.8 26.1121 Q1465.62 26.1121 1469.63 30.9732 Q1473.64 35.7938 1473.64 45.1919 Z" fill="#000000" fill-rule="nonzero" fill-opacity="1"></path><path clip-path="url(#clip250)" d="M1488.5 27.2059 L1495.96 27.2059 L1495.96 72.576 L1488.5 72.576 L1488.5 27.2059 M1488.5 9.54393 L1495.96 9.54393 L1495.96 18.9825 L1488.5 18.9825 L1488.5 9.54393 Z" fill="#000000" fill-rule="nonzero" fill-opacity="1"></path><path clip-path="url(#clip250)" d="M1549.27 45.1919 L1549.27 72.576 L1541.81 72.576 L1541.81 45.4349 Q1541.81 38.994 1539.3 35.7938 Q1536.79 32.5936 1531.77 32.5936 Q1525.73 32.5936 1522.25 36.4419 Q1518.76 40.2903 1518.76 46.9338 L1518.76 72.576 L1511.27 72.576 L1511.27 27.2059 L1518.76 27.2059 L1518.76 34.2544 Q1521.44 30.163 1525.04 28.1376 Q1528.69 26.1121 1533.43 26.1121 Q1541.25 26.1121 1545.26 30.9732 Q1549.27 35.7938 1549.27 45.1919 Z" fill="#000000" fill-rule="nonzero" fill-opacity="1"></path><path clip-path="url(#clip250)" d="M1593.99 49.3643 Q1593.99 41.2625 1590.63 36.8065 Q1587.3 32.3505 1581.27 32.3505 Q1575.27 32.3505 1571.91 36.8065 Q1568.59 41.2625 1568.59 49.3643 Q1568.59 57.4256 1571.91 61.8816 Q1575.27 66.3376 1581.27 66.3376 Q1587.3 66.3376 1590.63 61.8816 Q1593.99 57.4256 1593.99 49.3643 M1601.44 66.9452 Q1601.44 78.5308 1596.3 84.1616 Q1591.15 89.8329 1580.54 89.8329 Q1576.61 89.8329 1573.13 89.2252 Q1569.64 88.6581 1566.36 87.4428 L1566.36 80.1917 Q1569.64 81.9741 1572.84 82.8248 Q1576.04 83.6755 1579.37 83.6755 Q1586.7 83.6755 1590.34 79.8271 Q1593.99 76.0193 1593.99 68.282 L1593.99 64.5957 Q1591.68 68.6061 1588.07 70.5911 Q1584.47 72.576 1579.45 72.576 Q1571.1 72.576 1566 66.2161 Q1560.89 59.8562 1560.89 49.3643 Q1560.89 38.832 1566 32.472 Q1571.1 26.1121 1579.45 26.1121 Q1584.47 26.1121 1588.07 28.0971 Q1591.68 30.082 1593.99 34.0924 L1593.99 27.2059 L1601.44 27.2059 L1601.44 66.9452 Z" fill="#000000" fill-rule="nonzero" fill-opacity="1"></path><path clip-path="url(#clip250)" d="M1651.67 18.8205 L1651.67 41.5461 L1661.96 41.5461 Q1667.67 41.5461 1670.79 38.5889 Q1673.91 35.6318 1673.91 30.163 Q1673.91 24.7348 1670.79 21.7777 Q1667.67 18.8205 1661.96 18.8205 L1651.67 18.8205 M1643.49 12.096 L1661.96 12.096 Q1672.13 12.096 1677.32 16.714 Q1682.54 21.2916 1682.54 30.163 Q1682.54 39.1155 1677.32 43.6931 Q1672.13 48.2706 1661.96 48.2706 L1651.67 48.2706 L1651.67 72.576 L1643.49 72.576 L1643.49 12.096 Z" fill="#000000" fill-rule="nonzero" fill-opacity="1"></path><path clip-path="url(#clip250)" d="M1718.03 34.1734 Q1716.77 33.4443 1715.27 33.1202 Q1713.81 32.7556 1712.03 32.7556 Q1705.71 32.7556 1702.31 36.8875 Q1698.95 40.9789 1698.95 48.6757 L1698.95 72.576 L1691.45 72.576 L1691.45 27.2059 L1698.95 27.2059 L1698.95 34.2544 Q1701.3 30.1225 1705.06 28.1376 Q1708.83 26.1121 1714.22 26.1121 Q1714.99 26.1121 1715.92 26.2337 Q1716.85 26.3147 1717.99 26.5172 L1718.03 34.1734 Z" fill="#000000" fill-rule="nonzero" fill-opacity="1"></path><path clip-path="url(#clip250)" d="M1741.6 32.4315 Q1735.61 32.4315 1732.12 37.1306 Q1728.64 41.7891 1728.64 49.9314 Q1728.64 58.0738 1732.08 62.7728 Q1735.57 67.4314 1741.6 67.4314 Q1747.56 67.4314 1751.04 62.7323 Q1754.53 58.0333 1754.53 49.9314 Q1754.53 41.8701 1751.04 37.1711 Q1747.56 32.4315 1741.6 32.4315 M1741.6 26.1121 Q1751.33 26.1121 1756.88 32.4315 Q1762.43 38.7509 1762.43 49.9314 Q1762.43 61.0714 1756.88 67.4314 Q1751.33 73.7508 1741.6 73.7508 Q1731.84 73.7508 1726.29 67.4314 Q1720.78 61.0714 1720.78 49.9314 Q1720.78 38.7509 1726.29 32.4315 Q1731.84 26.1121 1741.6 26.1121 Z" fill="#000000" fill-rule="nonzero" fill-opacity="1"></path><path clip-path="url(#clip250)" d="M1804.64 49.3643 Q1804.64 41.2625 1801.27 36.8065 Q1797.95 32.3505 1791.92 32.3505 Q1785.92 32.3505 1782.56 36.8065 Q1779.24 41.2625 1779.24 49.3643 Q1779.24 57.4256 1782.56 61.8816 Q1785.92 66.3376 1791.92 66.3376 Q1797.95 66.3376 1801.27 61.8816 Q1804.64 57.4256 1804.64 49.3643 M1812.09 66.9452 Q1812.09 78.5308 1806.94 84.1616 Q1801.8 89.8329 1791.19 89.8329 Q1787.26 89.8329 1783.77 89.2252 Q1780.29 88.6581 1777.01 87.4428 L1777.01 80.1917 Q1780.29 81.9741 1783.49 82.8248 Q1786.69 83.6755 1790.01 83.6755 Q1797.34 83.6755 1800.99 79.8271 Q1804.64 76.0193 1804.64 68.282 L1804.64 64.5957 Q1802.33 68.6061 1798.72 70.5911 Q1795.12 72.576 1790.09 72.576 Q1781.75 72.576 1776.64 66.2161 Q1771.54 59.8562 1771.54 49.3643 Q1771.54 38.832 1776.64 32.472 Q1781.75 26.1121 1790.09 26.1121 Q1795.12 26.1121 1798.72 28.0971 Q1802.33 30.082 1804.64 34.0924 L1804.64 27.2059 L1812.09 27.2059 L1812.09 66.9452 Z" fill="#000000" fill-rule="nonzero" fill-opacity="1"></path><path clip-path="url(#clip250)" d="M1853.73 34.1734 Q1852.48 33.4443 1850.98 33.1202 Q1849.52 32.7556 1847.74 32.7556 Q1841.42 32.7556 1838.02 36.8875 Q1834.65 40.9789 1834.65 48.6757 L1834.65 72.576 L1827.16 72.576 L1827.16 27.2059 L1834.65 27.2059 L1834.65 34.2544 Q1837 30.1225 1840.77 28.1376 Q1844.54 26.1121 1849.92 26.1121 Q1850.69 26.1121 1851.63 26.2337 Q1852.56 26.3147 1853.69 26.5172 L1853.73 34.1734 Z" fill="#000000" fill-rule="nonzero" fill-opacity="1"></path><path clip-path="url(#clip250)" d="M1898.54 48.0275 L1898.54 51.6733 L1864.27 51.6733 Q1864.75 59.3701 1868.88 63.421 Q1873.06 67.4314 1880.47 67.4314 Q1884.76 67.4314 1888.77 66.3781 Q1892.82 65.3249 1896.79 63.2184 L1896.79 70.267 Q1892.78 71.9684 1888.57 72.8596 Q1884.36 73.7508 1880.02 73.7508 Q1869.17 73.7508 1862.81 67.4314 Q1856.49 61.1119 1856.49 50.3365 Q1856.49 39.1965 1862.48 32.6746 Q1868.52 26.1121 1878.73 26.1121 Q1887.88 26.1121 1893.19 32.0264 Q1898.54 37.9003 1898.54 48.0275 M1891.08 45.84 Q1891 39.7232 1887.64 36.0774 Q1884.32 32.4315 1878.81 32.4315 Q1872.57 32.4315 1868.8 35.9558 Q1865.08 39.4801 1864.51 45.8805 L1891.08 45.84 Z" fill="#000000" fill-rule="nonzero" fill-opacity="1"></path><path clip-path="url(#clip250)" d="M1939.69 28.5427 L1939.69 35.5912 Q1936.53 33.9709 1933.13 33.1607 Q1929.73 32.3505 1926.08 32.3505 Q1920.53 32.3505 1917.74 34.0519 Q1914.98 35.7533 1914.98 39.156 Q1914.98 41.7486 1916.97 43.2475 Q1918.95 44.7058 1924.95 46.0426 L1927.5 46.6097 Q1935.44 48.3111 1938.76 51.4303 Q1942.12 54.509 1942.12 60.0587 Q1942.12 66.3781 1937.1 70.0644 Q1932.12 73.7508 1923.37 73.7508 Q1919.72 73.7508 1915.75 73.0216 Q1911.82 72.3329 1907.45 70.9151 L1907.45 63.2184 Q1911.58 65.3654 1915.59 66.4591 Q1919.6 67.5124 1923.53 67.5124 Q1928.8 67.5124 1931.63 65.73 Q1934.47 63.9071 1934.47 60.6258 Q1934.47 57.5877 1932.4 55.9673 Q1930.38 54.3469 1923.45 52.8481 L1920.86 52.2405 Q1913.93 50.7821 1910.85 47.7845 Q1907.77 44.7463 1907.77 39.4801 Q1907.77 33.0797 1912.31 29.5959 Q1916.85 26.1121 1925.19 26.1121 Q1929.32 26.1121 1932.97 26.7198 Q1936.61 27.3274 1939.69 28.5427 Z" fill="#000000" fill-rule="nonzero" fill-opacity="1"></path><path clip-path="url(#clip250)" d="M1982.92 28.5427 L1982.92 35.5912 Q1979.76 33.9709 1976.35 33.1607 Q1972.95 32.3505 1969.31 32.3505 Q1963.76 32.3505 1960.96 34.0519 Q1958.21 35.7533 1958.21 39.156 Q1958.21 41.7486 1960.19 43.2475 Q1962.18 44.7058 1968.17 46.0426 L1970.72 46.6097 Q1978.66 48.3111 1981.98 51.4303 Q1985.35 54.509 1985.35 60.0587 Q1985.35 66.3781 1980.32 70.0644 Q1975.34 73.7508 1966.59 73.7508 Q1962.95 73.7508 1958.98 73.0216 Q1955.05 72.3329 1950.67 70.9151 L1950.67 63.2184 Q1954.8 65.3654 1958.81 66.4591 Q1962.82 67.5124 1966.75 67.5124 Q1972.02 67.5124 1974.85 65.73 Q1977.69 63.9071 1977.69 60.6258 Q1977.69 57.5877 1975.62 55.9673 Q1973.6 54.3469 1966.67 52.8481 L1964.08 52.2405 Q1957.15 50.7821 1954.07 47.7845 Q1951 44.7463 1951 39.4801 Q1951 33.0797 1955.53 29.5959 Q1960.07 26.1121 1968.41 26.1121 Q1972.55 26.1121 1976.19 26.7198 Q1979.84 27.3274 1982.92 28.5427 Z" fill="#000000" fill-rule="nonzero" fill-opacity="1"></path><polyline clip-path="url(#clip252)" style="stroke:#009af9; stroke-linecap:round; stroke-linejoin:round; stroke-width:8; stroke-opacity:1; fill:none" points="309.067,1143.15 329.109,266.385 349.151,821.531 369.193,664.752 389.235,981.804 409.277,503.511 429.319,1261.09 449.361,948.643 469.403,528.361 489.446,677.066 509.488,700.678 529.53,1085.44 549.572,1102.58 569.614,470.381 589.656,705.988 609.698,258.792 629.74,585.42 649.782,832.035 669.824,756.191 689.866,625.203 709.908,1088.16 729.95,619.361 749.992,683.509 770.034,662.341 790.076,440.369 810.118,279.819 830.161,831.616 850.203,517.562 870.245,1068.58 890.287,1287.32 910.329,171.276 930.371,356.315 950.413,1296.73 970.455,165.594 990.497,160.256 1010.54,550.559 1030.58,961.441 1050.62,279.35 1070.67,1384.66 1090.71,1088.24 1110.75,713.07 1130.79,886.79 1150.83,301.331 1170.88,931.057 1190.92,268.395 1210.96,987.975 1231,719.317 1251.04,484.533 1271.09,517.462 1291.13,312.055 1311.17,991.646 1331.21,795.143 1351.25,975.856 1371.3,343.601 1391.34,565.302 1411.38,518.062 1431.42,476.304 1451.46,544.942 1471.51,258.431 1491.55,418.057 1511.59,1045.12 1531.63,1217.09 1551.67,276.409 1571.72,506.123 1591.76,1139.54 1611.8,452.342 1631.84,313.441 1651.89,846.953 1671.93,442.492 1691.97,560.224 1712.01,584.293 1732.05,364.175 1752.1,258.434 1772.14,412.671 1792.18,826.674 1812.22,491.335 1832.26,1332.32 1852.31,734.475 1872.35,509.95 1892.39,1349.5 1912.43,187.525 1932.47,229.185 1952.52,407.831 1972.56,457.108 1992.6,243.721 2012.64,931.981 2032.68,547.387 2052.73,1288.24 2072.77,1321.82 2092.81,1055.18 2112.85,261.977 2132.89,177.206 2152.94,706.465 2172.98,199.604 2193.02,1386.4 2213.06,1116.75 2233.1,798.691 2253.15,1008.34 2273.19,1051.49 2293.23,509.762 "></polyline>
<path clip-path="url(#clip250)" d="M1768.39 270.476 L2282.65 270.476 L2282.65 166.796 L1768.39 166.796  Z" fill="#ffffff" fill-rule="evenodd" fill-opacity="1"></path>
<polyline clip-path="url(#clip250)" style="stroke:#000000; stroke-linecap:round; stroke-linejoin:round; stroke-width:4; stroke-opacity:1; fill:none" points="1768.39,270.476 2282.65,270.476 2282.65,166.796 1768.39,166.796 1768.39,270.476 "></polyline>
<polyline clip-path="url(#clip250)" style="stroke:#009af9; stroke-linecap:round; stroke-linejoin:round; stroke-width:8; stroke-opacity:1; fill:none" points="1791.76,218.636 1931.98,218.636 "></polyline>
<path clip-path="url(#clip250)" d="M1955.35 201.356 L1984.58 201.356 L1984.58 205.291 L1972.31 205.291 L1972.31 235.916 L1967.61 235.916 L1967.61 205.291 L1955.35 205.291 L1955.35 201.356 Z" fill="#000000" fill-rule="nonzero" fill-opacity="1"></path><path clip-path="url(#clip250)" d="M1996.97 213.971 Q1996.25 213.555 1995.39 213.37 Q1994.56 213.161 1993.54 213.161 Q1989.93 213.161 1987.98 215.522 Q1986.06 217.86 1986.06 222.258 L1986.06 235.916 L1981.78 235.916 L1981.78 209.99 L1986.06 209.99 L1986.06 214.018 Q1987.41 211.657 1989.56 210.522 Q1991.71 209.365 1994.79 209.365 Q1995.23 209.365 1995.76 209.434 Q1996.3 209.481 1996.94 209.596 L1996.97 213.971 Z" fill="#000000" fill-rule="nonzero" fill-opacity="1"></path><path clip-path="url(#clip250)" d="M2013.22 222.883 Q2008.05 222.883 2006.06 224.064 Q2004.07 225.244 2004.07 228.092 Q2004.07 230.36 2005.55 231.703 Q2007.06 233.022 2009.63 233.022 Q2013.17 233.022 2015.3 230.522 Q2017.45 227.999 2017.45 223.832 L2017.45 222.883 L2013.22 222.883 M2021.71 221.124 L2021.71 235.916 L2017.45 235.916 L2017.45 231.981 Q2015.99 234.342 2013.82 235.476 Q2011.64 236.587 2008.49 236.587 Q2004.51 236.587 2002.15 234.365 Q1999.81 232.119 1999.81 228.369 Q1999.81 223.994 2002.73 221.772 Q2005.67 219.55 2011.48 219.55 L2017.45 219.55 L2017.45 219.133 Q2017.45 216.194 2015.51 214.596 Q2013.59 212.976 2010.09 212.976 Q2007.87 212.976 2005.76 213.508 Q2003.66 214.041 2001.71 215.106 L2001.71 211.17 Q2004.05 210.268 2006.25 209.828 Q2008.45 209.365 2010.53 209.365 Q2016.16 209.365 2018.93 212.282 Q2021.71 215.198 2021.71 221.124 Z" fill="#000000" fill-rule="nonzero" fill-opacity="1"></path><path clip-path="url(#clip250)" d="M2030.48 209.99 L2034.74 209.99 L2034.74 235.916 L2030.48 235.916 L2030.48 209.99 M2030.48 199.897 L2034.74 199.897 L2034.74 205.291 L2030.48 205.291 L2030.48 199.897 Z" fill="#000000" fill-rule="nonzero" fill-opacity="1"></path><path clip-path="url(#clip250)" d="M2065.21 220.268 L2065.21 235.916 L2060.95 235.916 L2060.95 220.407 Q2060.95 216.726 2059.51 214.897 Q2058.08 213.069 2055.21 213.069 Q2051.76 213.069 2049.77 215.268 Q2047.78 217.467 2047.78 221.263 L2047.78 235.916 L2043.49 235.916 L2043.49 209.99 L2047.78 209.99 L2047.78 214.018 Q2049.3 211.68 2051.36 210.522 Q2053.45 209.365 2056.16 209.365 Q2060.62 209.365 2062.92 212.143 Q2065.21 214.897 2065.21 220.268 Z" fill="#000000" fill-rule="nonzero" fill-opacity="1"></path><path clip-path="url(#clip250)" d="M2073.7 209.99 L2077.96 209.99 L2077.96 235.916 L2073.7 235.916 L2073.7 209.99 M2073.7 199.897 L2077.96 199.897 L2077.96 205.291 L2073.7 205.291 L2073.7 199.897 Z" fill="#000000" fill-rule="nonzero" fill-opacity="1"></path><path clip-path="url(#clip250)" d="M2108.42 220.268 L2108.42 235.916 L2104.16 235.916 L2104.16 220.407 Q2104.16 216.726 2102.73 214.897 Q2101.29 213.069 2098.42 213.069 Q2094.98 213.069 2092.98 215.268 Q2090.99 217.467 2090.99 221.263 L2090.99 235.916 L2086.71 235.916 L2086.71 209.99 L2090.99 209.99 L2090.99 214.018 Q2092.52 211.68 2094.58 210.522 Q2096.66 209.365 2099.37 209.365 Q2103.84 209.365 2106.13 212.143 Q2108.42 214.897 2108.42 220.268 Z" fill="#000000" fill-rule="nonzero" fill-opacity="1"></path><path clip-path="url(#clip250)" d="M2133.98 222.652 Q2133.98 218.022 2132.06 215.476 Q2130.16 212.93 2126.71 212.93 Q2123.29 212.93 2121.36 215.476 Q2119.47 218.022 2119.47 222.652 Q2119.47 227.258 2121.36 229.805 Q2123.29 232.351 2126.71 232.351 Q2130.16 232.351 2132.06 229.805 Q2133.98 227.258 2133.98 222.652 M2138.24 232.698 Q2138.24 239.318 2135.3 242.536 Q2132.36 245.777 2126.29 245.777 Q2124.05 245.777 2122.06 245.43 Q2120.07 245.105 2118.19 244.411 L2118.19 240.268 Q2120.07 241.286 2121.9 241.772 Q2123.72 242.258 2125.62 242.258 Q2129.81 242.258 2131.9 240.059 Q2133.98 237.883 2133.98 233.462 L2133.98 231.356 Q2132.66 233.647 2130.6 234.781 Q2128.54 235.916 2125.67 235.916 Q2120.9 235.916 2117.98 232.281 Q2115.07 228.647 2115.07 222.652 Q2115.07 216.633 2117.98 212.999 Q2120.9 209.365 2125.67 209.365 Q2128.54 209.365 2130.6 210.499 Q2132.66 211.633 2133.98 213.925 L2133.98 209.99 L2138.24 209.99 L2138.24 232.698 Z" fill="#000000" fill-rule="nonzero" fill-opacity="1"></path><path clip-path="url(#clip250)" d="M2162.27 201.356 L2166.94 201.356 L2166.94 231.981 L2183.77 231.981 L2183.77 235.916 L2162.27 235.916 L2162.27 201.356 Z" fill="#000000" fill-rule="nonzero" fill-opacity="1"></path><path clip-path="url(#clip250)" d="M2197.71 212.976 Q2194.28 212.976 2192.29 215.661 Q2190.3 218.323 2190.3 222.976 Q2190.3 227.629 2192.27 230.314 Q2194.26 232.976 2197.71 232.976 Q2201.11 232.976 2203.1 230.291 Q2205.09 227.606 2205.09 222.976 Q2205.09 218.37 2203.1 215.684 Q2201.11 212.976 2197.71 212.976 M2197.71 209.365 Q2203.26 209.365 2206.43 212.976 Q2209.6 216.587 2209.6 222.976 Q2209.6 229.342 2206.43 232.976 Q2203.26 236.587 2197.71 236.587 Q2192.13 236.587 2188.96 232.976 Q2185.81 229.342 2185.81 222.976 Q2185.81 216.587 2188.96 212.976 Q2192.13 209.365 2197.71 209.365 Z" fill="#000000" fill-rule="nonzero" fill-opacity="1"></path><path clip-path="url(#clip250)" d="M2233.19 210.754 L2233.19 214.782 Q2231.39 213.856 2229.44 213.393 Q2227.5 212.93 2225.41 212.93 Q2222.24 212.93 2220.65 213.902 Q2219.07 214.874 2219.07 216.819 Q2219.07 218.3 2220.21 219.157 Q2221.34 219.99 2224.77 220.754 L2226.22 221.078 Q2230.76 222.05 2232.66 223.832 Q2234.58 225.592 2234.58 228.763 Q2234.58 232.374 2231.71 234.481 Q2228.86 236.587 2223.86 236.587 Q2221.78 236.587 2219.51 236.17 Q2217.27 235.777 2214.77 234.967 L2214.77 230.569 Q2217.13 231.795 2219.42 232.42 Q2221.71 233.022 2223.96 233.022 Q2226.97 233.022 2228.59 232.004 Q2230.21 230.962 2230.21 229.087 Q2230.21 227.351 2229.03 226.425 Q2227.87 225.499 2223.91 224.643 L2222.43 224.295 Q2218.47 223.462 2216.71 221.749 Q2214.95 220.013 2214.95 217.004 Q2214.95 213.346 2217.54 211.356 Q2220.14 209.365 2224.9 209.365 Q2227.27 209.365 2229.35 209.712 Q2231.43 210.059 2233.19 210.754 Z" fill="#000000" fill-rule="nonzero" fill-opacity="1"></path><path clip-path="url(#clip250)" d="M2257.89 210.754 L2257.89 214.782 Q2256.09 213.856 2254.14 213.393 Q2252.2 212.93 2250.11 212.93 Q2246.94 212.93 2245.34 213.902 Q2243.77 214.874 2243.77 216.819 Q2243.77 218.3 2244.9 219.157 Q2246.04 219.99 2249.46 220.754 L2250.92 221.078 Q2255.46 222.05 2257.36 223.832 Q2259.28 225.592 2259.28 228.763 Q2259.28 232.374 2256.41 234.481 Q2253.56 236.587 2248.56 236.587 Q2246.48 236.587 2244.21 236.17 Q2241.97 235.777 2239.47 234.967 L2239.47 230.569 Q2241.83 231.795 2244.12 232.42 Q2246.41 233.022 2248.65 233.022 Q2251.66 233.022 2253.28 232.004 Q2254.9 230.962 2254.9 229.087 Q2254.9 227.351 2253.72 226.425 Q2252.57 225.499 2248.61 224.643 L2247.13 224.295 Q2243.17 223.462 2241.41 221.749 Q2239.65 220.013 2239.65 217.004 Q2239.65 213.346 2242.24 211.356 Q2244.84 209.365 2249.6 209.365 Q2251.96 209.365 2254.05 209.712 Q2256.13 210.059 2257.89 210.754 Z" fill="#000000" fill-rule="nonzero" fill-opacity="1"></path></svg>