<svg xmlns="http://www.w3.org/2000/svg" xmlns:xlink="http://www.w3.org/1999/xlink" width="600" height="400" viewBox="0 0 2400 1600">
<defs>
  <clipPath id="clip440">
    <rect x="0" y="0" width="2400" height="1600"></rect>
  </clipPath>
</defs>
<path clip-path="url(#clip440)" d="M0 1600 L2400 1600 L2400 0 L0 0  Z" fill="#ffffff" fill-rule="evenodd" fill-opacity="1"></path>
<defs>
  <clipPath id="clip441">
    <rect x="480" y="0" width="1681" height="1600"></rect>
  </clipPath>
</defs>
<path clip-path="url(#clip440)" d="M232.389 1423.18 L2352.76 1423.18 L2352.76 123.472 L232.389 123.472  Z" fill="#ffffff" fill-rule="evenodd" fill-opacity="1"></path>
<defs>
  <clipPath id="clip442">
    <rect x="232" y="123" width="2121" height="1301"></rect>
  </clipPath>
</defs>
<polyline clip-path="url(#clip442)" style="stroke:#000000; stroke-linecap:round; stroke-linejoin:round; stroke-width:2; stroke-opacity:0.1; fill:none" points="587.715,1423.18 587.715,123.472 "></polyline>
<polyline clip-path="url(#clip442)" style="stroke:#000000; stroke-linecap:round; stroke-linejoin:round; stroke-width:2; stroke-opacity:0.1; fill:none" points="1997.43,1423.18 1997.43,123.472 "></polyline>
<polyline clip-path="url(#clip440)" style="stroke:#000000; stroke-linecap:round; stroke-linejoin:round; stroke-width:4; stroke-opacity:1; fill:none" points="232.389,1423.18 2352.76,1423.18 "></polyline>
<polyline clip-path="url(#clip440)" style="stroke:#000000; stroke-linecap:round; stroke-linejoin:round; stroke-width:4; stroke-opacity:1; fill:none" points="587.715,1423.18 587.715,1404.28 "></polyline>
<polyline clip-path="url(#clip440)" style="stroke:#000000; stroke-linecap:round; stroke-linejoin:round; stroke-width:4; stroke-opacity:1; fill:none" points="1997.43,1423.18 1997.43,1404.28 "></polyline>
<path clip-path="url(#clip440)" d="M270.53 1469.08 L270.53 1481.74 L278.03 1481.74 Q281.803 1481.74 283.608 1480.19 Q285.437 1478.61 285.437 1475.39 Q285.437 1472.15 283.608 1470.63 Q281.803 1469.08 278.03 1469.08 L270.53 1469.08 M270.53 1454.86 L270.53 1465.28 L277.451 1465.28 Q280.877 1465.28 282.543 1464.01 Q284.233 1462.71 284.233 1460.07 Q284.233 1457.45 282.543 1456.16 Q280.877 1454.86 277.451 1454.86 L270.53 1454.86 M265.854 1451.02 L277.798 1451.02 Q283.145 1451.02 286.039 1453.24 Q288.932 1455.46 288.932 1459.56 Q288.932 1462.73 287.451 1464.61 Q285.969 1466.48 283.099 1466.95 Q286.548 1467.69 288.446 1470.05 Q290.367 1472.39 290.367 1475.9 Q290.367 1480.53 287.219 1483.06 Q284.071 1485.58 278.261 1485.58 L265.854 1485.58 L265.854 1451.02 Z" fill="#000000" fill-rule="nonzero" fill-opacity="1"></path><path clip-path="url(#clip440)" d="M298.191 1459.65 L302.451 1459.65 L302.451 1485.58 L298.191 1485.58 L298.191 1459.65 M298.191 1449.56 L302.451 1449.56 L302.451 1454.96 L298.191 1454.96 L298.191 1449.56 Z" fill="#000000" fill-rule="nonzero" fill-opacity="1"></path><path clip-path="url(#clip440)" d="M321.409 1462.64 Q317.983 1462.64 315.992 1465.33 Q314.002 1467.99 314.002 1472.64 Q314.002 1477.29 315.969 1479.98 Q317.96 1482.64 321.409 1482.64 Q324.812 1482.64 326.802 1479.95 Q328.793 1477.27 328.793 1472.64 Q328.793 1468.03 326.802 1465.35 Q324.812 1462.64 321.409 1462.64 M321.409 1459.03 Q326.964 1459.03 330.136 1462.64 Q333.307 1466.25 333.307 1472.64 Q333.307 1479.01 330.136 1482.64 Q326.964 1486.25 321.409 1486.25 Q315.83 1486.25 312.659 1482.64 Q309.511 1479.01 309.511 1472.64 Q309.511 1466.25 312.659 1462.64 Q315.83 1459.03 321.409 1459.03 Z" fill="#000000" fill-rule="nonzero" fill-opacity="1"></path><path clip-path="url(#clip440)" d="M360.552 1464.63 Q362.149 1461.76 364.372 1460.39 Q366.594 1459.03 369.603 1459.03 Q373.654 1459.03 375.853 1461.88 Q378.052 1464.7 378.052 1469.93 L378.052 1485.58 L373.77 1485.58 L373.77 1470.07 Q373.77 1466.34 372.45 1464.54 Q371.131 1462.73 368.423 1462.73 Q365.112 1462.73 363.191 1464.93 Q361.27 1467.13 361.27 1470.93 L361.27 1485.58 L356.987 1485.58 L356.987 1470.07 Q356.987 1466.32 355.668 1464.54 Q354.349 1462.73 351.594 1462.73 Q348.33 1462.73 346.409 1464.95 Q344.488 1467.15 344.488 1470.93 L344.488 1485.58 L340.205 1485.58 L340.205 1459.65 L344.488 1459.65 L344.488 1463.68 Q345.946 1461.3 347.983 1460.16 Q350.02 1459.03 352.821 1459.03 Q355.645 1459.03 357.612 1460.46 Q359.603 1461.9 360.552 1464.63 Z" fill="#000000" fill-rule="nonzero" fill-opacity="1"></path><path clip-path="url(#clip440)" d="M386.547 1459.65 L390.807 1459.65 L390.807 1485.58 L386.547 1485.58 L386.547 1459.65 M386.547 1449.56 L390.807 1449.56 L390.807 1454.96 L386.547 1454.96 L386.547 1449.56 Z" fill="#000000" fill-rule="nonzero" fill-opacity="1"></path><path clip-path="url(#clip440)" d="M419.904 1464.63 Q421.501 1461.76 423.723 1460.39 Q425.945 1459.03 428.955 1459.03 Q433.006 1459.03 435.205 1461.88 Q437.404 1464.7 437.404 1469.93 L437.404 1485.58 L433.121 1485.58 L433.121 1470.07 Q433.121 1466.34 431.802 1464.54 Q430.482 1462.73 427.774 1462.73 Q424.464 1462.73 422.543 1464.93 Q420.621 1467.13 420.621 1470.93 L420.621 1485.58 L416.339 1485.58 L416.339 1470.07 Q416.339 1466.32 415.02 1464.54 Q413.7 1462.73 410.946 1462.73 Q407.682 1462.73 405.76 1464.95 Q403.839 1467.15 403.839 1470.93 L403.839 1485.58 L399.557 1485.58 L399.557 1459.65 L403.839 1459.65 L403.839 1463.68 Q405.297 1461.3 407.334 1460.16 Q409.371 1459.03 412.172 1459.03 Q414.996 1459.03 416.964 1460.46 Q418.955 1461.9 419.904 1464.63 Z" fill="#000000" fill-rule="nonzero" fill-opacity="1"></path><path clip-path="url(#clip440)" d="M468.075 1471.55 L468.075 1473.64 L448.492 1473.64 Q448.769 1478.03 451.13 1480.35 Q453.515 1482.64 457.751 1482.64 Q460.205 1482.64 462.496 1482.04 Q464.811 1481.44 467.079 1480.23 L467.079 1484.26 Q464.788 1485.23 462.38 1485.74 Q459.973 1486.25 457.496 1486.25 Q451.293 1486.25 447.658 1482.64 Q444.047 1479.03 444.047 1472.87 Q444.047 1466.51 447.473 1462.78 Q450.922 1459.03 456.755 1459.03 Q461.987 1459.03 465.019 1462.41 Q468.075 1465.77 468.075 1471.55 M463.816 1470.3 Q463.769 1466.81 461.848 1464.72 Q459.95 1462.64 456.802 1462.64 Q453.237 1462.64 451.084 1464.65 Q448.955 1466.67 448.63 1470.33 L463.816 1470.3 Z" fill="#000000" fill-rule="nonzero" fill-opacity="1"></path><path clip-path="url(#clip440)" d="M479.278 1452.29 L479.278 1459.65 L488.052 1459.65 L488.052 1462.96 L479.278 1462.96 L479.278 1477.04 Q479.278 1480.21 480.135 1481.11 Q481.015 1482.02 483.677 1482.02 L488.052 1482.02 L488.052 1485.58 L483.677 1485.58 Q478.746 1485.58 476.871 1483.75 Q474.996 1481.9 474.996 1477.04 L474.996 1462.96 L471.871 1462.96 L471.871 1459.65 L474.996 1459.65 L474.996 1452.29 L479.278 1452.29 Z" fill="#000000" fill-rule="nonzero" fill-opacity="1"></path><path clip-path="url(#clip440)" d="M493.653 1459.65 L497.913 1459.65 L497.913 1485.58 L493.653 1485.58 L493.653 1459.65 M493.653 1449.56 L497.913 1449.56 L497.913 1454.96 L493.653 1454.96 L493.653 1449.56 Z" fill="#000000" fill-rule="nonzero" fill-opacity="1"></path><path clip-path="url(#clip440)" d="M525.482 1460.65 L525.482 1464.63 Q523.676 1463.64 521.848 1463.15 Q520.042 1462.64 518.19 1462.64 Q514.047 1462.64 511.755 1465.28 Q509.464 1467.89 509.464 1472.64 Q509.464 1477.39 511.755 1480.02 Q514.047 1482.64 518.19 1482.64 Q520.042 1482.64 521.848 1482.15 Q523.676 1481.64 525.482 1480.65 L525.482 1484.58 Q523.7 1485.42 521.778 1485.83 Q519.88 1486.25 517.727 1486.25 Q511.871 1486.25 508.422 1482.57 Q504.973 1478.89 504.973 1472.64 Q504.973 1466.3 508.445 1462.66 Q511.94 1459.03 518.005 1459.03 Q519.973 1459.03 521.848 1459.45 Q523.723 1459.84 525.482 1460.65 Z" fill="#000000" fill-rule="nonzero" fill-opacity="1"></path><path clip-path="url(#clip440)" d="M568.861 1452.15 L568.861 1456.71 Q566.199 1455.44 563.838 1454.82 Q561.477 1454.19 559.278 1454.19 Q555.459 1454.19 553.375 1455.67 Q551.315 1457.15 551.315 1459.89 Q551.315 1462.18 552.681 1463.36 Q554.07 1464.52 557.912 1465.23 L560.736 1465.81 Q565.968 1466.81 568.445 1469.33 Q570.945 1471.83 570.945 1476.04 Q570.945 1481.07 567.565 1483.66 Q564.209 1486.25 557.704 1486.25 Q555.25 1486.25 552.473 1485.7 Q549.718 1485.14 546.755 1484.05 L546.755 1479.24 Q549.602 1480.83 552.334 1481.64 Q555.065 1482.45 557.704 1482.45 Q561.709 1482.45 563.885 1480.88 Q566.06 1479.31 566.06 1476.39 Q566.06 1473.84 564.486 1472.41 Q562.935 1470.97 559.371 1470.26 L556.523 1469.7 Q551.292 1468.66 548.954 1466.44 Q546.616 1464.21 546.616 1460.26 Q546.616 1455.67 549.834 1453.03 Q553.074 1450.39 558.746 1450.39 Q561.176 1450.39 563.699 1450.83 Q566.222 1451.27 568.861 1452.15 Z" fill="#000000" fill-rule="nonzero" fill-opacity="1"></path><path clip-path="url(#clip440)" d="M575.574 1459.65 L579.833 1459.65 L585.158 1479.89 L590.458 1459.65 L595.482 1459.65 L600.806 1479.89 L606.107 1459.65 L610.366 1459.65 L603.583 1485.58 L598.56 1485.58 L592.982 1464.33 L587.38 1485.58 L582.357 1485.58 L575.574 1459.65 Z" fill="#000000" fill-rule="nonzero" fill-opacity="1"></path><path clip-path="url(#clip440)" d="M616.824 1459.65 L621.083 1459.65 L621.083 1485.58 L616.824 1485.58 L616.824 1459.65 M616.824 1449.56 L621.083 1449.56 L621.083 1454.96 L616.824 1454.96 L616.824 1449.56 Z" fill="#000000" fill-rule="nonzero" fill-opacity="1"></path><path clip-path="url(#clip440)" d="M650.18 1464.63 Q651.778 1461.76 654 1460.39 Q656.222 1459.03 659.231 1459.03 Q663.282 1459.03 665.481 1461.88 Q667.68 1464.7 667.68 1469.93 L667.68 1485.58 L663.398 1485.58 L663.398 1470.07 Q663.398 1466.34 662.078 1464.54 Q660.759 1462.73 658.051 1462.73 Q654.741 1462.73 652.819 1464.93 Q650.898 1467.13 650.898 1470.93 L650.898 1485.58 L646.616 1485.58 L646.616 1470.07 Q646.616 1466.32 645.296 1464.54 Q643.977 1462.73 641.222 1462.73 Q637.958 1462.73 636.037 1464.95 Q634.116 1467.15 634.116 1470.93 L634.116 1485.58 L629.833 1485.58 L629.833 1459.65 L634.116 1459.65 L634.116 1463.68 Q635.574 1461.3 637.611 1460.16 Q639.648 1459.03 642.449 1459.03 Q645.273 1459.03 647.241 1460.46 Q649.231 1461.9 650.18 1464.63 Z" fill="#000000" fill-rule="nonzero" fill-opacity="1"></path><path clip-path="url(#clip440)" d="M696.361 1464.63 Q697.958 1461.76 700.18 1460.39 Q702.402 1459.03 705.412 1459.03 Q709.462 1459.03 711.661 1461.88 Q713.861 1464.7 713.861 1469.93 L713.861 1485.58 L709.578 1485.58 L709.578 1470.07 Q709.578 1466.34 708.259 1464.54 Q706.939 1462.73 704.231 1462.73 Q700.921 1462.73 699 1464.93 Q697.078 1467.13 697.078 1470.93 L697.078 1485.58 L692.796 1485.58 L692.796 1470.07 Q692.796 1466.32 691.476 1464.54 Q690.157 1462.73 687.402 1462.73 Q684.138 1462.73 682.217 1464.95 Q680.296 1467.15 680.296 1470.93 L680.296 1485.58 L676.014 1485.58 L676.014 1459.65 L680.296 1459.65 L680.296 1463.68 Q681.754 1461.3 683.791 1460.16 Q685.828 1459.03 688.629 1459.03 Q691.453 1459.03 693.421 1460.46 Q695.412 1461.9 696.361 1464.63 Z" fill="#000000" fill-rule="nonzero" fill-opacity="1"></path><path clip-path="url(#clip440)" d="M722.356 1459.65 L726.615 1459.65 L726.615 1485.58 L722.356 1485.58 L722.356 1459.65 M722.356 1449.56 L726.615 1449.56 L726.615 1454.96 L722.356 1454.96 L722.356 1449.56 Z" fill="#000000" fill-rule="nonzero" fill-opacity="1"></path><path clip-path="url(#clip440)" d="M757.078 1469.93 L757.078 1485.58 L752.819 1485.58 L752.819 1470.07 Q752.819 1466.39 751.384 1464.56 Q749.948 1462.73 747.078 1462.73 Q743.629 1462.73 741.638 1464.93 Q739.647 1467.13 739.647 1470.93 L739.647 1485.58 L735.365 1485.58 L735.365 1459.65 L739.647 1459.65 L739.647 1463.68 Q741.175 1461.34 743.235 1460.19 Q745.319 1459.03 748.027 1459.03 Q752.495 1459.03 754.786 1461.81 Q757.078 1464.56 757.078 1469.93 Z" fill="#000000" fill-rule="nonzero" fill-opacity="1"></path><path clip-path="url(#clip440)" d="M782.633 1472.32 Q782.633 1467.69 780.712 1465.14 Q778.814 1462.59 775.365 1462.59 Q771.939 1462.59 770.018 1465.14 Q768.12 1467.69 768.12 1472.32 Q768.12 1476.92 770.018 1479.47 Q771.939 1482.02 775.365 1482.02 Q778.814 1482.02 780.712 1479.47 Q782.633 1476.92 782.633 1472.32 M786.893 1482.36 Q786.893 1488.98 783.953 1492.2 Q781.013 1495.44 774.948 1495.44 Q772.703 1495.44 770.712 1495.09 Q768.721 1494.77 766.846 1494.08 L766.846 1489.93 Q768.721 1490.95 770.55 1491.44 Q772.379 1491.92 774.277 1491.92 Q778.467 1491.92 780.55 1489.72 Q782.633 1487.55 782.633 1483.13 L782.633 1481.02 Q781.314 1483.31 779.254 1484.45 Q777.194 1485.58 774.323 1485.58 Q769.555 1485.58 766.638 1481.95 Q763.721 1478.31 763.721 1472.32 Q763.721 1466.3 766.638 1462.66 Q769.555 1459.03 774.323 1459.03 Q777.194 1459.03 779.254 1460.16 Q781.314 1461.3 782.633 1463.59 L782.633 1459.65 L786.893 1459.65 L786.893 1482.36 Z" fill="#000000" fill-rule="nonzero" fill-opacity="1"></path><path clip-path="url(#clip440)" d="M810.92 1451.02 L830.781 1451.02 L830.781 1454.96 L815.596 1454.96 L815.596 1465.14 L829.3 1465.14 L829.3 1469.08 L815.596 1469.08 L815.596 1485.58 L810.92 1485.58 L810.92 1451.02 Z" fill="#000000" fill-rule="nonzero" fill-opacity="1"></path><path clip-path="url(#clip440)" d="M846.36 1462.64 Q842.934 1462.64 840.943 1465.33 Q838.952 1467.99 838.952 1472.64 Q838.952 1477.29 840.92 1479.98 Q842.911 1482.64 846.36 1482.64 Q849.763 1482.64 851.753 1479.95 Q853.744 1477.27 853.744 1472.64 Q853.744 1468.03 851.753 1465.35 Q849.763 1462.64 846.36 1462.64 M846.36 1459.03 Q851.915 1459.03 855.087 1462.64 Q858.258 1466.25 858.258 1472.64 Q858.258 1479.01 855.087 1482.64 Q851.915 1486.25 846.36 1486.25 Q840.781 1486.25 837.61 1482.64 Q834.462 1479.01 834.462 1472.64 Q834.462 1466.25 837.61 1462.64 Q840.781 1459.03 846.36 1459.03 Z" fill="#000000" fill-rule="nonzero" fill-opacity="1"></path><path clip-path="url(#clip440)" d="M865.318 1459.65 L869.577 1459.65 L869.577 1485.58 L865.318 1485.58 L865.318 1459.65 M865.318 1449.56 L869.577 1449.56 L869.577 1454.96 L865.318 1454.96 L865.318 1449.56 Z" fill="#000000" fill-rule="nonzero" fill-opacity="1"></path><path clip-path="url(#clip440)" d="M878.489 1449.56 L882.749 1449.56 L882.749 1485.58 L878.489 1485.58 L878.489 1449.56 Z" fill="#000000" fill-rule="nonzero" fill-opacity="1"></path><path clip-path="url(#clip440)" d="M908.188 1460.42 L908.188 1464.45 Q906.383 1463.52 904.438 1463.06 Q902.494 1462.59 900.41 1462.59 Q897.239 1462.59 895.642 1463.57 Q894.068 1464.54 894.068 1466.48 Q894.068 1467.96 895.202 1468.82 Q896.336 1469.65 899.762 1470.42 L901.221 1470.74 Q905.758 1471.71 907.656 1473.5 Q909.577 1475.26 909.577 1478.43 Q909.577 1482.04 906.707 1484.14 Q903.86 1486.25 898.86 1486.25 Q896.776 1486.25 894.508 1485.83 Q892.262 1485.44 889.762 1484.63 L889.762 1480.23 Q892.123 1481.46 894.415 1482.08 Q896.707 1482.69 898.952 1482.69 Q901.961 1482.69 903.582 1481.67 Q905.202 1480.63 905.202 1478.75 Q905.202 1477.02 904.022 1476.09 Q902.864 1475.16 898.906 1474.31 L897.424 1473.96 Q893.466 1473.13 891.707 1471.41 Q889.948 1469.68 889.948 1466.67 Q889.948 1463.01 892.54 1461.02 Q895.133 1459.03 899.901 1459.03 Q902.262 1459.03 904.346 1459.38 Q906.429 1459.72 908.188 1460.42 Z" fill="#000000" fill-rule="nonzero" fill-opacity="1"></path><path clip-path="url(#clip440)" d="M1745.71 1451.02 L1774.94 1451.02 L1774.94 1454.96 L1762.67 1454.96 L1762.67 1485.58 L1757.98 1485.58 L1757.98 1454.96 L1745.71 1454.96 L1745.71 1451.02 Z" fill="#000000" fill-rule="nonzero" fill-opacity="1"></path><path clip-path="url(#clip440)" d="M1787.33 1463.64 Q1786.61 1463.22 1785.75 1463.03 Q1784.92 1462.83 1783.9 1462.83 Q1780.29 1462.83 1778.35 1465.19 Q1776.42 1467.52 1776.42 1471.92 L1776.42 1485.58 L1772.14 1485.58 L1772.14 1459.65 L1776.42 1459.65 L1776.42 1463.68 Q1777.77 1461.32 1779.92 1460.19 Q1782.07 1459.03 1785.15 1459.03 Q1785.59 1459.03 1786.12 1459.1 Q1786.66 1459.14 1787.3 1459.26 L1787.33 1463.64 Z" fill="#000000" fill-rule="nonzero" fill-opacity="1"></path><path clip-path="url(#clip440)" d="M1803.58 1472.55 Q1798.41 1472.55 1796.42 1473.73 Q1794.43 1474.91 1794.43 1477.76 Q1794.43 1480.02 1795.91 1481.37 Q1797.42 1482.69 1799.99 1482.69 Q1803.53 1482.69 1805.66 1480.19 Q1807.81 1477.66 1807.81 1473.5 L1807.81 1472.55 L1803.58 1472.55 M1812.07 1470.79 L1812.07 1485.58 L1807.81 1485.58 L1807.81 1481.64 Q1806.35 1484.01 1804.18 1485.14 Q1802 1486.25 1798.85 1486.25 Q1794.87 1486.25 1792.51 1484.03 Q1790.17 1481.78 1790.17 1478.03 Q1790.17 1473.66 1793.09 1471.44 Q1796.03 1469.21 1801.84 1469.21 L1807.81 1469.21 L1807.81 1468.8 Q1807.81 1465.86 1805.87 1464.26 Q1803.95 1462.64 1800.45 1462.64 Q1798.23 1462.64 1796.12 1463.17 Q1794.02 1463.7 1792.07 1464.77 L1792.07 1460.83 Q1794.41 1459.93 1796.61 1459.49 Q1798.81 1459.03 1800.89 1459.03 Q1806.52 1459.03 1809.29 1461.95 Q1812.07 1464.86 1812.07 1470.79 Z" fill="#000000" fill-rule="nonzero" fill-opacity="1"></path><path clip-path="url(#clip440)" d="M1837.91 1463.59 L1837.91 1449.56 L1842.16 1449.56 L1842.16 1485.58 L1837.91 1485.58 L1837.91 1481.69 Q1836.56 1484.01 1834.5 1485.14 Q1832.47 1486.25 1829.6 1486.25 Q1824.9 1486.25 1821.93 1482.5 Q1818.99 1478.75 1818.99 1472.64 Q1818.99 1466.53 1821.93 1462.78 Q1824.9 1459.03 1829.6 1459.03 Q1832.47 1459.03 1834.5 1460.16 Q1836.56 1461.27 1837.91 1463.59 M1823.39 1472.64 Q1823.39 1477.34 1825.31 1480.02 Q1827.26 1482.69 1830.64 1482.69 Q1834.02 1482.69 1835.96 1480.02 Q1837.91 1477.34 1837.91 1472.64 Q1837.91 1467.94 1835.96 1465.28 Q1834.02 1462.59 1830.64 1462.59 Q1827.26 1462.59 1825.31 1465.28 Q1823.39 1467.94 1823.39 1472.64 Z" fill="#000000" fill-rule="nonzero" fill-opacity="1"></path><path clip-path="url(#clip440)" d="M1850.94 1459.65 L1855.2 1459.65 L1855.2 1485.58 L1850.94 1485.58 L1850.94 1459.65 M1850.94 1449.56 L1855.2 1449.56 L1855.2 1454.96 L1850.94 1454.96 L1850.94 1449.56 Z" fill="#000000" fill-rule="nonzero" fill-opacity="1"></path><path clip-path="url(#clip440)" d="M1868.32 1452.29 L1868.32 1459.65 L1877.09 1459.65 L1877.09 1462.96 L1868.32 1462.96 L1868.32 1477.04 Q1868.32 1480.21 1869.18 1481.11 Q1870.06 1482.02 1872.72 1482.02 L1877.09 1482.02 L1877.09 1485.58 L1872.72 1485.58 Q1867.79 1485.58 1865.91 1483.75 Q1864.04 1481.9 1864.04 1477.04 L1864.04 1462.96 L1860.91 1462.96 L1860.91 1459.65 L1864.04 1459.65 L1864.04 1452.29 L1868.32 1452.29 Z" fill="#000000" fill-rule="nonzero" fill-opacity="1"></path><path clip-path="url(#clip440)" d="M1882.7 1459.65 L1886.96 1459.65 L1886.96 1485.58 L1882.7 1485.58 L1882.7 1459.65 M1882.7 1449.56 L1886.96 1449.56 L1886.96 1454.96 L1882.7 1454.96 L1882.7 1449.56 Z" fill="#000000" fill-rule="nonzero" fill-opacity="1"></path><path clip-path="url(#clip440)" d="M1905.91 1462.64 Q1902.49 1462.64 1900.5 1465.33 Q1898.51 1467.99 1898.51 1472.64 Q1898.51 1477.29 1900.47 1479.98 Q1902.47 1482.64 1905.91 1482.64 Q1909.32 1482.64 1911.31 1479.95 Q1913.3 1477.27 1913.3 1472.64 Q1913.3 1468.03 1911.31 1465.35 Q1909.32 1462.64 1905.91 1462.64 M1905.91 1459.03 Q1911.47 1459.03 1914.64 1462.64 Q1917.81 1466.25 1917.81 1472.64 Q1917.81 1479.01 1914.64 1482.64 Q1911.47 1486.25 1905.91 1486.25 Q1900.34 1486.25 1897.16 1482.64 Q1894.02 1479.01 1894.02 1472.64 Q1894.02 1466.25 1897.16 1462.64 Q1900.34 1459.03 1905.91 1459.03 Z" fill="#000000" fill-rule="nonzero" fill-opacity="1"></path><path clip-path="url(#clip440)" d="M1946.42 1469.93 L1946.42 1485.58 L1942.16 1485.58 L1942.16 1470.07 Q1942.16 1466.39 1940.73 1464.56 Q1939.29 1462.73 1936.42 1462.73 Q1932.97 1462.73 1930.98 1464.93 Q1928.99 1467.13 1928.99 1470.93 L1928.99 1485.58 L1924.71 1485.58 L1924.71 1459.65 L1928.99 1459.65 L1928.99 1463.68 Q1930.52 1461.34 1932.58 1460.19 Q1934.66 1459.03 1937.37 1459.03 Q1941.84 1459.03 1944.13 1461.81 Q1946.42 1464.56 1946.42 1469.93 Z" fill="#000000" fill-rule="nonzero" fill-opacity="1"></path><path clip-path="url(#clip440)" d="M1966.7 1472.55 Q1961.54 1472.55 1959.55 1473.73 Q1957.56 1474.91 1957.56 1477.76 Q1957.56 1480.02 1959.04 1481.37 Q1960.54 1482.69 1963.11 1482.69 Q1966.65 1482.69 1968.78 1480.19 Q1970.94 1477.66 1970.94 1473.5 L1970.94 1472.55 L1966.7 1472.55 M1975.2 1470.79 L1975.2 1485.58 L1970.94 1485.58 L1970.94 1481.64 Q1969.48 1484.01 1967.3 1485.14 Q1965.13 1486.25 1961.98 1486.25 Q1958 1486.25 1955.64 1484.03 Q1953.3 1481.78 1953.3 1478.03 Q1953.3 1473.66 1956.21 1471.44 Q1959.15 1469.21 1964.96 1469.21 L1970.94 1469.21 L1970.94 1468.8 Q1970.94 1465.86 1968.99 1464.26 Q1967.07 1462.64 1963.58 1462.64 Q1961.35 1462.64 1959.25 1463.17 Q1957.14 1463.7 1955.2 1464.77 L1955.2 1460.83 Q1957.53 1459.93 1959.73 1459.49 Q1961.93 1459.03 1964.02 1459.03 Q1969.64 1459.03 1972.42 1461.95 Q1975.2 1464.86 1975.2 1470.79 Z" fill="#000000" fill-rule="nonzero" fill-opacity="1"></path><path clip-path="url(#clip440)" d="M1983.97 1449.56 L1988.23 1449.56 L1988.23 1485.58 L1983.97 1485.58 L1983.97 1449.56 Z" fill="#000000" fill-rule="nonzero" fill-opacity="1"></path><path clip-path="url(#clip440)" d="M2017.07 1454.86 L2017.07 1467.85 L2022.95 1467.85 Q2026.21 1467.85 2028 1466.16 Q2029.78 1464.47 2029.78 1461.34 Q2029.78 1458.24 2028 1456.55 Q2026.21 1454.86 2022.95 1454.86 L2017.07 1454.86 M2012.4 1451.02 L2022.95 1451.02 Q2028.76 1451.02 2031.72 1453.66 Q2034.71 1456.27 2034.71 1461.34 Q2034.71 1466.46 2031.72 1469.08 Q2028.76 1471.69 2022.95 1471.69 L2017.07 1471.69 L2017.07 1485.58 L2012.4 1485.58 L2012.4 1451.02 Z" fill="#000000" fill-rule="nonzero" fill-opacity="1"></path><path clip-path="url(#clip440)" d="M2054.99 1463.64 Q2054.27 1463.22 2053.41 1463.03 Q2052.58 1462.83 2051.56 1462.83 Q2047.95 1462.83 2046.01 1465.19 Q2044.08 1467.52 2044.08 1471.92 L2044.08 1485.58 L2039.8 1485.58 L2039.8 1459.65 L2044.08 1459.65 L2044.08 1463.68 Q2045.43 1461.32 2047.58 1460.19 Q2049.73 1459.03 2052.81 1459.03 Q2053.25 1459.03 2053.78 1459.1 Q2054.32 1459.14 2054.96 1459.26 L2054.99 1463.64 Z" fill="#000000" fill-rule="nonzero" fill-opacity="1"></path><path clip-path="url(#clip440)" d="M2068.46 1462.64 Q2065.03 1462.64 2063.04 1465.33 Q2061.05 1467.99 2061.05 1472.64 Q2061.05 1477.29 2063.02 1479.98 Q2065.01 1482.64 2068.46 1482.64 Q2071.86 1482.64 2073.85 1479.95 Q2075.84 1477.27 2075.84 1472.64 Q2075.84 1468.03 2073.85 1465.35 Q2071.86 1462.64 2068.46 1462.64 M2068.46 1459.03 Q2074.02 1459.03 2077.19 1462.64 Q2080.36 1466.25 2080.36 1472.64 Q2080.36 1479.01 2077.19 1482.64 Q2074.02 1486.25 2068.46 1486.25 Q2062.88 1486.25 2059.71 1482.64 Q2056.56 1479.01 2056.56 1472.64 Q2056.56 1466.25 2059.71 1462.64 Q2062.88 1459.03 2068.46 1459.03 Z" fill="#000000" fill-rule="nonzero" fill-opacity="1"></path><path clip-path="url(#clip440)" d="M2091.54 1481.69 L2091.54 1495.44 L2087.26 1495.44 L2087.26 1459.65 L2091.54 1459.65 L2091.54 1463.59 Q2092.88 1461.27 2094.92 1460.16 Q2096.98 1459.03 2099.83 1459.03 Q2104.55 1459.03 2107.49 1462.78 Q2110.45 1466.53 2110.45 1472.64 Q2110.45 1478.75 2107.49 1482.5 Q2104.55 1486.25 2099.83 1486.25 Q2096.98 1486.25 2094.92 1485.14 Q2092.88 1484.01 2091.54 1481.69 M2106.03 1472.64 Q2106.03 1467.94 2104.08 1465.28 Q2102.16 1462.59 2098.78 1462.59 Q2095.4 1462.59 2093.46 1465.28 Q2091.54 1467.94 2091.54 1472.64 Q2091.54 1477.34 2093.46 1480.02 Q2095.4 1482.69 2098.78 1482.69 Q2102.16 1482.69 2104.08 1480.02 Q2106.03 1477.34 2106.03 1472.64 Z" fill="#000000" fill-rule="nonzero" fill-opacity="1"></path><path clip-path="url(#clip440)" d="M2117.07 1475.35 L2117.07 1459.65 L2121.33 1459.65 L2121.33 1475.19 Q2121.33 1478.87 2122.76 1480.72 Q2124.2 1482.55 2127.07 1482.55 Q2130.52 1482.55 2132.51 1480.35 Q2134.52 1478.15 2134.52 1474.35 L2134.52 1459.65 L2138.78 1459.65 L2138.78 1485.58 L2134.52 1485.58 L2134.52 1481.6 Q2132.97 1483.96 2130.91 1485.12 Q2128.88 1486.25 2126.17 1486.25 Q2121.7 1486.25 2119.39 1483.47 Q2117.07 1480.7 2117.07 1475.35 M2127.79 1459.03 L2127.79 1459.03 Z" fill="#000000" fill-rule="nonzero" fill-opacity="1"></path><path clip-path="url(#clip440)" d="M2147.56 1449.56 L2151.82 1449.56 L2151.82 1485.58 L2147.56 1485.58 L2147.56 1449.56 Z" fill="#000000" fill-rule="nonzero" fill-opacity="1"></path><path clip-path="url(#clip440)" d="M2177.26 1460.42 L2177.26 1464.45 Q2175.45 1463.52 2173.51 1463.06 Q2171.56 1462.59 2169.48 1462.59 Q2166.31 1462.59 2164.71 1463.57 Q2163.13 1464.54 2163.13 1466.48 Q2163.13 1467.96 2164.27 1468.82 Q2165.4 1469.65 2168.83 1470.42 L2170.29 1470.74 Q2174.82 1471.71 2176.72 1473.5 Q2178.64 1475.26 2178.64 1478.43 Q2178.64 1482.04 2175.77 1484.14 Q2172.93 1486.25 2167.93 1486.25 Q2165.84 1486.25 2163.57 1485.83 Q2161.33 1485.44 2158.83 1484.63 L2158.83 1480.23 Q2161.19 1481.46 2163.48 1482.08 Q2165.77 1482.69 2168.02 1482.69 Q2171.03 1482.69 2172.65 1481.67 Q2174.27 1480.63 2174.27 1478.75 Q2174.27 1477.02 2173.09 1476.09 Q2171.93 1475.16 2167.97 1474.31 L2166.49 1473.96 Q2162.53 1473.13 2160.77 1471.41 Q2159.01 1469.68 2159.01 1466.67 Q2159.01 1463.01 2161.61 1461.02 Q2164.2 1459.03 2168.97 1459.03 Q2171.33 1459.03 2173.41 1459.38 Q2175.5 1459.72 2177.26 1460.42 Z" fill="#000000" fill-rule="nonzero" fill-opacity="1"></path><path clip-path="url(#clip440)" d="M2185.43 1459.65 L2189.69 1459.65 L2189.69 1485.58 L2185.43 1485.58 L2185.43 1459.65 M2185.43 1449.56 L2189.69 1449.56 L2189.69 1454.96 L2185.43 1454.96 L2185.43 1449.56 Z" fill="#000000" fill-rule="nonzero" fill-opacity="1"></path><path clip-path="url(#clip440)" d="M2208.64 1462.64 Q2205.22 1462.64 2203.23 1465.33 Q2201.24 1467.99 2201.24 1472.64 Q2201.24 1477.29 2203.2 1479.98 Q2205.19 1482.64 2208.64 1482.64 Q2212.05 1482.64 2214.04 1479.95 Q2216.03 1477.27 2216.03 1472.64 Q2216.03 1468.03 2214.04 1465.35 Q2212.05 1462.64 2208.64 1462.64 M2208.64 1459.03 Q2214.2 1459.03 2217.37 1462.64 Q2220.54 1466.25 2220.54 1472.64 Q2220.54 1479.01 2217.37 1482.64 Q2214.2 1486.25 2208.64 1486.25 Q2203.07 1486.25 2199.89 1482.64 Q2196.75 1479.01 2196.75 1472.64 Q2196.75 1466.25 2199.89 1462.64 Q2203.07 1459.03 2208.64 1459.03 Z" fill="#000000" fill-rule="nonzero" fill-opacity="1"></path><path clip-path="url(#clip440)" d="M2249.15 1469.93 L2249.15 1485.58 L2244.89 1485.58 L2244.89 1470.07 Q2244.89 1466.39 2243.46 1464.56 Q2242.02 1462.73 2239.15 1462.73 Q2235.7 1462.73 2233.71 1464.93 Q2231.72 1467.13 2231.72 1470.93 L2231.72 1485.58 L2227.44 1485.58 L2227.44 1459.65 L2231.72 1459.65 L2231.72 1463.68 Q2233.25 1461.34 2235.31 1460.19 Q2237.39 1459.03 2240.1 1459.03 Q2244.57 1459.03 2246.86 1461.81 Q2249.15 1464.56 2249.15 1469.93 Z" fill="#000000" fill-rule="nonzero" fill-opacity="1"></path><path clip-path="url(#clip440)" d="M1004.33 1525.81 L1004.33 1543.66 L1012.42 1543.66 Q1016.91 1543.66 1019.36 1541.34 Q1021.81 1539.02 1021.81 1534.72 Q1021.81 1530.45 1019.36 1528.13 Q1016.91 1525.81 1012.42 1525.81 L1004.33 1525.81 M997.904 1520.52 L1012.42 1520.52 Q1020.41 1520.52 1024.48 1524.15 Q1028.59 1527.75 1028.59 1534.72 Q1028.59 1541.75 1024.48 1545.35 Q1020.41 1548.95 1012.42 1548.95 L1004.33 1548.95 L1004.33 1568.04 L997.904 1568.04 L997.904 1520.52 Z" fill="#000000" fill-rule="nonzero" fill-opacity="1"></path><path clip-path="url(#clip440)" d="M1056.47 1537.87 Q1055.48 1537.3 1054.3 1537.04 Q1053.16 1536.76 1051.76 1536.76 Q1046.79 1536.76 1044.12 1540 Q1041.48 1543.22 1041.48 1549.27 L1041.48 1568.04 L1035.59 1568.04 L1035.59 1532.4 L1041.48 1532.4 L1041.48 1537.93 Q1043.32 1534.69 1046.28 1533.13 Q1049.24 1531.54 1053.48 1531.54 Q1054.08 1531.54 1054.81 1531.63 Q1055.55 1531.7 1056.44 1531.85 L1056.47 1537.87 Z" fill="#000000" fill-rule="nonzero" fill-opacity="1"></path><path clip-path="url(#clip440)" d="M1074.99 1536.5 Q1070.28 1536.5 1067.54 1540.19 Q1064.81 1543.85 1064.81 1550.25 Q1064.81 1556.65 1067.51 1560.34 Q1070.25 1564 1074.99 1564 Q1079.67 1564 1082.41 1560.31 Q1085.15 1556.62 1085.15 1550.25 Q1085.15 1543.92 1082.41 1540.23 Q1079.67 1536.5 1074.99 1536.5 M1074.99 1531.54 Q1082.63 1531.54 1086.99 1536.5 Q1091.35 1541.47 1091.35 1550.25 Q1091.35 1559 1086.99 1564 Q1082.63 1568.97 1074.99 1568.97 Q1067.32 1568.97 1062.96 1564 Q1058.63 1559 1058.63 1550.25 Q1058.63 1541.47 1062.96 1536.5 Q1067.32 1531.54 1074.99 1531.54 Z" fill="#000000" fill-rule="nonzero" fill-opacity="1"></path><path clip-path="url(#clip440)" d="M1106.73 1562.7 L1106.73 1581.6 L1100.84 1581.6 L1100.84 1532.4 L1106.73 1532.4 L1106.73 1537.81 Q1108.57 1534.62 1111.37 1533.1 Q1114.21 1531.54 1118.12 1531.54 Q1124.61 1531.54 1128.66 1536.69 Q1132.73 1541.85 1132.73 1550.25 Q1132.73 1558.65 1128.66 1563.81 Q1124.61 1568.97 1118.12 1568.97 Q1114.21 1568.97 1111.37 1567.44 Q1108.57 1565.88 1106.73 1562.7 M1126.65 1550.25 Q1126.65 1543.79 1123.98 1540.13 Q1121.34 1536.44 1116.69 1536.44 Q1112.04 1536.44 1109.37 1540.13 Q1106.73 1543.79 1106.73 1550.25 Q1106.73 1556.71 1109.37 1560.4 Q1112.04 1564.07 1116.69 1564.07 Q1121.34 1564.07 1123.98 1560.4 Q1126.65 1556.71 1126.65 1550.25 Z" fill="#000000" fill-rule="nonzero" fill-opacity="1"></path><path clip-path="url(#clip440)" d="M1141.83 1553.98 L1141.83 1532.4 L1147.69 1532.4 L1147.69 1553.75 Q1147.69 1558.81 1149.66 1561.36 Q1151.64 1563.87 1155.58 1563.87 Q1160.33 1563.87 1163.06 1560.85 Q1165.83 1557.83 1165.83 1552.61 L1165.83 1532.4 L1171.69 1532.4 L1171.69 1568.04 L1165.83 1568.04 L1165.83 1562.57 Q1163.7 1565.82 1160.87 1567.41 Q1158.07 1568.97 1154.34 1568.97 Q1148.2 1568.97 1145.02 1565.15 Q1141.83 1561.33 1141.83 1553.98 M1156.57 1531.54 L1156.57 1531.54 Z" fill="#000000" fill-rule="nonzero" fill-opacity="1"></path><path clip-path="url(#clip440)" d="M1183.75 1518.52 L1189.61 1518.52 L1189.61 1568.04 L1183.75 1568.04 L1183.75 1518.52 Z" fill="#000000" fill-rule="nonzero" fill-opacity="1"></path><path clip-path="url(#clip440)" d="M1224.59 1533.45 L1224.59 1538.98 Q1222.1 1537.71 1219.43 1537.07 Q1216.76 1536.44 1213.89 1536.44 Q1209.53 1536.44 1207.34 1537.77 Q1205.17 1539.11 1205.17 1541.79 Q1205.17 1543.82 1206.73 1545 Q1208.29 1546.15 1213 1547.2 L1215.01 1547.64 Q1221.24 1548.98 1223.85 1551.43 Q1226.5 1553.85 1226.5 1558.21 Q1226.5 1563.17 1222.55 1566.07 Q1218.63 1568.97 1211.76 1568.97 Q1208.9 1568.97 1205.78 1568.39 Q1202.69 1567.85 1199.25 1566.74 L1199.25 1560.69 Q1202.5 1562.38 1205.65 1563.24 Q1208.8 1564.07 1211.89 1564.07 Q1216.03 1564.07 1218.25 1562.66 Q1220.48 1561.23 1220.48 1558.65 Q1220.48 1556.27 1218.86 1554.99 Q1217.27 1553.72 1211.82 1552.54 L1209.79 1552.07 Q1204.34 1550.92 1201.92 1548.56 Q1199.51 1546.18 1199.51 1542.04 Q1199.51 1537.01 1203.07 1534.27 Q1206.64 1531.54 1213.19 1531.54 Q1216.44 1531.54 1219.3 1532.01 Q1222.17 1532.49 1224.59 1533.45 Z" fill="#000000" fill-rule="nonzero" fill-opacity="1"></path><path clip-path="url(#clip440)" d="M1235.82 1532.4 L1241.68 1532.4 L1241.68 1568.04 L1235.82 1568.04 L1235.82 1532.4 M1235.82 1518.52 L1241.68 1518.52 L1241.68 1525.93 L1235.82 1525.93 L1235.82 1518.52 Z" fill="#000000" fill-rule="nonzero" fill-opacity="1"></path><path clip-path="url(#clip440)" d="M1267.75 1536.5 Q1263.04 1536.5 1260.3 1540.19 Q1257.56 1543.85 1257.56 1550.25 Q1257.56 1556.65 1260.27 1560.34 Q1263 1564 1267.75 1564 Q1272.43 1564 1275.16 1560.31 Q1277.9 1556.62 1277.9 1550.25 Q1277.9 1543.92 1275.16 1540.23 Q1272.43 1536.5 1267.75 1536.5 M1267.75 1531.54 Q1275.39 1531.54 1279.75 1536.5 Q1284.11 1541.47 1284.11 1550.25 Q1284.11 1559 1279.75 1564 Q1275.39 1568.97 1267.75 1568.97 Q1260.08 1568.97 1255.72 1564 Q1251.39 1559 1251.39 1550.25 Q1251.39 1541.47 1255.72 1536.5 Q1260.08 1531.54 1267.75 1531.54 Z" fill="#000000" fill-rule="nonzero" fill-opacity="1"></path><path clip-path="url(#clip440)" d="M1323.45 1546.53 L1323.45 1568.04 L1317.59 1568.04 L1317.59 1546.72 Q1317.59 1541.66 1315.62 1539.14 Q1313.64 1536.63 1309.7 1536.63 Q1304.95 1536.63 1302.22 1539.65 Q1299.48 1542.68 1299.48 1547.9 L1299.48 1568.04 L1293.59 1568.04 L1293.59 1532.4 L1299.48 1532.4 L1299.48 1537.93 Q1301.58 1534.72 1304.41 1533.13 Q1307.28 1531.54 1311 1531.54 Q1317.14 1531.54 1320.3 1535.36 Q1323.45 1539.14 1323.45 1546.53 Z" fill="#000000" fill-rule="nonzero" fill-opacity="1"></path><path clip-path="url(#clip440)" d="M1384.59 1522.08 L1384.59 1528.35 Q1380.93 1526.6 1377.68 1525.74 Q1374.44 1524.88 1371.41 1524.88 Q1366.16 1524.88 1363.3 1526.92 Q1360.46 1528.96 1360.46 1532.71 Q1360.46 1535.87 1362.34 1537.49 Q1364.25 1539.08 1369.53 1540.07 L1373.42 1540.86 Q1380.61 1542.23 1384.02 1545.7 Q1387.45 1549.14 1387.45 1554.93 Q1387.45 1561.84 1382.81 1565.4 Q1378.19 1568.97 1369.25 1568.97 Q1365.87 1568.97 1362.05 1568.2 Q1358.27 1567.44 1354.19 1565.94 L1354.19 1559.32 Q1358.11 1561.52 1361.86 1562.63 Q1365.62 1563.75 1369.25 1563.75 Q1374.75 1563.75 1377.75 1561.58 Q1380.74 1559.42 1380.74 1555.41 Q1380.74 1551.91 1378.57 1549.93 Q1376.44 1547.96 1371.54 1546.97 L1367.62 1546.21 Q1360.43 1544.78 1357.22 1541.72 Q1354 1538.67 1354 1533.22 Q1354 1526.92 1358.43 1523.29 Q1362.88 1519.66 1370.68 1519.66 Q1374.02 1519.66 1377.49 1520.27 Q1380.96 1520.87 1384.59 1522.08 Z" fill="#000000" fill-rule="nonzero" fill-opacity="1"></path><path clip-path="url(#clip440)" d="M1412.06 1571.35 Q1409.57 1577.72 1407.22 1579.66 Q1404.86 1581.6 1400.92 1581.6 L1396.24 1581.6 L1396.24 1576.7 L1399.68 1576.7 Q1402.09 1576.7 1403.43 1575.56 Q1404.77 1574.41 1406.39 1570.14 L1407.44 1567.47 L1393.02 1532.4 L1399.23 1532.4 L1410.37 1560.28 L1421.51 1532.4 L1427.72 1532.4 L1412.06 1571.35 Z" fill="#000000" fill-rule="nonzero" fill-opacity="1"></path><path clip-path="url(#clip440)" d="M1458.53 1533.45 L1458.53 1538.98 Q1456.04 1537.71 1453.37 1537.07 Q1450.7 1536.44 1447.83 1536.44 Q1443.47 1536.44 1441.28 1537.77 Q1439.11 1539.11 1439.11 1541.79 Q1439.11 1543.82 1440.67 1545 Q1442.23 1546.15 1446.94 1547.2 L1448.95 1547.64 Q1455.18 1548.98 1457.79 1551.43 Q1460.44 1553.85 1460.44 1558.21 Q1460.44 1563.17 1456.49 1566.07 Q1452.57 1568.97 1445.7 1568.97 Q1442.84 1568.97 1439.72 1568.39 Q1436.63 1567.85 1433.19 1566.74 L1433.19 1560.69 Q1436.44 1562.38 1439.59 1563.24 Q1442.74 1564.07 1445.83 1564.07 Q1449.96 1564.07 1452.19 1562.66 Q1454.42 1561.23 1454.42 1558.65 Q1454.42 1556.27 1452.8 1554.99 Q1451.21 1553.72 1445.76 1552.54 L1443.73 1552.07 Q1438.28 1550.92 1435.86 1548.56 Q1433.45 1546.18 1433.45 1542.04 Q1433.45 1537.01 1437.01 1534.27 Q1440.58 1531.54 1447.13 1531.54 Q1450.38 1531.54 1453.24 1532.01 Q1456.11 1532.49 1458.53 1533.45 Z" fill="#000000" fill-rule="nonzero" fill-opacity="1"></path><path clip-path="url(#clip440)" d="M1475.55 1522.27 L1475.55 1532.4 L1487.62 1532.4 L1487.62 1536.95 L1475.55 1536.95 L1475.55 1556.3 Q1475.55 1560.66 1476.73 1561.9 Q1477.94 1563.14 1481.6 1563.14 L1487.62 1563.14 L1487.62 1568.04 L1481.6 1568.04 Q1474.82 1568.04 1472.24 1565.53 Q1469.67 1562.98 1469.67 1556.3 L1469.67 1536.95 L1465.37 1536.95 L1465.37 1532.4 L1469.67 1532.4 L1469.67 1522.27 L1475.55 1522.27 Z" fill="#000000" fill-rule="nonzero" fill-opacity="1"></path><path clip-path="url(#clip440)" d="M1525.81 1548.76 L1525.81 1551.62 L1498.89 1551.62 Q1499.27 1557.67 1502.51 1560.85 Q1505.79 1564 1511.62 1564 Q1514.99 1564 1518.14 1563.17 Q1521.32 1562.35 1524.44 1560.69 L1524.44 1566.23 Q1521.29 1567.57 1517.98 1568.27 Q1514.67 1568.97 1511.27 1568.97 Q1502.74 1568.97 1497.74 1564 Q1492.77 1559.04 1492.77 1550.57 Q1492.77 1541.82 1497.48 1536.69 Q1502.23 1531.54 1510.25 1531.54 Q1517.44 1531.54 1521.61 1536.18 Q1525.81 1540.8 1525.81 1548.76 M1519.96 1547.04 Q1519.89 1542.23 1517.25 1539.37 Q1514.64 1536.5 1510.31 1536.5 Q1505.41 1536.5 1502.45 1539.27 Q1499.52 1542.04 1499.08 1547.07 L1519.96 1547.04 Z" fill="#000000" fill-rule="nonzero" fill-opacity="1"></path><path clip-path="url(#clip440)" d="M1563.18 1539.24 Q1565.37 1535.29 1568.43 1533.41 Q1571.49 1531.54 1575.62 1531.54 Q1581.19 1531.54 1584.22 1535.45 Q1587.24 1539.33 1587.24 1546.53 L1587.24 1568.04 L1581.35 1568.04 L1581.35 1546.72 Q1581.35 1541.59 1579.54 1539.11 Q1577.72 1536.63 1574 1536.63 Q1569.45 1536.63 1566.81 1539.65 Q1564.17 1542.68 1564.17 1547.9 L1564.17 1568.04 L1558.28 1568.04 L1558.28 1546.72 Q1558.28 1541.56 1556.46 1539.11 Q1554.65 1536.63 1550.86 1536.63 Q1546.37 1536.63 1543.73 1539.68 Q1541.09 1542.71 1541.09 1547.9 L1541.09 1568.04 L1535.2 1568.04 L1535.2 1532.4 L1541.09 1532.4 L1541.09 1537.93 Q1543.1 1534.66 1545.9 1533.1 Q1548.7 1531.54 1552.55 1531.54 Q1556.43 1531.54 1559.14 1533.51 Q1561.87 1535.48 1563.18 1539.24 Z" fill="#000000" fill-rule="nonzero" fill-opacity="1"></path><polyline clip-path="url(#clip442)" style="stroke:#000000; stroke-linecap:round; stroke-linejoin:round; stroke-width:2; stroke-opacity:0.1; fill:none" points="232.389,1423.18 2352.76,1423.18 "></polyline>
<polyline clip-path="url(#clip442)" style="stroke:#000000; stroke-linecap:round; stroke-linejoin:round; stroke-width:2; stroke-opacity:0.1; fill:none" points="232.389,1163.24 2352.76,1163.24 "></polyline>
<polyline clip-path="url(#clip442)" style="stroke:#000000; stroke-linecap:round; stroke-linejoin:round; stroke-width:2; stroke-opacity:0.1; fill:none" points="232.389,903.297 2352.76,903.297 "></polyline>
<polyline clip-path="url(#clip442)" style="stroke:#000000; stroke-linecap:round; stroke-linejoin:round; stroke-width:2; stroke-opacity:0.1; fill:none" points="232.389,643.355 2352.76,643.355 "></polyline>
<polyline clip-path="url(#clip442)" style="stroke:#000000; stroke-linecap:round; stroke-linejoin:round; stroke-width:2; stroke-opacity:0.1; fill:none" points="232.389,383.414 2352.76,383.414 "></polyline>
<polyline clip-path="url(#clip442)" style="stroke:#000000; stroke-linecap:round; stroke-linejoin:round; stroke-width:2; stroke-opacity:0.1; fill:none" points="232.389,123.472 2352.76,123.472 "></polyline>
<polyline clip-path="url(#clip440)" style="stroke:#000000; stroke-linecap:round; stroke-linejoin:round; stroke-width:4; stroke-opacity:1; fill:none" points="232.389,1423.18 232.389,123.472 "></polyline>
<polyline clip-path="url(#clip440)" style="stroke:#000000; stroke-linecap:round; stroke-linejoin:round; stroke-width:4; stroke-opacity:1; fill:none" points="232.389,1423.18 251.287,1423.18 "></polyline>
<polyline clip-path="url(#clip440)" style="stroke:#000000; stroke-linecap:round; stroke-linejoin:round; stroke-width:4; stroke-opacity:1; fill:none" points="232.389,1163.24 251.287,1163.24 "></polyline>
<polyline clip-path="url(#clip440)" style="stroke:#000000; stroke-linecap:round; stroke-linejoin:round; stroke-width:4; stroke-opacity:1; fill:none" points="232.389,903.297 251.287,903.297 "></polyline>
<polyline clip-path="url(#clip440)" style="stroke:#000000; stroke-linecap:round; stroke-linejoin:round; stroke-width:4; stroke-opacity:1; fill:none" points="232.389,643.355 251.287,643.355 "></polyline>
<polyline clip-path="url(#clip440)" style="stroke:#000000; stroke-linecap:round; stroke-linejoin:round; stroke-width:4; stroke-opacity:1; fill:none" points="232.389,383.414 251.287,383.414 "></polyline>
<polyline clip-path="url(#clip440)" style="stroke:#000000; stroke-linecap:round; stroke-linejoin:round; stroke-width:4; stroke-opacity:1; fill:none" points="232.389,123.472 251.287,123.472 "></polyline>
<path clip-path="url(#clip440)" d="M184.445 1408.98 Q180.834 1408.98 179.005 1412.54 Q177.2 1416.08 177.2 1423.21 Q177.2 1430.32 179.005 1433.89 Q180.834 1437.43 184.445 1437.43 Q188.079 1437.43 189.885 1433.89 Q191.713 1430.32 191.713 1423.21 Q191.713 1416.08 189.885 1412.54 Q188.079 1408.98 184.445 1408.98 M184.445 1405.27 Q190.255 1405.27 193.311 1409.88 Q196.389 1414.46 196.389 1423.21 Q196.389 1431.94 193.311 1436.55 Q190.255 1441.13 184.445 1441.13 Q178.635 1441.13 175.556 1436.55 Q172.501 1431.94 172.501 1423.21 Q172.501 1414.46 175.556 1409.88 Q178.635 1405.27 184.445 1405.27 Z" fill="#000000" fill-rule="nonzero" fill-opacity="1"></path><path clip-path="url(#clip440)" d="M148.311 1176.58 L164.63 1176.58 L164.63 1180.52 L142.686 1180.52 L142.686 1176.58 Q145.348 1173.83 149.931 1169.2 Q154.538 1164.55 155.718 1163.2 Q157.964 1160.68 158.843 1158.94 Q159.746 1157.19 159.746 1155.5 Q159.746 1152.74 157.802 1151 Q155.88 1149.27 152.778 1149.27 Q150.579 1149.27 148.126 1150.03 Q145.695 1150.8 142.917 1152.35 L142.917 1147.62 Q145.741 1146.49 148.195 1145.91 Q150.649 1145.33 152.686 1145.33 Q158.056 1145.33 161.251 1148.02 Q164.445 1150.7 164.445 1155.19 Q164.445 1157.32 163.635 1159.25 Q162.848 1161.14 160.741 1163.74 Q160.163 1164.41 157.061 1167.62 Q153.959 1170.82 148.311 1176.58 Z" fill="#000000" fill-rule="nonzero" fill-opacity="1"></path><path clip-path="url(#clip440)" d="M184.445 1149.04 Q180.834 1149.04 179.005 1152.6 Q177.2 1156.14 177.2 1163.27 Q177.2 1170.38 179.005 1173.94 Q180.834 1177.49 184.445 1177.49 Q188.079 1177.49 189.885 1173.94 Q191.713 1170.38 191.713 1163.27 Q191.713 1156.14 189.885 1152.6 Q188.079 1149.04 184.445 1149.04 M184.445 1145.33 Q190.255 1145.33 193.311 1149.94 Q196.389 1154.52 196.389 1163.27 Q196.389 1172 193.311 1176.61 Q190.255 1181.19 184.445 1181.19 Q178.635 1181.19 175.556 1176.61 Q172.501 1172 172.501 1163.27 Q172.501 1154.52 175.556 1149.94 Q178.635 1145.33 184.445 1145.33 Z" fill="#000000" fill-rule="nonzero" fill-opacity="1"></path><path clip-path="url(#clip440)" d="M157.13 890.091 L145.325 908.54 L157.13 908.54 L157.13 890.091 M155.903 886.017 L161.783 886.017 L161.783 908.54 L166.714 908.54 L166.714 912.429 L161.783 912.429 L161.783 920.577 L157.13 920.577 L157.13 912.429 L141.529 912.429 L141.529 907.915 L155.903 886.017 Z" fill="#000000" fill-rule="nonzero" fill-opacity="1"></path><path clip-path="url(#clip440)" d="M184.445 889.095 Q180.834 889.095 179.005 892.66 Q177.2 896.202 177.2 903.331 Q177.2 910.438 179.005 914.003 Q180.834 917.544 184.445 917.544 Q188.079 917.544 189.885 914.003 Q191.713 910.438 191.713 903.331 Q191.713 896.202 189.885 892.66 Q188.079 889.095 184.445 889.095 M184.445 885.392 Q190.255 885.392 193.311 889.998 Q196.389 894.582 196.389 903.331 Q196.389 912.058 193.311 916.665 Q190.255 921.248 184.445 921.248 Q178.635 921.248 175.556 916.665 Q172.501 912.058 172.501 903.331 Q172.501 894.582 175.556 889.998 Q178.635 885.392 184.445 885.392 Z" fill="#000000" fill-rule="nonzero" fill-opacity="1"></path><path clip-path="url(#clip440)" d="M154.862 641.492 Q151.714 641.492 149.862 643.645 Q148.033 645.797 148.033 649.547 Q148.033 653.274 149.862 655.45 Q151.714 657.603 154.862 657.603 Q158.01 657.603 159.839 655.45 Q161.69 653.274 161.69 649.547 Q161.69 645.797 159.839 643.645 Q158.01 641.492 154.862 641.492 M164.144 626.839 L164.144 631.098 Q162.385 630.265 160.579 629.825 Q158.797 629.385 157.038 629.385 Q152.408 629.385 149.954 632.51 Q147.524 635.635 147.177 641.955 Q148.542 639.941 150.603 638.876 Q152.663 637.788 155.14 637.788 Q160.348 637.788 163.357 640.959 Q166.39 644.108 166.39 649.547 Q166.39 654.871 163.241 658.089 Q160.093 661.307 154.862 661.307 Q148.866 661.307 145.695 656.723 Q142.524 652.117 142.524 643.39 Q142.524 635.196 146.413 630.334 Q150.302 625.45 156.853 625.45 Q158.612 625.45 160.394 625.797 Q162.2 626.145 164.144 626.839 Z" fill="#000000" fill-rule="nonzero" fill-opacity="1"></path><path clip-path="url(#clip440)" d="M184.445 629.154 Q180.834 629.154 179.005 632.719 Q177.2 636.26 177.2 643.39 Q177.2 650.496 179.005 654.061 Q180.834 657.603 184.445 657.603 Q188.079 657.603 189.885 654.061 Q191.713 650.496 191.713 643.39 Q191.713 636.26 189.885 632.719 Q188.079 629.154 184.445 629.154 M184.445 625.45 Q190.255 625.45 193.311 630.057 Q196.389 634.64 196.389 643.39 Q196.389 652.117 193.311 656.723 Q190.255 661.307 184.445 661.307 Q178.635 661.307 175.556 656.723 Q172.501 652.117 172.501 643.39 Q172.501 634.64 175.556 630.057 Q178.635 625.45 184.445 625.45 Z" fill="#000000" fill-rule="nonzero" fill-opacity="1"></path><path clip-path="url(#clip440)" d="M154.283 384.282 Q150.95 384.282 149.028 386.064 Q147.13 387.847 147.13 390.971 Q147.13 394.096 149.028 395.879 Q150.95 397.661 154.283 397.661 Q157.616 397.661 159.538 395.879 Q161.459 394.073 161.459 390.971 Q161.459 387.847 159.538 386.064 Q157.64 384.282 154.283 384.282 M149.607 382.291 Q146.598 381.55 144.908 379.49 Q143.241 377.43 143.241 374.467 Q143.241 370.323 146.181 367.916 Q149.144 365.509 154.283 365.509 Q159.445 365.509 162.385 367.916 Q165.325 370.323 165.325 374.467 Q165.325 377.43 163.635 379.49 Q161.968 381.55 158.982 382.291 Q162.362 383.078 164.237 385.37 Q166.135 387.661 166.135 390.971 Q166.135 395.995 163.056 398.68 Q160.001 401.365 154.283 401.365 Q148.566 401.365 145.487 398.68 Q142.431 395.995 142.431 390.971 Q142.431 387.661 144.329 385.37 Q146.228 383.078 149.607 382.291 M147.894 374.907 Q147.894 377.592 149.561 379.097 Q151.251 380.601 154.283 380.601 Q157.292 380.601 158.982 379.097 Q160.695 377.592 160.695 374.907 Q160.695 372.222 158.982 370.717 Q157.292 369.212 154.283 369.212 Q151.251 369.212 149.561 370.717 Q147.894 372.222 147.894 374.907 Z" fill="#000000" fill-rule="nonzero" fill-opacity="1"></path><path clip-path="url(#clip440)" d="M184.445 369.212 Q180.834 369.212 179.005 372.777 Q177.2 376.319 177.2 383.448 Q177.2 390.555 179.005 394.12 Q180.834 397.661 184.445 397.661 Q188.079 397.661 189.885 394.12 Q191.713 390.555 191.713 383.448 Q191.713 376.319 189.885 372.777 Q188.079 369.212 184.445 369.212 M184.445 365.509 Q190.255 365.509 193.311 370.115 Q196.389 374.698 196.389 383.448 Q196.389 392.175 193.311 396.782 Q190.255 401.365 184.445 401.365 Q178.635 401.365 175.556 396.782 Q172.501 392.175 172.501 383.448 Q172.501 374.698 175.556 370.115 Q178.635 365.509 184.445 365.509 Z" fill="#000000" fill-rule="nonzero" fill-opacity="1"></path><path clip-path="url(#clip440)" d="M114.931 136.817 L122.57 136.817 L122.57 110.451 L114.26 112.118 L114.26 107.859 L122.524 106.192 L127.2 106.192 L127.2 136.817 L134.839 136.817 L134.839 140.752 L114.931 140.752 L114.931 136.817 Z" fill="#000000" fill-rule="nonzero" fill-opacity="1"></path><path clip-path="url(#clip440)" d="M154.283 109.271 Q150.672 109.271 148.843 112.836 Q147.038 116.377 147.038 123.507 Q147.038 130.613 148.843 134.178 Q150.672 137.72 154.283 137.72 Q157.917 137.72 159.723 134.178 Q161.552 130.613 161.552 123.507 Q161.552 116.377 159.723 112.836 Q157.917 109.271 154.283 109.271 M154.283 105.567 Q160.093 105.567 163.149 110.174 Q166.227 114.757 166.227 123.507 Q166.227 132.234 163.149 136.84 Q160.093 141.423 154.283 141.423 Q148.473 141.423 145.394 136.84 Q142.339 132.234 142.339 123.507 Q142.339 114.757 145.394 110.174 Q148.473 105.567 154.283 105.567 Z" fill="#000000" fill-rule="nonzero" fill-opacity="1"></path><path clip-path="url(#clip440)" d="M184.445 109.271 Q180.834 109.271 179.005 112.836 Q177.2 116.377 177.2 123.507 Q177.2 130.613 179.005 134.178 Q180.834 137.72 184.445 137.72 Q188.079 137.72 189.885 134.178 Q191.713 130.613 191.713 123.507 Q191.713 116.377 189.885 112.836 Q188.079 109.271 184.445 109.271 M184.445 105.567 Q190.255 105.567 193.311 110.174 Q196.389 114.757 196.389 123.507 Q196.389 132.234 193.311 136.84 Q190.255 141.423 184.445 141.423 Q178.635 141.423 175.556 136.84 Q172.501 132.234 172.501 123.507 Q172.501 114.757 175.556 110.174 Q178.635 105.567 184.445 105.567 Z" fill="#000000" fill-rule="nonzero" fill-opacity="1"></path><path clip-path="url(#clip440)" d="M16.4842 856.574 L16.4842 829.265 L21.895 829.265 L21.895 850.144 L35.8996 850.144 L35.8996 831.302 L41.3104 831.302 L41.3104 850.144 L64.0042 850.144 L64.0042 856.574 L16.4842 856.574 Z" fill="#000000" fill-rule="nonzero" fill-opacity="1"></path><path clip-path="url(#clip440)" d="M32.4621 807.844 Q32.4621 812.555 36.1542 815.292 Q39.8145 818.029 46.212 818.029 Q52.6095 818.029 56.3017 815.324 Q59.9619 812.586 59.9619 807.844 Q59.9619 803.165 56.2698 800.428 Q52.5777 797.691 46.212 797.691 Q39.8781 797.691 36.186 800.428 Q32.4621 803.165 32.4621 807.844 M27.4968 807.844 Q27.4968 800.205 32.4621 795.845 Q37.4273 791.484 46.212 791.484 Q54.9649 791.484 59.9619 795.845 Q64.9272 800.205 64.9272 807.844 Q64.9272 815.515 59.9619 819.875 Q54.9649 824.204 46.212 824.204 Q37.4273 824.204 32.4621 819.875 Q27.4968 815.515 27.4968 807.844 Z" fill="#000000" fill-rule="nonzero" fill-opacity="1"></path><path clip-path="url(#clip440)" d="M33.8307 761.12 Q33.2578 762.106 33.0032 763.284 Q32.7167 764.43 32.7167 765.83 Q32.7167 770.796 35.9632 773.469 Q39.1779 776.111 45.2253 776.111 L64.0042 776.111 L64.0042 781.999 L28.3562 781.999 L28.3562 776.111 L33.8944 776.111 Q30.6479 774.265 29.0883 771.305 Q27.4968 768.345 27.4968 764.112 Q27.4968 763.507 27.5923 762.775 Q27.656 762.043 27.8151 761.152 L33.8307 761.12 Z" fill="#000000" fill-rule="nonzero" fill-opacity="1"></path><path clip-path="url(#clip440)" d="M29.7248 730.755 L35.1993 730.755 Q33.8307 733.238 33.1623 735.752 Q32.4621 738.235 32.4621 740.781 Q32.4621 746.479 36.0905 749.63 Q39.6872 752.781 46.212 752.781 Q52.7369 752.781 56.3653 749.63 Q59.9619 746.479 59.9619 740.781 Q59.9619 738.235 59.2935 735.752 Q58.5933 733.238 57.2247 730.755 L62.6355 730.755 Q63.7814 733.206 64.3543 735.848 Q64.9272 738.458 64.9272 741.418 Q64.9272 749.47 59.8664 754.213 Q54.8057 758.955 46.212 758.955 Q37.491 758.955 32.4939 754.181 Q27.4968 749.375 27.4968 741.036 Q27.4968 738.331 28.0697 735.752 Q28.6108 733.174 29.7248 730.755 Z" fill="#000000" fill-rule="nonzero" fill-opacity="1"></path><path clip-path="url(#clip440)" d="M44.7161 690.078 L47.5806 690.078 L47.5806 717.005 Q53.6281 716.623 56.8109 713.377 Q59.9619 710.099 59.9619 704.274 Q59.9619 700.9 59.1344 697.749 Q58.3069 694.566 56.6518 691.447 L62.1899 691.447 Q63.5267 694.598 64.227 697.908 Q64.9272 701.218 64.9272 704.624 Q64.9272 713.154 59.9619 718.151 Q54.9967 723.116 46.5303 723.116 Q37.7774 723.116 32.6531 718.406 Q27.4968 713.663 27.4968 705.643 Q27.4968 698.449 32.1438 694.28 Q36.7589 690.078 44.7161 690.078 M42.9973 695.935 Q38.1912 695.999 35.3266 698.64 Q32.4621 701.25 32.4621 705.579 Q32.4621 710.481 35.2312 713.441 Q38.0002 716.369 43.0292 716.814 L42.9973 695.935 Z" fill="#000000" fill-rule="nonzero" fill-opacity="1"></path><path clip-path="url(#clip440)" d="M581.922 16.7545 L581.922 25.383 Q577.791 21.5346 573.092 19.6307 Q568.433 17.7268 563.167 17.7268 Q552.796 17.7268 547.287 24.0867 Q541.778 30.4061 541.778 42.3968 Q541.778 54.3469 547.287 60.7069 Q552.796 67.0263 563.167 67.0263 Q568.433 67.0263 573.092 65.1223 Q577.791 63.2184 581.922 59.3701 L581.922 67.9175 Q577.629 70.8341 572.808 72.2924 Q568.028 73.7508 562.681 73.7508 Q548.948 73.7508 541.049 65.3654 Q533.15 56.9395 533.15 42.3968 Q533.15 27.8135 541.049 19.4281 Q548.948 11.0023 562.681 11.0023 Q568.109 11.0023 572.889 12.4606 Q577.71 13.8784 581.922 16.7545 Z" fill="#000000" fill-rule="nonzero" fill-opacity="1"></path><path clip-path="url(#clip440)" d="M611.818 32.4315 Q605.823 32.4315 602.339 37.1306 Q598.855 41.7891 598.855 49.9314 Q598.855 58.0738 602.299 62.7728 Q605.782 67.4314 611.818 67.4314 Q617.773 67.4314 621.257 62.7323 Q624.741 58.0333 624.741 49.9314 Q624.741 41.8701 621.257 37.1711 Q617.773 32.4315 611.818 32.4315 M611.818 26.1121 Q621.54 26.1121 627.09 32.4315 Q632.64 38.7509 632.64 49.9314 Q632.64 61.0714 627.09 67.4314 Q621.54 73.7508 611.818 73.7508 Q602.055 73.7508 596.506 67.4314 Q590.997 61.0714 590.997 49.9314 Q590.997 38.7509 596.506 32.4315 Q602.055 26.1121 611.818 26.1121 Z" fill="#000000" fill-rule="nonzero" fill-opacity="1"></path><path clip-path="url(#clip440)" d="M680.319 35.9153 Q683.114 30.8922 687.003 28.5022 Q690.892 26.1121 696.158 26.1121 Q703.247 26.1121 707.095 31.0947 Q710.944 36.0368 710.944 45.1919 L710.944 72.576 L703.45 72.576 L703.45 45.4349 Q703.45 38.913 701.141 35.7533 Q698.832 32.5936 694.092 32.5936 Q688.299 32.5936 684.937 36.4419 Q681.575 40.2903 681.575 46.9338 L681.575 72.576 L674.081 72.576 L674.081 45.4349 Q674.081 38.8725 671.772 35.7533 Q669.463 32.5936 664.642 32.5936 Q658.93 32.5936 655.568 36.4824 Q652.206 40.3308 652.206 46.9338 L652.206 72.576 L644.712 72.576 L644.712 27.2059 L652.206 27.2059 L652.206 34.2544 Q654.758 30.082 658.323 28.0971 Q661.887 26.1121 666.789 26.1121 Q671.731 26.1121 675.174 28.6237 Q678.658 31.1352 680.319 35.9153 Z" fill="#000000" fill-rule="nonzero" fill-opacity="1"></path><path clip-path="url(#clip440)" d="M733.021 65.7705 L733.021 89.8329 L725.527 89.8329 L725.527 27.2059 L733.021 27.2059 L733.021 34.0924 Q735.371 30.0415 738.936 28.0971 Q742.541 26.1121 747.523 26.1121 Q755.787 26.1121 760.932 32.6746 Q766.117 39.2371 766.117 49.9314 Q766.117 60.6258 760.932 67.1883 Q755.787 73.7508 747.523 73.7508 Q742.541 73.7508 738.936 71.8063 Q735.371 69.8214 733.021 65.7705 M758.38 49.9314 Q758.38 41.7081 754.977 37.0496 Q751.615 32.3505 745.701 32.3505 Q739.786 32.3505 736.383 37.0496 Q733.021 41.7081 733.021 49.9314 Q733.021 58.1548 736.383 62.8538 Q739.786 67.5124 745.701 67.5124 Q751.615 67.5124 754.977 62.8538 Q758.38 58.1548 758.38 49.9314 Z" fill="#000000" fill-rule="nonzero" fill-opacity="1"></path><path clip-path="url(#clip440)" d="M799.091 49.7694 Q790.058 49.7694 786.574 51.8354 Q783.09 53.9013 783.09 58.8839 Q783.09 62.8538 785.683 65.2034 Q788.316 67.5124 792.813 67.5124 Q799.01 67.5124 802.737 63.1374 Q806.505 58.7219 806.505 51.4303 L806.505 49.7694 L799.091 49.7694 M813.958 46.6907 L813.958 72.576 L806.505 72.576 L806.505 65.6895 Q803.953 69.8214 800.145 71.8063 Q796.337 73.7508 790.828 73.7508 Q783.86 73.7508 779.728 69.8619 Q775.637 65.9325 775.637 59.3701 Q775.637 51.7138 780.741 47.825 Q785.886 43.9361 796.053 43.9361 L806.505 43.9361 L806.505 43.2069 Q806.505 38.0623 803.102 35.2672 Q799.74 32.4315 793.623 32.4315 Q789.734 32.4315 786.048 33.3632 Q782.361 34.295 778.958 36.1584 L778.958 29.2718 Q783.05 27.692 786.898 26.9223 Q790.747 26.1121 794.392 26.1121 Q804.236 26.1121 809.097 31.2163 Q813.958 36.3204 813.958 46.6907 Z" fill="#000000" fill-rule="nonzero" fill-opacity="1"></path><path clip-path="url(#clip440)" d="M855.602 34.1734 Q854.346 33.4443 852.847 33.1202 Q851.389 32.7556 849.606 32.7556 Q843.287 32.7556 839.884 36.8875 Q836.522 40.9789 836.522 48.6757 L836.522 72.576 L829.028 72.576 L829.028 27.2059 L836.522 27.2059 L836.522 34.2544 Q838.871 30.1225 842.639 28.1376 Q846.406 26.1121 851.794 26.1121 Q852.563 26.1121 853.495 26.2337 Q854.427 26.3147 855.561 26.5172 L855.602 34.1734 Z" fill="#000000" fill-rule="nonzero" fill-opacity="1"></path><path clip-path="url(#clip440)" d="M863.42 27.2059 L870.873 27.2059 L870.873 72.576 L863.42 72.576 L863.42 27.2059 M863.42 9.54393 L870.873 9.54393 L870.873 18.9825 L863.42 18.9825 L863.42 9.54393 Z" fill="#000000" fill-rule="nonzero" fill-opacity="1"></path><path clip-path="url(#clip440)" d="M915.393 28.5427 L915.393 35.5912 Q912.233 33.9709 908.83 33.1607 Q905.428 32.3505 901.782 32.3505 Q896.232 32.3505 893.437 34.0519 Q890.682 35.7533 890.682 39.156 Q890.682 41.7486 892.667 43.2475 Q894.652 44.7058 900.648 46.0426 L903.2 46.6097 Q911.139 48.3111 914.461 51.4303 Q917.823 54.509 917.823 60.0587 Q917.823 66.3781 912.8 70.0644 Q907.818 73.7508 899.068 73.7508 Q895.422 73.7508 891.452 73.0216 Q887.523 72.3329 883.148 70.9151 L883.148 63.2184 Q887.28 65.3654 891.29 66.4591 Q895.3 67.5124 899.23 67.5124 Q904.496 67.5124 907.332 65.73 Q910.167 63.9071 910.167 60.6258 Q910.167 57.5877 908.101 55.9673 Q906.076 54.3469 899.149 52.8481 L896.556 52.2405 Q889.629 50.7821 886.55 47.7845 Q883.472 44.7463 883.472 39.4801 Q883.472 33.0797 888.009 29.5959 Q892.546 26.1121 900.891 26.1121 Q905.023 26.1121 908.668 26.7198 Q912.314 27.3274 915.393 28.5427 Z" fill="#000000" fill-rule="nonzero" fill-opacity="1"></path><path clip-path="url(#clip440)" d="M947.274 32.4315 Q941.278 32.4315 937.794 37.1306 Q934.311 41.7891 934.311 49.9314 Q934.311 58.0738 937.754 62.7728 Q941.238 67.4314 947.274 67.4314 Q953.228 67.4314 956.712 62.7323 Q960.196 58.0333 960.196 49.9314 Q960.196 41.8701 956.712 37.1711 Q953.228 32.4315 947.274 32.4315 M947.274 26.1121 Q956.996 26.1121 962.545 32.4315 Q968.095 38.7509 968.095 49.9314 Q968.095 61.0714 962.545 67.4314 Q956.996 73.7508 947.274 73.7508 Q937.511 73.7508 931.961 67.4314 Q926.452 61.0714 926.452 49.9314 Q926.452 38.7509 931.961 32.4315 Q937.511 26.1121 947.274 26.1121 Z" fill="#000000" fill-rule="nonzero" fill-opacity="1"></path><path clip-path="url(#clip440)" d="M1018.16 45.1919 L1018.16 72.576 L1010.71 72.576 L1010.71 45.4349 Q1010.71 38.994 1008.2 35.7938 Q1005.69 32.5936 1000.66 32.5936 Q994.629 32.5936 991.145 36.4419 Q987.661 40.2903 987.661 46.9338 L987.661 72.576 L980.167 72.576 L980.167 27.2059 L987.661 27.2059 L987.661 34.2544 Q990.335 30.163 993.94 28.1376 Q997.586 26.1121 1002.33 26.1121 Q1010.14 26.1121 1014.15 30.9732 Q1018.16 35.7938 1018.16 45.1919 Z" fill="#000000" fill-rule="nonzero" fill-opacity="1"></path><path clip-path="url(#clip440)" d="M1076.98 32.4315 Q1070.99 32.4315 1067.5 37.1306 Q1064.02 41.7891 1064.02 49.9314 Q1064.02 58.0738 1067.46 62.7728 Q1070.95 67.4314 1076.98 67.4314 Q1082.94 67.4314 1086.42 62.7323 Q1089.91 58.0333 1089.91 49.9314 Q1089.91 41.8701 1086.42 37.1711 Q1082.94 32.4315 1076.98 32.4315 M1076.98 26.1121 Q1086.71 26.1121 1092.26 32.4315 Q1097.81 38.7509 1097.81 49.9314 Q1097.81 61.0714 1092.26 67.4314 Q1086.71 73.7508 1076.98 73.7508 Q1067.22 73.7508 1061.67 67.4314 Q1056.16 61.0714 1056.16 49.9314 Q1056.16 38.7509 1061.67 32.4315 Q1067.22 26.1121 1076.98 26.1121 Z" fill="#000000" fill-rule="nonzero" fill-opacity="1"></path><path clip-path="url(#clip440)" d="M1133.13 9.54393 L1133.13 15.7418 L1126 15.7418 Q1121.99 15.7418 1120.41 17.3622 Q1118.87 18.9825 1118.87 23.1955 L1118.87 27.2059 L1131.14 27.2059 L1131.14 32.9987 L1118.87 32.9987 L1118.87 72.576 L1111.38 72.576 L1111.38 32.9987 L1104.25 32.9987 L1104.25 27.2059 L1111.38 27.2059 L1111.38 24.0462 Q1111.38 16.471 1114.9 13.0277 Q1118.42 9.54393 1126.08 9.54393 L1133.13 9.54393 Z" fill="#000000" fill-rule="nonzero" fill-opacity="1"></path><path clip-path="url(#clip440)" d="M1157.68 12.096 L1208.84 12.096 L1208.84 18.9825 L1187.37 18.9825 L1187.37 72.576 L1179.15 72.576 L1179.15 18.9825 L1157.68 18.9825 L1157.68 12.096 Z" fill="#000000" fill-rule="nonzero" fill-opacity="1"></path><path clip-path="url(#clip440)" d="M1254.13 45.1919 L1254.13 72.576 L1246.68 72.576 L1246.68 45.4349 Q1246.68 38.994 1244.16 35.7938 Q1241.65 32.5936 1236.63 32.5936 Q1230.59 32.5936 1227.11 36.4419 Q1223.63 40.2903 1223.63 46.9338 L1223.63 72.576 L1216.13 72.576 L1216.13 9.54393 L1223.63 9.54393 L1223.63 34.2544 Q1226.3 30.163 1229.91 28.1376 Q1233.55 26.1121 1238.29 26.1121 Q1246.11 26.1121 1250.12 30.9732 Q1254.13 35.7938 1254.13 45.1919 Z" fill="#000000" fill-rule="nonzero" fill-opacity="1"></path><path clip-path="url(#clip440)" d="M1295.29 34.1734 Q1294.03 33.4443 1292.53 33.1202 Q1291.07 32.7556 1289.29 32.7556 Q1282.97 32.7556 1279.57 36.8875 Q1276.21 40.9789 1276.21 48.6757 L1276.21 72.576 L1268.71 72.576 L1268.71 27.2059 L1276.21 27.2059 L1276.21 34.2544 Q1278.56 30.1225 1282.32 28.1376 Q1286.09 26.1121 1291.48 26.1121 Q1292.25 26.1121 1293.18 26.2337 Q1294.11 26.3147 1295.25 26.5172 L1295.29 34.1734 Z" fill="#000000" fill-rule="nonzero" fill-opacity="1"></path><path clip-path="url(#clip440)" d="M1302.34 54.671 L1302.34 27.2059 L1309.79 27.2059 L1309.79 54.3874 Q1309.79 60.8284 1312.3 64.0691 Q1314.81 67.2693 1319.84 67.2693 Q1325.87 67.2693 1329.35 63.421 Q1332.88 59.5726 1332.88 52.9291 L1332.88 27.2059 L1340.33 27.2059 L1340.33 72.576 L1332.88 72.576 L1332.88 65.6084 Q1330.17 69.7404 1326.56 71.7658 Q1322.99 73.7508 1318.26 73.7508 Q1310.44 73.7508 1306.39 68.8897 Q1302.34 64.0286 1302.34 54.671 M1321.09 26.1121 L1321.09 26.1121 Z" fill="#000000" fill-rule="nonzero" fill-opacity="1"></path><path clip-path="url(#clip440)" d="M1384.61 28.5427 L1384.61 35.5912 Q1381.45 33.9709 1378.05 33.1607 Q1374.64 32.3505 1371 32.3505 Q1365.45 32.3505 1362.65 34.0519 Q1359.9 35.7533 1359.9 39.156 Q1359.9 41.7486 1361.88 43.2475 Q1363.87 44.7058 1369.86 46.0426 L1372.42 46.6097 Q1380.36 48.3111 1383.68 51.4303 Q1387.04 54.509 1387.04 60.0587 Q1387.04 66.3781 1382.02 70.0644 Q1377.03 73.7508 1368.28 73.7508 Q1364.64 73.7508 1360.67 73.0216 Q1356.74 72.3329 1352.36 70.9151 L1352.36 63.2184 Q1356.5 65.3654 1360.51 66.4591 Q1364.52 67.5124 1368.45 67.5124 Q1373.71 67.5124 1376.55 65.73 Q1379.38 63.9071 1379.38 60.6258 Q1379.38 57.5877 1377.32 55.9673 Q1375.29 54.3469 1368.37 52.8481 L1365.77 52.2405 Q1358.85 50.7821 1355.77 47.7845 Q1352.69 44.7463 1352.69 39.4801 Q1352.69 33.0797 1357.23 29.5959 Q1361.76 26.1121 1370.11 26.1121 Q1374.24 26.1121 1377.88 26.7198 Q1381.53 27.3274 1384.61 28.5427 Z" fill="#000000" fill-rule="nonzero" fill-opacity="1"></path><path clip-path="url(#clip440)" d="M1406.28 14.324 L1406.28 27.2059 L1421.63 27.2059 L1421.63 32.9987 L1406.28 32.9987 L1406.28 57.6282 Q1406.28 63.1779 1407.78 64.7578 Q1409.32 66.3376 1413.98 66.3376 L1421.63 66.3376 L1421.63 72.576 L1413.98 72.576 Q1405.35 72.576 1402.07 69.3758 Q1398.79 66.1351 1398.79 57.6282 L1398.79 32.9987 L1393.32 32.9987 L1393.32 27.2059 L1398.79 27.2059 L1398.79 14.324 L1406.28 14.324 Z" fill="#000000" fill-rule="nonzero" fill-opacity="1"></path><path clip-path="url(#clip440)" d="M1478.43 49.7694 Q1469.39 49.7694 1465.91 51.8354 Q1462.43 53.9013 1462.43 58.8839 Q1462.43 62.8538 1465.02 65.2034 Q1467.65 67.5124 1472.15 67.5124 Q1478.35 67.5124 1482.07 63.1374 Q1485.84 58.7219 1485.84 51.4303 L1485.84 49.7694 L1478.43 49.7694 M1493.29 46.6907 L1493.29 72.576 L1485.84 72.576 L1485.84 65.6895 Q1483.29 69.8214 1479.48 71.8063 Q1475.67 73.7508 1470.16 73.7508 Q1463.2 73.7508 1459.06 69.8619 Q1454.97 65.9325 1454.97 59.3701 Q1454.97 51.7138 1460.08 47.825 Q1465.22 43.9361 1475.39 43.9361 L1485.84 43.9361 L1485.84 43.2069 Q1485.84 38.0623 1482.44 35.2672 Q1479.08 32.4315 1472.96 32.4315 Q1469.07 32.4315 1465.38 33.3632 Q1461.7 34.295 1458.3 36.1584 L1458.3 29.2718 Q1462.39 27.692 1466.23 26.9223 Q1470.08 26.1121 1473.73 26.1121 Q1483.57 26.1121 1488.43 31.2163 Q1493.29 36.3204 1493.29 46.6907 Z" fill="#000000" fill-rule="nonzero" fill-opacity="1"></path><path clip-path="url(#clip440)" d="M1546.36 45.1919 L1546.36 72.576 L1538.91 72.576 L1538.91 45.4349 Q1538.91 38.994 1536.4 35.7938 Q1533.88 32.5936 1528.86 32.5936 Q1522.83 32.5936 1519.34 36.4419 Q1515.86 40.2903 1515.86 46.9338 L1515.86 72.576 L1508.36 72.576 L1508.36 27.2059 L1515.86 27.2059 L1515.86 34.2544 Q1518.53 30.163 1522.14 28.1376 Q1525.78 26.1121 1530.52 26.1121 Q1538.34 26.1121 1542.35 30.9732 Q1546.36 35.7938 1546.36 45.1919 Z" fill="#000000" fill-rule="nonzero" fill-opacity="1"></path><path clip-path="url(#clip440)" d="M1591.08 34.0924 L1591.08 9.54393 L1598.54 9.54393 L1598.54 72.576 L1591.08 72.576 L1591.08 65.7705 Q1588.73 69.8214 1585.13 71.8063 Q1581.56 73.7508 1576.54 73.7508 Q1568.32 73.7508 1563.13 67.1883 Q1557.99 60.6258 1557.99 49.9314 Q1557.99 39.2371 1563.13 32.6746 Q1568.32 26.1121 1576.54 26.1121 Q1581.56 26.1121 1585.13 28.0971 Q1588.73 30.0415 1591.08 34.0924 M1565.68 49.9314 Q1565.68 58.1548 1569.05 62.8538 Q1572.45 67.5124 1578.36 67.5124 Q1584.28 67.5124 1587.68 62.8538 Q1591.08 58.1548 1591.08 49.9314 Q1591.08 41.7081 1587.68 37.0496 Q1584.28 32.3505 1578.36 32.3505 Q1572.45 32.3505 1569.05 37.0496 Q1565.68 41.7081 1565.68 49.9314 Z" fill="#000000" fill-rule="nonzero" fill-opacity="1"></path><path clip-path="url(#clip440)" d="M1640.59 12.096 L1648.77 12.096 L1648.77 65.6895 L1678.22 65.6895 L1678.22 72.576 L1640.59 72.576 L1640.59 12.096 Z" fill="#000000" fill-rule="nonzero" fill-opacity="1"></path><path clip-path="url(#clip440)" d="M1686.48 27.2059 L1693.94 27.2059 L1693.94 72.576 L1686.48 72.576 L1686.48 27.2059 M1686.48 9.54393 L1693.94 9.54393 L1693.94 18.9825 L1686.48 18.9825 L1686.48 9.54393 Z" fill="#000000" fill-rule="nonzero" fill-opacity="1"></path><path clip-path="url(#clip440)" d="M1732.5 9.54393 L1732.5 15.7418 L1725.37 15.7418 Q1721.36 15.7418 1719.78 17.3622 Q1718.24 18.9825 1718.24 23.1955 L1718.24 27.2059 L1730.52 27.2059 L1730.52 32.9987 L1718.24 32.9987 L1718.24 72.576 L1710.75 72.576 L1710.75 32.9987 L1703.62 32.9987 L1703.62 27.2059 L1710.75 27.2059 L1710.75 24.0462 Q1710.75 16.471 1714.27 13.0277 Q1717.8 9.54393 1725.45 9.54393 L1732.5 9.54393 Z" fill="#000000" fill-rule="nonzero" fill-opacity="1"></path><path clip-path="url(#clip440)" d="M1744.65 14.324 L1744.65 27.2059 L1760.01 27.2059 L1760.01 32.9987 L1744.65 32.9987 L1744.65 57.6282 Q1744.65 63.1779 1746.15 64.7578 Q1747.69 66.3376 1752.35 66.3376 L1760.01 66.3376 L1760.01 72.576 L1752.35 72.576 Q1743.72 72.576 1740.44 69.3758 Q1737.16 66.1351 1737.16 57.6282 L1737.16 32.9987 L1731.69 32.9987 L1731.69 27.2059 L1737.16 27.2059 L1737.16 14.324 L1744.65 14.324 Z" fill="#000000" fill-rule="nonzero" fill-opacity="1"></path><path clip-path="url(#clip440)" d="M1796.51 12.096 L1831.26 12.096 L1831.26 18.9825 L1804.69 18.9825 L1804.69 36.8065 L1828.67 36.8065 L1828.67 43.6931 L1804.69 43.6931 L1804.69 72.576 L1796.51 72.576 L1796.51 12.096 Z" fill="#000000" fill-rule="nonzero" fill-opacity="1"></path><path clip-path="url(#clip440)" d="M1858.52 32.4315 Q1852.53 32.4315 1849.05 37.1306 Q1845.56 41.7891 1845.56 49.9314 Q1845.56 58.0738 1849 62.7728 Q1852.49 67.4314 1858.52 67.4314 Q1864.48 67.4314 1867.96 62.7323 Q1871.45 58.0333 1871.45 49.9314 Q1871.45 41.8701 1867.96 37.1711 Q1864.48 32.4315 1858.52 32.4315 M1858.52 26.1121 Q1868.25 26.1121 1873.8 32.4315 Q1879.35 38.7509 1879.35 49.9314 Q1879.35 61.0714 1873.8 67.4314 Q1868.25 73.7508 1858.52 73.7508 Q1848.76 73.7508 1843.21 67.4314 Q1837.7 61.0714 1837.7 49.9314 Q1837.7 38.7509 1843.21 32.4315 Q1848.76 26.1121 1858.52 26.1121 Z" fill="#000000" fill-rule="nonzero" fill-opacity="1"></path><path clip-path="url(#clip440)" d="M1917.99 34.1734 Q1916.74 33.4443 1915.24 33.1202 Q1913.78 32.7556 1912 32.7556 Q1905.68 32.7556 1902.27 36.8875 Q1898.91 40.9789 1898.91 48.6757 L1898.91 72.576 L1891.42 72.576 L1891.42 27.2059 L1898.91 27.2059 L1898.91 34.2544 Q1901.26 30.1225 1905.03 28.1376 Q1908.8 26.1121 1914.18 26.1121 Q1914.95 26.1121 1915.89 26.2337 Q1916.82 26.3147 1917.95 26.5172 L1917.99 34.1734 Z" fill="#000000" fill-rule="nonzero" fill-opacity="1"></path><path clip-path="url(#clip440)" d="M1956.64 28.9478 L1956.64 35.9153 Q1953.48 34.1734 1950.28 33.3227 Q1947.12 32.4315 1943.88 32.4315 Q1936.63 32.4315 1932.62 37.0496 Q1928.61 41.6271 1928.61 49.9314 Q1928.61 58.2358 1932.62 62.8538 Q1936.63 67.4314 1943.88 67.4314 Q1947.12 67.4314 1950.28 66.5807 Q1953.48 65.6895 1956.64 63.9476 L1956.64 70.8341 Q1953.52 72.2924 1950.16 73.0216 Q1946.83 73.7508 1943.07 73.7508 Q1932.82 73.7508 1926.78 67.3098 Q1920.75 60.8689 1920.75 49.9314 Q1920.75 38.832 1926.82 32.472 Q1932.94 26.1121 1943.55 26.1121 Q1947 26.1121 1950.28 26.8413 Q1953.56 27.5299 1956.64 28.9478 Z" fill="#000000" fill-rule="nonzero" fill-opacity="1"></path><path clip-path="url(#clip440)" d="M2008.41 48.0275 L2008.41 51.6733 L1974.14 51.6733 Q1974.62 59.3701 1978.76 63.421 Q1982.93 67.4314 1990.34 67.4314 Q1994.63 67.4314 1998.65 66.3781 Q2002.7 65.3249 2006.67 63.2184 L2006.67 70.267 Q2002.66 71.9684 1998.44 72.8596 Q1994.23 73.7508 1989.9 73.7508 Q1979.04 73.7508 1972.68 67.4314 Q1966.36 61.1119 1966.36 50.3365 Q1966.36 39.1965 1972.35 32.6746 Q1978.39 26.1121 1988.6 26.1121 Q1997.75 26.1121 2003.06 32.0264 Q2008.41 37.9003 2008.41 48.0275 M2000.95 45.84 Q2000.87 39.7232 1997.51 36.0774 Q1994.19 32.4315 1988.68 32.4315 Q1982.44 32.4315 1978.67 35.9558 Q1974.95 39.4801 1974.38 45.8805 L2000.95 45.84 Z" fill="#000000" fill-rule="nonzero" fill-opacity="1"></path><path clip-path="url(#clip440)" d="M2049.57 28.5427 L2049.57 35.5912 Q2046.41 33.9709 2043 33.1607 Q2039.6 32.3505 2035.95 32.3505 Q2030.4 32.3505 2027.61 34.0519 Q2024.85 35.7533 2024.85 39.156 Q2024.85 41.7486 2026.84 43.2475 Q2028.82 44.7058 2034.82 46.0426 L2037.37 46.6097 Q2045.31 48.3111 2048.63 51.4303 Q2052 54.509 2052 60.0587 Q2052 66.3781 2046.97 70.0644 Q2041.99 73.7508 2033.24 73.7508 Q2029.59 73.7508 2025.62 73.0216 Q2021.69 72.3329 2017.32 70.9151 L2017.32 63.2184 Q2021.45 65.3654 2025.46 66.4591 Q2029.47 67.5124 2033.4 67.5124 Q2038.67 67.5124 2041.5 65.73 Q2044.34 63.9071 2044.34 60.6258 Q2044.34 57.5877 2042.27 55.9673 Q2040.25 54.3469 2033.32 52.8481 L2030.73 52.2405 Q2023.8 50.7821 2020.72 47.7845 Q2017.64 44.7463 2017.64 39.4801 Q2017.64 33.0797 2022.18 29.5959 Q2026.72 26.1121 2035.06 26.1121 Q2039.19 26.1121 2042.84 26.7198 Q2046.49 27.3274 2049.57 28.5427 Z" fill="#000000" fill-rule="nonzero" fill-opacity="1"></path><path clip-path="url(#clip442)" d="M309.116 383.414 L309.116 1423.18 L866.315 1423.18 L866.315 383.414 L309.116 383.414 L309.116 383.414  Z" fill="#009af9" fill-rule="evenodd" fill-opacity="1"></path>
<polyline clip-path="url(#clip442)" style="stroke:#000000; stroke-linecap:round; stroke-linejoin:round; stroke-width:4; stroke-opacity:1; fill:none" points="309.116,383.414 309.116,1423.18 866.315,1423.18 866.315,383.414 309.116,383.414 "></polyline>
<circle clip-path="url(#clip442)" style="fill:#009af9; stroke:none; fill-opacity:0" cx="587.715" cy="383.414" r="2"></circle>
<path clip-path="url(#clip442)" d="M309.116 253.443 L309.116 1423.18 L866.315 1423.18 L866.315 253.443 L309.116 253.443 L309.116 253.443  Z" fill="#e26f46" fill-rule="evenodd" fill-opacity="1"></path>
<polyline clip-path="url(#clip442)" style="stroke:#000000; stroke-linecap:round; stroke-linejoin:round; stroke-width:4; stroke-opacity:1; fill:none" points="309.116,253.443 309.116,1423.18 866.315,1423.18 866.315,253.443 309.116,253.443 "></polyline>
<circle clip-path="url(#clip442)" style="fill:#e26f46; stroke:none; fill-opacity:0" cx="587.715" cy="253.443" r="2"></circle>
<path clip-path="url(#clip442)" d="M1718.83 1033.27 L1718.83 1423.18 L2276.03 1423.18 L2276.03 1033.27 L1718.83 1033.27 L1718.83 1033.27  Z" fill="#3da44d" fill-rule="evenodd" fill-opacity="1"></path>
<polyline clip-path="url(#clip442)" style="stroke:#000000; stroke-linecap:round; stroke-linejoin:round; stroke-width:4; stroke-opacity:1; fill:none" points="1718.83,1033.27 1718.83,1423.18 2276.03,1423.18 2276.03,1033.27 1718.83,1033.27 "></polyline>
<circle clip-path="url(#clip442)" style="fill:#3da44d; stroke:none; fill-opacity:0" cx="1997.43" cy="1033.27" r="2"></circle>
<path clip-path="url(#clip442)" d="M1718.83 903.297 L1718.83 1423.18 L2276.03 1423.18 L2276.03 903.297 L1718.83 903.297 L1718.83 903.297  Z" fill="#c271d2" fill-rule="evenodd" fill-opacity="1"></path>
<polyline clip-path="url(#clip442)" style="stroke:#000000; stroke-linecap:round; stroke-linejoin:round; stroke-width:4; stroke-opacity:1; fill:none" points="1718.83,903.297 1718.83,1423.18 2276.03,1423.18 2276.03,903.297 1718.83,903.297 "></polyline>
<circle clip-path="url(#clip442)" style="fill:#c271d2; stroke:none; fill-opacity:0" cx="1997.43" cy="903.297" r="2"></circle>
<path clip-path="url(#clip440)" d="M1919.21 425.996 L2282.08 425.996 L2282.08 166.796 L1919.21 166.796  Z" fill="#ffffff" fill-rule="evenodd" fill-opacity="1"></path>
<polyline clip-path="url(#clip440)" style="stroke:#000000; stroke-linecap:round; stroke-linejoin:round; stroke-width:4; stroke-opacity:1; fill:none" points="1919.21,425.996 2282.08,425.996 2282.08,166.796 1919.21,166.796 1919.21,425.996 "></polyline>
<path clip-path="url(#clip440)" d="M1942.77 239.372 L2084.13 239.372 L2084.13 197.9 L1942.77 197.9 L1942.77 239.372  Z" fill="#009af9" fill-rule="evenodd" fill-opacity="1"></path>
<polyline clip-path="url(#clip440)" style="stroke:#000000; stroke-linecap:round; stroke-linejoin:round; stroke-width:4; stroke-opacity:1; fill:none" points="1942.77,239.372 2084.13,239.372 2084.13,197.9 1942.77,197.9 1942.77,239.372 "></polyline>
<path clip-path="url(#clip440)" d="M2107.68 201.356 L2112.36 201.356 L2112.36 231.981 L2129.19 231.981 L2129.19 235.916 L2107.68 235.916 L2107.68 201.356 Z" fill="#000000" fill-rule="nonzero" fill-opacity="1"></path><path clip-path="url(#clip440)" d="M2133.91 209.99 L2138.17 209.99 L2138.17 235.916 L2133.91 235.916 L2133.91 209.99 M2133.91 199.897 L2138.17 199.897 L2138.17 205.291 L2133.91 205.291 L2133.91 199.897 Z" fill="#000000" fill-rule="nonzero" fill-opacity="1"></path><path clip-path="url(#clip440)" d="M2160.21 199.897 L2160.21 203.439 L2156.13 203.439 Q2153.84 203.439 2152.94 204.365 Q2152.06 205.291 2152.06 207.698 L2152.06 209.99 L2159.07 209.99 L2159.07 213.3 L2152.06 213.3 L2152.06 235.916 L2147.78 235.916 L2147.78 213.3 L2143.7 213.3 L2143.7 209.99 L2147.78 209.99 L2147.78 208.184 Q2147.78 203.856 2149.79 201.888 Q2151.81 199.897 2156.18 199.897 L2160.21 199.897 Z" fill="#000000" fill-rule="nonzero" fill-opacity="1"></path><path clip-path="url(#clip440)" d="M2167.15 202.629 L2167.15 209.99 L2175.93 209.99 L2175.93 213.3 L2167.15 213.3 L2167.15 227.374 Q2167.15 230.545 2168.01 231.448 Q2168.89 232.351 2171.55 232.351 L2175.93 232.351 L2175.93 235.916 L2171.55 235.916 Q2166.62 235.916 2164.74 234.087 Q2162.87 232.235 2162.87 227.374 L2162.87 213.3 L2159.74 213.3 L2159.74 209.99 L2162.87 209.99 L2162.87 202.629 L2167.15 202.629 Z" fill="#000000" fill-rule="nonzero" fill-opacity="1"></path><path clip-path="url(#clip440)" d="M1942.77 291.212 L2084.13 291.212 L2084.13 249.74 L1942.77 249.74 L1942.77 291.212  Z" fill="#e26f46" fill-rule="evenodd" fill-opacity="1"></path>
<polyline clip-path="url(#clip440)" style="stroke:#000000; stroke-linecap:round; stroke-linejoin:round; stroke-width:4; stroke-opacity:1; fill:none" points="1942.77,291.212 2084.13,291.212 2084.13,249.74 1942.77,249.74 1942.77,291.212 "></polyline>
<path clip-path="url(#clip440)" d="M2107.68 253.196 L2112.36 253.196 L2112.36 283.821 L2129.19 283.821 L2129.19 287.756 L2107.68 287.756 L2107.68 253.196 Z" fill="#000000" fill-rule="nonzero" fill-opacity="1"></path><path clip-path="url(#clip440)" d="M2133.91 261.83 L2138.17 261.83 L2138.17 287.756 L2133.91 287.756 L2133.91 261.83 M2133.91 251.737 L2138.17 251.737 L2138.17 257.131 L2133.91 257.131 L2133.91 251.737 Z" fill="#000000" fill-rule="nonzero" fill-opacity="1"></path><path clip-path="url(#clip440)" d="M2160.21 251.737 L2160.21 255.279 L2156.13 255.279 Q2153.84 255.279 2152.94 256.205 Q2152.06 257.131 2152.06 259.538 L2152.06 261.83 L2159.07 261.83 L2159.07 265.14 L2152.06 265.14 L2152.06 287.756 L2147.78 287.756 L2147.78 265.14 L2143.7 265.14 L2143.7 261.83 L2147.78 261.83 L2147.78 260.024 Q2147.78 255.696 2149.79 253.728 Q2151.81 251.737 2156.18 251.737 L2160.21 251.737 Z" fill="#000000" fill-rule="nonzero" fill-opacity="1"></path><path clip-path="url(#clip440)" d="M2167.15 254.469 L2167.15 261.83 L2175.93 261.83 L2175.93 265.14 L2167.15 265.14 L2167.15 279.214 Q2167.15 282.385 2168.01 283.288 Q2168.89 284.191 2171.55 284.191 L2175.93 284.191 L2175.93 287.756 L2171.55 287.756 Q2166.62 287.756 2164.74 285.927 Q2162.87 284.075 2162.87 279.214 L2162.87 265.14 L2159.74 265.14 L2159.74 261.83 L2162.87 261.83 L2162.87 254.469 L2167.15 254.469 Z" fill="#000000" fill-rule="nonzero" fill-opacity="1"></path><path clip-path="url(#clip440)" d="M1942.77 343.052 L2084.13 343.052 L2084.13 301.58 L1942.77 301.58 L1942.77 343.052  Z" fill="#3da44d" fill-rule="evenodd" fill-opacity="1"></path>
<polyline clip-path="url(#clip440)" style="stroke:#000000; stroke-linecap:round; stroke-linejoin:round; stroke-width:4; stroke-opacity:1; fill:none" points="1942.77,343.052 2084.13,343.052 2084.13,301.58 1942.77,301.58 1942.77,343.052 "></polyline>
<path clip-path="url(#clip440)" d="M2107.68 305.036 L2136.92 305.036 L2136.92 308.971 L2124.65 308.971 L2124.65 339.596 L2119.95 339.596 L2119.95 308.971 L2107.68 308.971 L2107.68 305.036 Z" fill="#000000" fill-rule="nonzero" fill-opacity="1"></path><path clip-path="url(#clip440)" d="M2162.8 323.948 L2162.8 339.596 L2158.54 339.596 L2158.54 324.087 Q2158.54 320.406 2157.11 318.577 Q2155.67 316.749 2152.8 316.749 Q2149.35 316.749 2147.36 318.948 Q2145.37 321.147 2145.37 324.943 L2145.37 339.596 L2141.09 339.596 L2141.09 303.577 L2145.37 303.577 L2145.37 317.698 Q2146.9 315.36 2148.96 314.202 Q2151.04 313.045 2153.75 313.045 Q2158.22 313.045 2160.51 315.823 Q2162.8 318.577 2162.8 323.948 Z" fill="#000000" fill-rule="nonzero" fill-opacity="1"></path><path clip-path="url(#clip440)" d="M2186.32 317.651 Q2185.6 317.235 2184.74 317.05 Q2183.91 316.841 2182.89 316.841 Q2179.28 316.841 2177.34 319.202 Q2175.42 321.54 2175.42 325.938 L2175.42 339.596 L2171.13 339.596 L2171.13 313.67 L2175.42 313.67 L2175.42 317.698 Q2176.76 315.337 2178.91 314.202 Q2181.06 313.045 2184.14 313.045 Q2184.58 313.045 2185.12 313.114 Q2185.65 313.161 2186.3 313.276 L2186.32 317.651 Z" fill="#000000" fill-rule="nonzero" fill-opacity="1"></path><path clip-path="url(#clip440)" d="M2190.35 329.364 L2190.35 313.67 L2194.61 313.67 L2194.61 329.202 Q2194.61 332.883 2196.04 334.735 Q2197.48 336.563 2200.35 336.563 Q2203.8 336.563 2205.79 334.364 Q2207.8 332.165 2207.8 328.369 L2207.8 313.67 L2212.06 313.67 L2212.06 339.596 L2207.8 339.596 L2207.8 335.614 Q2206.25 337.975 2204.19 339.133 Q2202.15 340.267 2199.44 340.267 Q2194.98 340.267 2192.66 337.489 Q2190.35 334.711 2190.35 329.364 M2201.06 313.045 L2201.06 313.045 Z" fill="#000000" fill-rule="nonzero" fill-opacity="1"></path><path clip-path="url(#clip440)" d="M2237.36 314.434 L2237.36 318.462 Q2235.55 317.536 2233.61 317.073 Q2231.67 316.61 2229.58 316.61 Q2226.41 316.61 2224.81 317.582 Q2223.24 318.554 2223.24 320.499 Q2223.24 321.98 2224.37 322.837 Q2225.51 323.67 2228.93 324.434 L2230.39 324.758 Q2234.93 325.73 2236.83 327.512 Q2238.75 329.272 2238.75 332.443 Q2238.75 336.054 2235.88 338.161 Q2233.03 340.267 2228.03 340.267 Q2225.95 340.267 2223.68 339.85 Q2221.43 339.457 2218.93 338.647 L2218.93 334.249 Q2221.3 335.475 2223.59 336.1 Q2225.88 336.702 2228.12 336.702 Q2231.13 336.702 2232.75 335.684 Q2234.37 334.642 2234.37 332.767 Q2234.37 331.031 2233.19 330.105 Q2232.04 329.179 2228.08 328.323 L2226.6 327.975 Q2222.64 327.142 2220.88 325.429 Q2219.12 323.693 2219.12 320.684 Q2219.12 317.026 2221.71 315.036 Q2224.3 313.045 2229.07 313.045 Q2231.43 313.045 2233.52 313.392 Q2235.6 313.739 2237.36 314.434 Z" fill="#000000" fill-rule="nonzero" fill-opacity="1"></path><path clip-path="url(#clip440)" d="M2249.74 306.309 L2249.74 313.67 L2258.52 313.67 L2258.52 316.98 L2249.74 316.98 L2249.74 331.054 Q2249.74 334.225 2250.6 335.128 Q2251.48 336.031 2254.14 336.031 L2258.52 336.031 L2258.52 339.596 L2254.14 339.596 Q2249.21 339.596 2247.34 337.767 Q2245.46 335.915 2245.46 331.054 L2245.46 316.98 L2242.34 316.98 L2242.34 313.67 L2245.46 313.67 L2245.46 306.309 L2249.74 306.309 Z" fill="#000000" fill-rule="nonzero" fill-opacity="1"></path><path clip-path="url(#clip440)" d="M1942.77 394.892 L2084.13 394.892 L2084.13 353.42 L1942.77 353.42 L1942.77 394.892  Z" fill="#c271d2" fill-rule="evenodd" fill-opacity="1"></path>
<polyline clip-path="url(#clip440)" style="stroke:#000000; stroke-linecap:round; stroke-linejoin:round; stroke-width:4; stroke-opacity:1; fill:none" points="1942.77,394.892 2084.13,394.892 2084.13,353.42 1942.77,353.42 1942.77,394.892 "></polyline>
<path clip-path="url(#clip440)" d="M2107.68 356.876 L2136.92 356.876 L2136.92 360.811 L2124.65 360.811 L2124.65 391.436 L2119.95 391.436 L2119.95 360.811 L2107.68 360.811 L2107.68 356.876 Z" fill="#000000" fill-rule="nonzero" fill-opacity="1"></path><path clip-path="url(#clip440)" d="M2162.8 375.788 L2162.8 391.436 L2158.54 391.436 L2158.54 375.927 Q2158.54 372.246 2157.11 370.417 Q2155.67 368.589 2152.8 368.589 Q2149.35 368.589 2147.36 370.788 Q2145.37 372.987 2145.37 376.783 L2145.37 391.436 L2141.09 391.436 L2141.09 355.417 L2145.37 355.417 L2145.37 369.538 Q2146.9 367.2 2148.96 366.042 Q2151.04 364.885 2153.75 364.885 Q2158.22 364.885 2160.51 367.663 Q2162.8 370.417 2162.8 375.788 Z" fill="#000000" fill-rule="nonzero" fill-opacity="1"></path><path clip-path="url(#clip440)" d="M2186.32 369.491 Q2185.6 369.075 2184.74 368.89 Q2183.91 368.681 2182.89 368.681 Q2179.28 368.681 2177.34 371.042 Q2175.42 373.38 2175.42 377.778 L2175.42 391.436 L2171.13 391.436 L2171.13 365.51 L2175.42 365.51 L2175.42 369.538 Q2176.76 367.177 2178.91 366.042 Q2181.06 364.885 2184.14 364.885 Q2184.58 364.885 2185.12 364.954 Q2185.65 365.001 2186.3 365.116 L2186.32 369.491 Z" fill="#000000" fill-rule="nonzero" fill-opacity="1"></path><path clip-path="url(#clip440)" d="M2190.35 381.204 L2190.35 365.51 L2194.61 365.51 L2194.61 381.042 Q2194.61 384.723 2196.04 386.575 Q2197.48 388.403 2200.35 388.403 Q2203.8 388.403 2205.79 386.204 Q2207.8 384.005 2207.8 380.209 L2207.8 365.51 L2212.06 365.51 L2212.06 391.436 L2207.8 391.436 L2207.8 387.454 Q2206.25 389.815 2204.19 390.973 Q2202.15 392.107 2199.44 392.107 Q2194.98 392.107 2192.66 389.329 Q2190.35 386.551 2190.35 381.204 M2201.06 364.885 L2201.06 364.885 Z" fill="#000000" fill-rule="nonzero" fill-opacity="1"></path><path clip-path="url(#clip440)" d="M2237.36 366.274 L2237.36 370.302 Q2235.55 369.376 2233.61 368.913 Q2231.67 368.45 2229.58 368.45 Q2226.41 368.45 2224.81 369.422 Q2223.24 370.394 2223.24 372.339 Q2223.24 373.82 2224.37 374.677 Q2225.51 375.51 2228.93 376.274 L2230.39 376.598 Q2234.93 377.57 2236.83 379.352 Q2238.75 381.112 2238.75 384.283 Q2238.75 387.894 2235.88 390.001 Q2233.03 392.107 2228.03 392.107 Q2225.95 392.107 2223.68 391.69 Q2221.43 391.297 2218.93 390.487 L2218.93 386.089 Q2221.3 387.315 2223.59 387.94 Q2225.88 388.542 2228.12 388.542 Q2231.13 388.542 2232.75 387.524 Q2234.37 386.482 2234.37 384.607 Q2234.37 382.871 2233.19 381.945 Q2232.04 381.019 2228.08 380.163 L2226.6 379.815 Q2222.64 378.982 2220.88 377.269 Q2219.12 375.533 2219.12 372.524 Q2219.12 368.866 2221.71 366.876 Q2224.3 364.885 2229.07 364.885 Q2231.43 364.885 2233.52 365.232 Q2235.6 365.579 2237.36 366.274 Z" fill="#000000" fill-rule="nonzero" fill-opacity="1"></path><path clip-path="url(#clip440)" d="M2249.74 358.149 L2249.74 365.51 L2258.52 365.51 L2258.52 368.82 L2249.74 368.82 L2249.74 382.894 Q2249.74 386.065 2250.6 386.968 Q2251.48 387.871 2254.14 387.871 L2258.52 387.871 L2258.52 391.436 L2254.14 391.436 Q2249.21 391.436 2247.34 389.607 Q2245.46 387.755 2245.46 382.894 L2245.46 368.82 L2242.34 368.82 L2242.34 365.51 L2245.46 365.51 L2245.46 358.149 L2249.74 358.149 Z" fill="#000000" fill-rule="nonzero" fill-opacity="1"></path><path clip-path="url(#clip440)" d="M1082.49 1073.23 Q1088.36 1074.49 1091.65 1078.46 Q1094.97 1082.43 1094.97 1088.26 Q1094.97 1097.22 1088.81 1102.12 Q1082.65 1107.02 1071.31 1107.02 Q1067.5 1107.02 1063.45 1106.25 Q1059.44 1105.52 1055.15 1104.02 L1055.15 1096.12 Q1058.55 1098.11 1062.6 1099.12 Q1066.65 1100.13 1071.07 1100.13 Q1078.76 1100.13 1082.77 1097.09 Q1086.82 1094.06 1086.82 1088.26 Q1086.82 1082.92 1083.06 1079.92 Q1079.33 1076.88 1072.65 1076.88 L1065.6 1076.88 L1065.6 1070.16 L1072.97 1070.16 Q1079.01 1070.16 1082.21 1067.77 Q1085.41 1065.33 1085.41 1060.8 Q1085.41 1056.14 1082.09 1053.67 Q1078.8 1051.16 1072.65 1051.16 Q1069.28 1051.16 1065.44 1051.89 Q1061.59 1052.61 1056.97 1054.15 L1056.97 1046.86 Q1061.63 1045.57 1065.68 1044.92 Q1069.77 1044.27 1073.38 1044.27 Q1082.69 1044.27 1088.12 1048.52 Q1093.55 1052.74 1093.55 1059.95 Q1093.55 1064.97 1090.67 1068.45 Q1087.8 1071.9 1082.49 1073.23 Z" fill="#000000" fill-rule="nonzero" fill-opacity="1"></path><path clip-path="url(#clip440)" d="M1127.98 1050.75 Q1121.66 1050.75 1118.46 1056.99 Q1115.3 1063.19 1115.3 1075.66 Q1115.3 1088.1 1118.46 1094.34 Q1121.66 1100.54 1127.98 1100.54 Q1134.34 1100.54 1137.5 1094.34 Q1140.7 1088.1 1140.7 1075.66 Q1140.7 1063.19 1137.5 1056.99 Q1134.34 1050.75 1127.98 1050.75 M1127.98 1044.27 Q1138.15 1044.27 1143.5 1052.33 Q1148.88 1060.35 1148.88 1075.66 Q1148.88 1090.94 1143.5 1099 Q1138.15 1107.02 1127.98 1107.02 Q1117.81 1107.02 1112.43 1099 Q1107.08 1090.94 1107.08 1075.66 Q1107.08 1060.35 1112.43 1052.33 Q1117.81 1044.27 1127.98 1044.27 Z" fill="#000000" fill-rule="nonzero" fill-opacity="1"></path><path clip-path="url(#clip440)" d="M1188.91 1045.36 L1199.93 1045.36 L1226.74 1095.96 L1226.74 1045.36 L1234.68 1045.36 L1234.68 1105.84 L1223.66 1105.84 L1196.85 1055.25 L1196.85 1105.84 L1188.91 1105.84 L1188.91 1045.36 Z" fill="#000000" fill-rule="nonzero" fill-opacity="1"></path><path clip-path="url(#clip440)" d="M1081.32 831.802 L1060.66 864.088 L1081.32 864.088 L1081.32 831.802 M1079.17 824.673 L1089.46 824.673 L1089.46 864.088 L1098.09 864.088 L1098.09 870.894 L1089.46 870.894 L1089.46 885.153 L1081.32 885.153 L1081.32 870.894 L1054.01 870.894 L1054.01 862.994 L1079.17 824.673 Z" fill="#000000" fill-rule="nonzero" fill-opacity="1"></path><path clip-path="url(#clip440)" d="M1129.12 830.06 Q1122.8 830.06 1119.6 836.299 Q1116.44 842.497 1116.44 854.974 Q1116.44 867.41 1119.6 873.648 Q1122.8 879.846 1129.12 879.846 Q1135.48 879.846 1138.64 873.648 Q1141.84 867.41 1141.84 854.974 Q1141.84 842.497 1138.64 836.299 Q1135.48 830.06 1129.12 830.06 M1129.12 823.579 Q1139.28 823.579 1144.63 831.64 Q1150.02 839.661 1150.02 854.974 Q1150.02 870.245 1144.63 878.307 Q1139.28 886.328 1129.12 886.328 Q1118.95 886.328 1113.56 878.307 Q1108.21 870.245 1108.21 854.974 Q1108.21 839.661 1113.56 831.64 Q1118.95 823.579 1129.12 823.579 Z" fill="#000000" fill-rule="nonzero" fill-opacity="1"></path><path clip-path="url(#clip440)" d="M1190.04 824.673 L1201.06 824.673 L1227.88 875.269 L1227.88 824.673 L1235.82 824.673 L1235.82 885.153 L1224.8 885.153 L1197.98 834.557 L1197.98 885.153 L1190.04 885.153 L1190.04 824.673 Z" fill="#000000" fill-rule="nonzero" fill-opacity="1"></path><path clip-path="url(#clip440)" d="M2189.94 427.269 Q2184.11 427.269 2180.75 430.388 Q2177.42 433.507 2177.42 438.976 Q2177.42 444.445 2180.75 447.564 Q2184.11 450.683 2189.94 450.683 Q2195.78 450.683 2199.14 447.564 Q2202.5 444.404 2202.5 438.976 Q2202.5 433.507 2199.14 430.388 Q2195.82 427.269 2189.94 427.269 M2181.76 423.785 Q2176.49 422.489 2173.54 418.883 Q2170.62 415.278 2170.62 410.093 Q2170.62 402.842 2175.76 398.629 Q2180.95 394.416 2189.94 394.416 Q2198.98 394.416 2204.12 398.629 Q2209.26 402.842 2209.26 410.093 Q2209.26 415.278 2206.31 418.883 Q2203.39 422.489 2198.17 423.785 Q2204.08 425.162 2207.36 429.173 Q2210.68 433.183 2210.68 438.976 Q2210.68 447.766 2205.29 452.465 Q2199.95 457.164 2189.94 457.164 Q2179.94 457.164 2174.55 452.465 Q2169.2 447.766 2169.2 438.976 Q2169.2 433.183 2172.52 429.173 Q2175.84 425.162 2181.76 423.785 M2178.76 410.863 Q2178.76 415.562 2181.68 418.195 Q2184.64 420.828 2189.94 420.828 Q2195.21 420.828 2198.17 418.195 Q2201.16 415.562 2201.16 410.863 Q2201.16 406.164 2198.17 403.53 Q2195.21 400.897 2189.94 400.897 Q2184.64 400.897 2181.68 403.53 Q2178.76 406.164 2178.76 410.863 Z" fill="#000000" fill-rule="nonzero" fill-opacity="1"></path><path clip-path="url(#clip440)" d="M2242.73 400.897 Q2236.41 400.897 2233.21 407.136 Q2230.05 413.334 2230.05 425.81 Q2230.05 438.247 2233.21 444.485 Q2236.41 450.683 2242.73 450.683 Q2249.09 450.683 2252.24 444.485 Q2255.44 438.247 2255.44 425.81 Q2255.44 413.334 2252.24 407.136 Q2249.09 400.897 2242.73 400.897 M2242.73 394.416 Q2252.89 394.416 2258.24 402.477 Q2263.63 410.498 2263.63 425.81 Q2263.63 441.082 2258.24 449.144 Q2252.89 457.164 2242.73 457.164 Q2232.56 457.164 2227.17 449.144 Q2221.82 441.082 2221.82 425.81 Q2221.82 410.498 2227.17 402.477 Q2232.56 394.416 2242.73 394.416 Z" fill="#000000" fill-rule="nonzero" fill-opacity="1"></path><path clip-path="url(#clip440)" d="M2303.65 395.51 L2314.67 395.51 L2341.49 446.105 L2341.49 395.51 L2349.43 395.51 L2349.43 455.99 L2338.41 455.99 L2311.59 405.394 L2311.59 455.99 L2303.65 455.99 L2303.65 395.51 Z" fill="#000000" fill-rule="nonzero" fill-opacity="1"></path><path clip-path="url(#clip440)" d="M2172.89 234.043 L2172.89 226.589 Q2175.97 228.048 2179.13 228.817 Q2182.29 229.587 2185.32 229.587 Q2193.43 229.587 2197.68 224.159 Q2201.97 218.69 2202.58 207.591 Q2200.23 211.074 2196.63 212.938 Q2193.02 214.801 2188.65 214.801 Q2179.57 214.801 2174.26 209.333 Q2169 203.823 2169 194.304 Q2169 184.987 2174.51 179.356 Q2180.02 173.725 2189.17 173.725 Q2199.66 173.725 2205.17 181.786 Q2210.72 189.807 2210.72 205.12 Q2210.72 219.419 2203.92 227.967 Q2197.15 236.474 2185.69 236.474 Q2182.61 236.474 2179.45 235.866 Q2176.29 235.258 2172.89 234.043 M2189.17 208.401 Q2194.68 208.401 2197.88 204.634 Q2201.12 200.866 2201.12 194.304 Q2201.12 187.782 2197.88 184.014 Q2194.68 180.207 2189.17 180.207 Q2183.66 180.207 2180.42 184.014 Q2177.22 187.782 2177.22 194.304 Q2177.22 200.866 2180.42 204.634 Q2183.66 208.401 2189.17 208.401 Z" fill="#000000" fill-rule="nonzero" fill-opacity="1"></path><path clip-path="url(#clip440)" d="M2242.93 180.207 Q2236.61 180.207 2233.41 186.445 Q2230.25 192.643 2230.25 205.12 Q2230.25 217.556 2233.41 223.794 Q2236.61 229.992 2242.93 229.992 Q2249.29 229.992 2252.45 223.794 Q2255.65 217.556 2255.65 205.12 Q2255.65 192.643 2252.45 186.445 Q2249.29 180.207 2242.93 180.207 M2242.93 173.725 Q2253.1 173.725 2258.44 181.786 Q2263.83 189.807 2263.83 205.12 Q2263.83 220.392 2258.44 228.453 Q2253.1 236.474 2242.93 236.474 Q2232.76 236.474 2227.37 228.453 Q2222.02 220.392 2222.02 205.12 Q2222.02 189.807 2227.37 181.786 Q2232.76 173.725 2242.93 173.725 Z" fill="#000000" fill-rule="nonzero" fill-opacity="1"></path><path clip-path="url(#clip440)" d="M2303.85 174.819 L2314.87 174.819 L2341.69 225.415 L2341.69 174.819 L2349.63 174.819 L2349.63 235.299 L2338.61 235.299 L2311.79 184.703 L2311.79 235.299 L2303.85 235.299 L2303.85 174.819 Z" fill="#000000" fill-rule="nonzero" fill-opacity="1"></path></svg>