<svg xmlns="http://www.w3.org/2000/svg" xmlns:xlink="http://www.w3.org/1999/xlink" width="600" height="400" viewBox="0 0 2400 1600">
<defs>
  <clipPath id="clip130">
    <rect x="0" y="0" width="2400" height="1600"></rect>
  </clipPath>
</defs>
<path clip-path="url(#clip130)" d="M0 1600 L2400 1600 L2400 0 L0 0  Z" fill="#ffffff" fill-rule="evenodd" fill-opacity="1"></path>
<defs>
  <clipPath id="clip131">
    <rect x="480" y="0" width="1681" height="1600"></rect>
  </clipPath>
</defs>
<path clip-path="url(#clip130)" d="M254.26 1486.45 L2352.76 1486.45 L2352.76 47.2441 L254.26 47.2441  Z" fill="#ffffff" fill-rule="evenodd" fill-opacity="1"></path>
<defs>
  <clipPath id="clip132">
    <rect x="254" y="47" width="2099" height="1440"></rect>
  </clipPath>
</defs>
<polyline clip-path="url(#clip132)" style="stroke:#000000; stroke-linecap:round; stroke-linejoin:round; stroke-width:2; stroke-opacity:0.1; fill:none" points="313.651,1486.45 313.651,47.2441 "></polyline>
<polyline clip-path="url(#clip132)" style="stroke:#000000; stroke-linecap:round; stroke-linejoin:round; stroke-width:2; stroke-opacity:0.1; fill:none" points="710.652,1486.45 710.652,47.2441 "></polyline>
<polyline clip-path="url(#clip132)" style="stroke:#000000; stroke-linecap:round; stroke-linejoin:round; stroke-width:2; stroke-opacity:0.1; fill:none" points="1107.65,1486.45 1107.65,47.2441 "></polyline>
<polyline clip-path="url(#clip132)" style="stroke:#000000; stroke-linecap:round; stroke-linejoin:round; stroke-width:2; stroke-opacity:0.1; fill:none" points="1504.66,1486.45 1504.66,47.2441 "></polyline>
<polyline clip-path="url(#clip132)" style="stroke:#000000; stroke-linecap:round; stroke-linejoin:round; stroke-width:2; stroke-opacity:0.1; fill:none" points="1901.66,1486.45 1901.66,47.2441 "></polyline>
<polyline clip-path="url(#clip132)" style="stroke:#000000; stroke-linecap:round; stroke-linejoin:round; stroke-width:2; stroke-opacity:0.1; fill:none" points="2298.66,1486.45 2298.66,47.2441 "></polyline>
<polyline clip-path="url(#clip130)" style="stroke:#000000; stroke-linecap:round; stroke-linejoin:round; stroke-width:4; stroke-opacity:1; fill:none" points="254.26,1486.45 2352.76,1486.45 "></polyline>
<polyline clip-path="url(#clip130)" style="stroke:#000000; stroke-linecap:round; stroke-linejoin:round; stroke-width:4; stroke-opacity:1; fill:none" points="313.651,1486.45 313.651,1467.55 "></polyline>
<polyline clip-path="url(#clip130)" style="stroke:#000000; stroke-linecap:round; stroke-linejoin:round; stroke-width:4; stroke-opacity:1; fill:none" points="710.652,1486.45 710.652,1467.55 "></polyline>
<polyline clip-path="url(#clip130)" style="stroke:#000000; stroke-linecap:round; stroke-linejoin:round; stroke-width:4; stroke-opacity:1; fill:none" points="1107.65,1486.45 1107.65,1467.55 "></polyline>
<polyline clip-path="url(#clip130)" style="stroke:#000000; stroke-linecap:round; stroke-linejoin:round; stroke-width:4; stroke-opacity:1; fill:none" points="1504.66,1486.45 1504.66,1467.55 "></polyline>
<polyline clip-path="url(#clip130)" style="stroke:#000000; stroke-linecap:round; stroke-linejoin:round; stroke-width:4; stroke-opacity:1; fill:none" points="1901.66,1486.45 1901.66,1467.55 "></polyline>
<polyline clip-path="url(#clip130)" style="stroke:#000000; stroke-linecap:round; stroke-linejoin:round; stroke-width:4; stroke-opacity:1; fill:none" points="2298.66,1486.45 2298.66,1467.55 "></polyline>
<path clip-path="url(#clip130)" d="M313.651 1517.37 Q310.04 1517.37 308.211 1520.93 Q306.406 1524.47 306.406 1531.6 Q306.406 1538.71 308.211 1542.27 Q310.04 1545.82 313.651 1545.82 Q317.285 1545.82 319.091 1542.27 Q320.92 1538.71 320.92 1531.6 Q320.92 1524.47 319.091 1520.93 Q317.285 1517.37 313.651 1517.37 M313.651 1513.66 Q319.461 1513.66 322.517 1518.27 Q325.596 1522.85 325.596 1531.6 Q325.596 1540.33 322.517 1544.94 Q319.461 1549.52 313.651 1549.52 Q307.841 1549.52 304.762 1544.94 Q301.707 1540.33 301.707 1531.6 Q301.707 1522.85 304.762 1518.27 Q307.841 1513.66 313.651 1513.66 Z" fill="#000000" fill-rule="nonzero" fill-opacity="1"></path><path clip-path="url(#clip130)" d="M701.034 1544.91 L708.673 1544.91 L708.673 1518.55 L700.363 1520.21 L700.363 1515.95 L708.627 1514.29 L713.303 1514.29 L713.303 1544.91 L720.942 1544.91 L720.942 1548.85 L701.034 1548.85 L701.034 1544.91 Z" fill="#000000" fill-rule="nonzero" fill-opacity="1"></path><path clip-path="url(#clip130)" d="M1102.31 1544.91 L1118.63 1544.91 L1118.63 1548.85 L1096.68 1548.85 L1096.68 1544.91 Q1099.34 1542.16 1103.93 1537.53 Q1108.53 1532.88 1109.71 1531.53 Q1111.96 1529.01 1112.84 1527.27 Q1113.74 1525.51 1113.74 1523.82 Q1113.74 1521.07 1111.8 1519.33 Q1109.88 1517.6 1106.77 1517.6 Q1104.58 1517.6 1102.12 1518.36 Q1099.69 1519.13 1096.91 1520.68 L1096.91 1515.95 Q1099.74 1514.82 1102.19 1514.24 Q1104.64 1513.66 1106.68 1513.66 Q1112.05 1513.66 1115.25 1516.35 Q1118.44 1519.03 1118.44 1523.52 Q1118.44 1525.65 1117.63 1527.57 Q1116.84 1529.47 1114.74 1532.07 Q1114.16 1532.74 1111.06 1535.95 Q1107.95 1539.15 1102.31 1544.91 Z" fill="#000000" fill-rule="nonzero" fill-opacity="1"></path><path clip-path="url(#clip130)" d="M1508.9 1530.21 Q1512.26 1530.93 1514.13 1533.2 Q1516.03 1535.47 1516.03 1538.8 Q1516.03 1543.92 1512.51 1546.72 Q1509 1549.52 1502.51 1549.52 Q1500.34 1549.52 1498.02 1549.08 Q1495.73 1548.66 1493.28 1547.81 L1493.28 1543.29 Q1495.22 1544.43 1497.54 1545.01 Q1499.85 1545.58 1502.38 1545.58 Q1506.77 1545.58 1509.06 1543.85 Q1511.38 1542.11 1511.38 1538.8 Q1511.38 1535.75 1509.23 1534.03 Q1507.1 1532.3 1503.28 1532.3 L1499.25 1532.3 L1499.25 1528.45 L1503.46 1528.45 Q1506.91 1528.45 1508.74 1527.09 Q1510.57 1525.7 1510.57 1523.11 Q1510.57 1520.45 1508.67 1519.03 Q1506.8 1517.6 1503.28 1517.6 Q1501.36 1517.6 1499.16 1518.01 Q1496.96 1518.43 1494.32 1519.31 L1494.32 1515.14 Q1496.98 1514.4 1499.3 1514.03 Q1501.63 1513.66 1503.69 1513.66 Q1509.02 1513.66 1512.12 1516.09 Q1515.22 1518.5 1515.22 1522.62 Q1515.22 1525.49 1513.58 1527.48 Q1511.94 1529.45 1508.9 1530.21 Z" fill="#000000" fill-rule="nonzero" fill-opacity="1"></path><path clip-path="url(#clip130)" d="M1904.67 1518.36 L1892.86 1536.81 L1904.67 1536.81 L1904.67 1518.36 M1903.44 1514.29 L1909.32 1514.29 L1909.32 1536.81 L1914.25 1536.81 L1914.25 1540.7 L1909.32 1540.7 L1909.32 1548.85 L1904.67 1548.85 L1904.67 1540.7 L1889.06 1540.7 L1889.06 1536.19 L1903.44 1514.29 Z" fill="#000000" fill-rule="nonzero" fill-opacity="1"></path><path clip-path="url(#clip130)" d="M2288.94 1514.29 L2307.29 1514.29 L2307.29 1518.22 L2293.22 1518.22 L2293.22 1526.7 Q2294.24 1526.35 2295.26 1526.19 Q2296.27 1526 2297.29 1526 Q2303.08 1526 2306.46 1529.17 Q2309.84 1532.34 2309.84 1537.76 Q2309.84 1543.34 2306.37 1546.44 Q2302.89 1549.52 2296.57 1549.52 Q2294.4 1549.52 2292.13 1549.15 Q2289.88 1548.78 2287.48 1548.04 L2287.48 1543.34 Q2289.56 1544.47 2291.78 1545.03 Q2294.01 1545.58 2296.48 1545.58 Q2300.49 1545.58 2302.82 1543.48 Q2305.16 1541.37 2305.16 1537.76 Q2305.16 1534.15 2302.82 1532.04 Q2300.49 1529.94 2296.48 1529.94 Q2294.61 1529.94 2292.73 1530.35 Q2290.88 1530.77 2288.94 1531.65 L2288.94 1514.29 Z" fill="#000000" fill-rule="nonzero" fill-opacity="1"></path><polyline clip-path="url(#clip132)" style="stroke:#000000; stroke-linecap:round; stroke-linejoin:round; stroke-width:2; stroke-opacity:0.1; fill:none" points="254.26,1350.91 2352.76,1350.91 "></polyline>
<polyline clip-path="url(#clip132)" style="stroke:#000000; stroke-linecap:round; stroke-linejoin:round; stroke-width:2; stroke-opacity:0.1; fill:none" points="254.26,1156.23 2352.76,1156.23 "></polyline>
<polyline clip-path="url(#clip132)" style="stroke:#000000; stroke-linecap:round; stroke-linejoin:round; stroke-width:2; stroke-opacity:0.1; fill:none" points="254.26,961.536 2352.76,961.536 "></polyline>
<polyline clip-path="url(#clip132)" style="stroke:#000000; stroke-linecap:round; stroke-linejoin:round; stroke-width:2; stroke-opacity:0.1; fill:none" points="254.26,766.846 2352.76,766.846 "></polyline>
<polyline clip-path="url(#clip132)" style="stroke:#000000; stroke-linecap:round; stroke-linejoin:round; stroke-width:2; stroke-opacity:0.1; fill:none" points="254.26,572.156 2352.76,572.156 "></polyline>
<polyline clip-path="url(#clip132)" style="stroke:#000000; stroke-linecap:round; stroke-linejoin:round; stroke-width:2; stroke-opacity:0.1; fill:none" points="254.26,377.467 2352.76,377.467 "></polyline>
<polyline clip-path="url(#clip132)" style="stroke:#000000; stroke-linecap:round; stroke-linejoin:round; stroke-width:2; stroke-opacity:0.1; fill:none" points="254.26,182.777 2352.76,182.777 "></polyline>
<polyline clip-path="url(#clip130)" style="stroke:#000000; stroke-linecap:round; stroke-linejoin:round; stroke-width:4; stroke-opacity:1; fill:none" points="254.26,1486.45 254.26,47.2441 "></polyline>
<polyline clip-path="url(#clip130)" style="stroke:#000000; stroke-linecap:round; stroke-linejoin:round; stroke-width:4; stroke-opacity:1; fill:none" points="254.26,1350.91 273.157,1350.91 "></polyline>
<polyline clip-path="url(#clip130)" style="stroke:#000000; stroke-linecap:round; stroke-linejoin:round; stroke-width:4; stroke-opacity:1; fill:none" points="254.26,1156.23 273.157,1156.23 "></polyline>
<polyline clip-path="url(#clip130)" style="stroke:#000000; stroke-linecap:round; stroke-linejoin:round; stroke-width:4; stroke-opacity:1; fill:none" points="254.26,961.536 273.157,961.536 "></polyline>
<polyline clip-path="url(#clip130)" style="stroke:#000000; stroke-linecap:round; stroke-linejoin:round; stroke-width:4; stroke-opacity:1; fill:none" points="254.26,766.846 273.157,766.846 "></polyline>
<polyline clip-path="url(#clip130)" style="stroke:#000000; stroke-linecap:round; stroke-linejoin:round; stroke-width:4; stroke-opacity:1; fill:none" points="254.26,572.156 273.157,572.156 "></polyline>
<polyline clip-path="url(#clip130)" style="stroke:#000000; stroke-linecap:round; stroke-linejoin:round; stroke-width:4; stroke-opacity:1; fill:none" points="254.26,377.467 273.157,377.467 "></polyline>
<polyline clip-path="url(#clip130)" style="stroke:#000000; stroke-linecap:round; stroke-linejoin:round; stroke-width:4; stroke-opacity:1; fill:none" points="254.26,182.777 273.157,182.777 "></polyline>
<path clip-path="url(#clip130)" d="M51.9875 1351.37 L81.6633 1351.37 L81.6633 1355.3 L51.9875 1355.3 L51.9875 1351.37 Z" fill="#000000" fill-rule="nonzero" fill-opacity="1"></path><path clip-path="url(#clip130)" d="M101.756 1336.71 Q98.1447 1336.71 96.316 1340.28 Q94.5104 1343.82 94.5104 1350.95 Q94.5104 1358.06 96.316 1361.62 Q98.1447 1365.16 101.756 1365.16 Q105.39 1365.16 107.196 1361.62 Q109.024 1358.06 109.024 1350.95 Q109.024 1343.82 107.196 1340.28 Q105.39 1336.71 101.756 1336.71 M101.756 1333.01 Q107.566 1333.01 110.621 1337.62 Q113.7 1342.2 113.7 1350.95 Q113.7 1359.68 110.621 1364.28 Q107.566 1368.87 101.756 1368.87 Q95.9456 1368.87 92.8669 1364.28 Q89.8114 1359.68 89.8114 1350.95 Q89.8114 1342.2 92.8669 1337.62 Q95.9456 1333.01 101.756 1333.01 Z" fill="#000000" fill-rule="nonzero" fill-opacity="1"></path><path clip-path="url(#clip130)" d="M121.918 1362.32 L126.802 1362.32 L126.802 1368.19 L121.918 1368.19 L121.918 1362.32 Z" fill="#000000" fill-rule="nonzero" fill-opacity="1"></path><path clip-path="url(#clip130)" d="M146.987 1336.71 Q143.376 1336.71 141.547 1340.28 Q139.742 1343.82 139.742 1350.95 Q139.742 1358.06 141.547 1361.62 Q143.376 1365.16 146.987 1365.16 Q150.621 1365.16 152.427 1361.62 Q154.255 1358.06 154.255 1350.95 Q154.255 1343.82 152.427 1340.28 Q150.621 1336.71 146.987 1336.71 M146.987 1333.01 Q152.797 1333.01 155.853 1337.62 Q158.931 1342.2 158.931 1350.95 Q158.931 1359.68 155.853 1364.28 Q152.797 1368.87 146.987 1368.87 Q141.177 1368.87 138.098 1364.28 Q135.043 1359.68 135.043 1350.95 Q135.043 1342.2 138.098 1337.62 Q141.177 1333.01 146.987 1333.01 Z" fill="#000000" fill-rule="nonzero" fill-opacity="1"></path><path clip-path="url(#clip130)" d="M167.959 1364.26 L175.598 1364.26 L175.598 1337.89 L167.288 1339.56 L167.288 1335.3 L175.552 1333.63 L180.228 1333.63 L180.228 1364.26 L187.866 1364.26 L187.866 1368.19 L167.959 1368.19 L167.959 1364.26 Z" fill="#000000" fill-rule="nonzero" fill-opacity="1"></path><path clip-path="url(#clip130)" d="M197.357 1333.63 L215.713 1333.63 L215.713 1337.57 L201.639 1337.57 L201.639 1346.04 Q202.658 1345.69 203.676 1345.53 Q204.695 1345.35 205.714 1345.35 Q211.501 1345.35 214.88 1348.52 Q218.26 1351.69 218.26 1357.11 Q218.26 1362.69 214.788 1365.79 Q211.315 1368.87 204.996 1368.87 Q202.82 1368.87 200.552 1368.5 Q198.306 1368.13 195.899 1367.38 L195.899 1362.69 Q197.982 1363.82 200.204 1364.38 Q202.426 1364.93 204.903 1364.93 Q208.908 1364.93 211.246 1362.82 Q213.584 1360.72 213.584 1357.11 Q213.584 1353.5 211.246 1351.39 Q208.908 1349.28 204.903 1349.28 Q203.028 1349.28 201.153 1349.7 Q199.302 1350.12 197.357 1351 L197.357 1333.63 Z" fill="#000000" fill-rule="nonzero" fill-opacity="1"></path><path clip-path="url(#clip130)" d="M50.9921 1156.68 L80.6679 1156.68 L80.6679 1160.61 L50.9921 1160.61 L50.9921 1156.68 Z" fill="#000000" fill-rule="nonzero" fill-opacity="1"></path><path clip-path="url(#clip130)" d="M100.76 1142.02 Q97.1493 1142.02 95.3206 1145.59 Q93.515 1149.13 93.515 1156.26 Q93.515 1163.37 95.3206 1166.93 Q97.1493 1170.47 100.76 1170.47 Q104.395 1170.47 106.2 1166.93 Q108.029 1163.37 108.029 1156.26 Q108.029 1149.13 106.2 1145.59 Q104.395 1142.02 100.76 1142.02 M100.76 1138.32 Q106.571 1138.32 109.626 1142.93 Q112.705 1147.51 112.705 1156.26 Q112.705 1164.99 109.626 1169.59 Q106.571 1174.18 100.76 1174.18 Q94.9502 1174.18 91.8715 1169.59 Q88.816 1164.99 88.816 1156.26 Q88.816 1147.51 91.8715 1142.93 Q94.9502 1138.32 100.76 1138.32 Z" fill="#000000" fill-rule="nonzero" fill-opacity="1"></path><path clip-path="url(#clip130)" d="M120.922 1167.63 L125.807 1167.63 L125.807 1173.51 L120.922 1173.51 L120.922 1167.63 Z" fill="#000000" fill-rule="nonzero" fill-opacity="1"></path><path clip-path="url(#clip130)" d="M145.992 1142.02 Q142.381 1142.02 140.552 1145.59 Q138.746 1149.13 138.746 1156.26 Q138.746 1163.37 140.552 1166.93 Q142.381 1170.47 145.992 1170.47 Q149.626 1170.47 151.431 1166.93 Q153.26 1163.37 153.26 1156.26 Q153.26 1149.13 151.431 1145.59 Q149.626 1142.02 145.992 1142.02 M145.992 1138.32 Q151.802 1138.32 154.857 1142.93 Q157.936 1147.51 157.936 1156.26 Q157.936 1164.99 154.857 1169.59 Q151.802 1174.18 145.992 1174.18 Q140.181 1174.18 137.103 1169.59 Q134.047 1164.99 134.047 1156.26 Q134.047 1147.51 137.103 1142.93 Q140.181 1138.32 145.992 1138.32 Z" fill="#000000" fill-rule="nonzero" fill-opacity="1"></path><path clip-path="url(#clip130)" d="M166.964 1169.57 L174.603 1169.57 L174.603 1143.2 L166.292 1144.87 L166.292 1140.61 L174.556 1138.95 L179.232 1138.95 L179.232 1169.57 L186.871 1169.57 L186.871 1173.51 L166.964 1173.51 L166.964 1169.57 Z" fill="#000000" fill-rule="nonzero" fill-opacity="1"></path><path clip-path="url(#clip130)" d="M206.315 1142.02 Q202.704 1142.02 200.876 1145.59 Q199.07 1149.13 199.07 1156.26 Q199.07 1163.37 200.876 1166.93 Q202.704 1170.47 206.315 1170.47 Q209.95 1170.47 211.755 1166.93 Q213.584 1163.37 213.584 1156.26 Q213.584 1149.13 211.755 1145.59 Q209.95 1142.02 206.315 1142.02 M206.315 1138.32 Q212.126 1138.32 215.181 1142.93 Q218.26 1147.51 218.26 1156.26 Q218.26 1164.99 215.181 1169.59 Q212.126 1174.18 206.315 1174.18 Q200.505 1174.18 197.427 1169.59 Q194.371 1164.99 194.371 1156.26 Q194.371 1147.51 197.427 1142.93 Q200.505 1138.32 206.315 1138.32 Z" fill="#000000" fill-rule="nonzero" fill-opacity="1"></path><path clip-path="url(#clip130)" d="M51.9875 961.987 L81.6633 961.987 L81.6633 965.922 L51.9875 965.922 L51.9875 961.987 Z" fill="#000000" fill-rule="nonzero" fill-opacity="1"></path><path clip-path="url(#clip130)" d="M101.756 947.334 Q98.1447 947.334 96.316 950.899 Q94.5104 954.441 94.5104 961.57 Q94.5104 968.677 96.316 972.242 Q98.1447 975.783 101.756 975.783 Q105.39 975.783 107.196 972.242 Q109.024 968.677 109.024 961.57 Q109.024 954.441 107.196 950.899 Q105.39 947.334 101.756 947.334 M101.756 943.631 Q107.566 943.631 110.621 948.237 Q113.7 952.82 113.7 961.57 Q113.7 970.297 110.621 974.904 Q107.566 979.487 101.756 979.487 Q95.9456 979.487 92.8669 974.904 Q89.8114 970.297 89.8114 961.57 Q89.8114 952.82 92.8669 948.237 Q95.9456 943.631 101.756 943.631 Z" fill="#000000" fill-rule="nonzero" fill-opacity="1"></path><path clip-path="url(#clip130)" d="M121.918 972.936 L126.802 972.936 L126.802 978.816 L121.918 978.816 L121.918 972.936 Z" fill="#000000" fill-rule="nonzero" fill-opacity="1"></path><path clip-path="url(#clip130)" d="M146.987 947.334 Q143.376 947.334 141.547 950.899 Q139.742 954.441 139.742 961.57 Q139.742 968.677 141.547 972.242 Q143.376 975.783 146.987 975.783 Q150.621 975.783 152.427 972.242 Q154.255 968.677 154.255 961.57 Q154.255 954.441 152.427 950.899 Q150.621 947.334 146.987 947.334 M146.987 943.631 Q152.797 943.631 155.853 948.237 Q158.931 952.82 158.931 961.57 Q158.931 970.297 155.853 974.904 Q152.797 979.487 146.987 979.487 Q141.177 979.487 138.098 974.904 Q135.043 970.297 135.043 961.57 Q135.043 952.82 138.098 948.237 Q141.177 943.631 146.987 943.631 Z" fill="#000000" fill-rule="nonzero" fill-opacity="1"></path><path clip-path="url(#clip130)" d="M177.149 947.334 Q173.538 947.334 171.709 950.899 Q169.904 954.441 169.904 961.57 Q169.904 968.677 171.709 972.242 Q173.538 975.783 177.149 975.783 Q180.783 975.783 182.589 972.242 Q184.417 968.677 184.417 961.57 Q184.417 954.441 182.589 950.899 Q180.783 947.334 177.149 947.334 M177.149 943.631 Q182.959 943.631 186.015 948.237 Q189.093 952.82 189.093 961.57 Q189.093 970.297 186.015 974.904 Q182.959 979.487 177.149 979.487 Q171.339 979.487 168.26 974.904 Q165.204 970.297 165.204 961.57 Q165.204 952.82 168.26 948.237 Q171.339 943.631 177.149 943.631 Z" fill="#000000" fill-rule="nonzero" fill-opacity="1"></path><path clip-path="url(#clip130)" d="M197.357 944.256 L215.713 944.256 L215.713 948.191 L201.639 948.191 L201.639 956.663 Q202.658 956.316 203.676 956.154 Q204.695 955.968 205.714 955.968 Q211.501 955.968 214.88 959.14 Q218.26 962.311 218.26 967.728 Q218.26 973.306 214.788 976.408 Q211.315 979.487 204.996 979.487 Q202.82 979.487 200.552 979.116 Q198.306 978.746 195.899 978.005 L195.899 973.306 Q197.982 974.441 200.204 974.996 Q202.426 975.552 204.903 975.552 Q208.908 975.552 211.246 973.445 Q213.584 971.339 213.584 967.728 Q213.584 964.117 211.246 962.01 Q208.908 959.904 204.903 959.904 Q203.028 959.904 201.153 960.32 Q199.302 960.737 197.357 961.617 L197.357 944.256 Z" fill="#000000" fill-rule="nonzero" fill-opacity="1"></path><path clip-path="url(#clip130)" d="M100.76 752.645 Q97.1493 752.645 95.3206 756.209 Q93.515 759.751 93.515 766.881 Q93.515 773.987 95.3206 777.552 Q97.1493 781.094 100.76 781.094 Q104.395 781.094 106.2 777.552 Q108.029 773.987 108.029 766.881 Q108.029 759.751 106.2 756.209 Q104.395 752.645 100.76 752.645 M100.76 748.941 Q106.571 748.941 109.626 753.547 Q112.705 758.131 112.705 766.881 Q112.705 775.608 109.626 780.214 Q106.571 784.797 100.76 784.797 Q94.9502 784.797 91.8715 780.214 Q88.816 775.608 88.816 766.881 Q88.816 758.131 91.8715 753.547 Q94.9502 748.941 100.76 748.941 Z" fill="#000000" fill-rule="nonzero" fill-opacity="1"></path><path clip-path="url(#clip130)" d="M120.922 778.246 L125.807 778.246 L125.807 784.126 L120.922 784.126 L120.922 778.246 Z" fill="#000000" fill-rule="nonzero" fill-opacity="1"></path><path clip-path="url(#clip130)" d="M145.992 752.645 Q142.381 752.645 140.552 756.209 Q138.746 759.751 138.746 766.881 Q138.746 773.987 140.552 777.552 Q142.381 781.094 145.992 781.094 Q149.626 781.094 151.431 777.552 Q153.26 773.987 153.26 766.881 Q153.26 759.751 151.431 756.209 Q149.626 752.645 145.992 752.645 M145.992 748.941 Q151.802 748.941 154.857 753.547 Q157.936 758.131 157.936 766.881 Q157.936 775.608 154.857 780.214 Q151.802 784.797 145.992 784.797 Q140.181 784.797 137.103 780.214 Q134.047 775.608 134.047 766.881 Q134.047 758.131 137.103 753.547 Q140.181 748.941 145.992 748.941 Z" fill="#000000" fill-rule="nonzero" fill-opacity="1"></path><path clip-path="url(#clip130)" d="M176.153 752.645 Q172.542 752.645 170.714 756.209 Q168.908 759.751 168.908 766.881 Q168.908 773.987 170.714 777.552 Q172.542 781.094 176.153 781.094 Q179.788 781.094 181.593 777.552 Q183.422 773.987 183.422 766.881 Q183.422 759.751 181.593 756.209 Q179.788 752.645 176.153 752.645 M176.153 748.941 Q181.964 748.941 185.019 753.547 Q188.098 758.131 188.098 766.881 Q188.098 775.608 185.019 780.214 Q181.964 784.797 176.153 784.797 Q170.343 784.797 167.265 780.214 Q164.209 775.608 164.209 766.881 Q164.209 758.131 167.265 753.547 Q170.343 748.941 176.153 748.941 Z" fill="#000000" fill-rule="nonzero" fill-opacity="1"></path><path clip-path="url(#clip130)" d="M206.315 752.645 Q202.704 752.645 200.876 756.209 Q199.07 759.751 199.07 766.881 Q199.07 773.987 200.876 777.552 Q202.704 781.094 206.315 781.094 Q209.95 781.094 211.755 777.552 Q213.584 773.987 213.584 766.881 Q213.584 759.751 211.755 756.209 Q209.95 752.645 206.315 752.645 M206.315 748.941 Q212.126 748.941 215.181 753.547 Q218.26 758.131 218.26 766.881 Q218.26 775.608 215.181 780.214 Q212.126 784.797 206.315 784.797 Q200.505 784.797 197.427 780.214 Q194.371 775.608 194.371 766.881 Q194.371 758.131 197.427 753.547 Q200.505 748.941 206.315 748.941 Z" fill="#000000" fill-rule="nonzero" fill-opacity="1"></path><path clip-path="url(#clip130)" d="M101.756 557.955 Q98.1447 557.955 96.316 561.52 Q94.5104 565.062 94.5104 572.191 Q94.5104 579.298 96.316 582.862 Q98.1447 586.404 101.756 586.404 Q105.39 586.404 107.196 582.862 Q109.024 579.298 109.024 572.191 Q109.024 565.062 107.196 561.52 Q105.39 557.955 101.756 557.955 M101.756 554.251 Q107.566 554.251 110.621 558.858 Q113.7 563.441 113.7 572.191 Q113.7 580.918 110.621 585.524 Q107.566 590.108 101.756 590.108 Q95.9456 590.108 92.8669 585.524 Q89.8114 580.918 89.8114 572.191 Q89.8114 563.441 92.8669 558.858 Q95.9456 554.251 101.756 554.251 Z" fill="#000000" fill-rule="nonzero" fill-opacity="1"></path><path clip-path="url(#clip130)" d="M121.918 583.557 L126.802 583.557 L126.802 589.436 L121.918 589.436 L121.918 583.557 Z" fill="#000000" fill-rule="nonzero" fill-opacity="1"></path><path clip-path="url(#clip130)" d="M146.987 557.955 Q143.376 557.955 141.547 561.52 Q139.742 565.062 139.742 572.191 Q139.742 579.298 141.547 582.862 Q143.376 586.404 146.987 586.404 Q150.621 586.404 152.427 582.862 Q154.255 579.298 154.255 572.191 Q154.255 565.062 152.427 561.52 Q150.621 557.955 146.987 557.955 M146.987 554.251 Q152.797 554.251 155.853 558.858 Q158.931 563.441 158.931 572.191 Q158.931 580.918 155.853 585.524 Q152.797 590.108 146.987 590.108 Q141.177 590.108 138.098 585.524 Q135.043 580.918 135.043 572.191 Q135.043 563.441 138.098 558.858 Q141.177 554.251 146.987 554.251 Z" fill="#000000" fill-rule="nonzero" fill-opacity="1"></path><path clip-path="url(#clip130)" d="M177.149 557.955 Q173.538 557.955 171.709 561.52 Q169.904 565.062 169.904 572.191 Q169.904 579.298 171.709 582.862 Q173.538 586.404 177.149 586.404 Q180.783 586.404 182.589 582.862 Q184.417 579.298 184.417 572.191 Q184.417 565.062 182.589 561.52 Q180.783 557.955 177.149 557.955 M177.149 554.251 Q182.959 554.251 186.015 558.858 Q189.093 563.441 189.093 572.191 Q189.093 580.918 186.015 585.524 Q182.959 590.108 177.149 590.108 Q171.339 590.108 168.26 585.524 Q165.204 580.918 165.204 572.191 Q165.204 563.441 168.26 558.858 Q171.339 554.251 177.149 554.251 Z" fill="#000000" fill-rule="nonzero" fill-opacity="1"></path><path clip-path="url(#clip130)" d="M197.357 554.876 L215.713 554.876 L215.713 558.812 L201.639 558.812 L201.639 567.284 Q202.658 566.937 203.676 566.774 Q204.695 566.589 205.714 566.589 Q211.501 566.589 214.88 569.761 Q218.26 572.932 218.26 578.348 Q218.26 583.927 214.788 587.029 Q211.315 590.108 204.996 590.108 Q202.82 590.108 200.552 589.737 Q198.306 589.367 195.899 588.626 L195.899 583.927 Q197.982 585.061 200.204 585.617 Q202.426 586.173 204.903 586.173 Q208.908 586.173 211.246 584.066 Q213.584 581.96 213.584 578.348 Q213.584 574.737 211.246 572.631 Q208.908 570.524 204.903 570.524 Q203.028 570.524 201.153 570.941 Q199.302 571.358 197.357 572.237 L197.357 554.876 Z" fill="#000000" fill-rule="nonzero" fill-opacity="1"></path><path clip-path="url(#clip130)" d="M100.76 363.266 Q97.1493 363.266 95.3206 366.83 Q93.515 370.372 93.515 377.502 Q93.515 384.608 95.3206 388.173 Q97.1493 391.714 100.76 391.714 Q104.395 391.714 106.2 388.173 Q108.029 384.608 108.029 377.502 Q108.029 370.372 106.2 366.83 Q104.395 363.266 100.76 363.266 M100.76 359.562 Q106.571 359.562 109.626 364.168 Q112.705 368.752 112.705 377.502 Q112.705 386.228 109.626 390.835 Q106.571 395.418 100.76 395.418 Q94.9502 395.418 91.8715 390.835 Q88.816 386.228 88.816 377.502 Q88.816 368.752 91.8715 364.168 Q94.9502 359.562 100.76 359.562 Z" fill="#000000" fill-rule="nonzero" fill-opacity="1"></path><path clip-path="url(#clip130)" d="M120.922 388.867 L125.807 388.867 L125.807 394.747 L120.922 394.747 L120.922 388.867 Z" fill="#000000" fill-rule="nonzero" fill-opacity="1"></path><path clip-path="url(#clip130)" d="M145.992 363.266 Q142.381 363.266 140.552 366.83 Q138.746 370.372 138.746 377.502 Q138.746 384.608 140.552 388.173 Q142.381 391.714 145.992 391.714 Q149.626 391.714 151.431 388.173 Q153.26 384.608 153.26 377.502 Q153.26 370.372 151.431 366.83 Q149.626 363.266 145.992 363.266 M145.992 359.562 Q151.802 359.562 154.857 364.168 Q157.936 368.752 157.936 377.502 Q157.936 386.228 154.857 390.835 Q151.802 395.418 145.992 395.418 Q140.181 395.418 137.103 390.835 Q134.047 386.228 134.047 377.502 Q134.047 368.752 137.103 364.168 Q140.181 359.562 145.992 359.562 Z" fill="#000000" fill-rule="nonzero" fill-opacity="1"></path><path clip-path="url(#clip130)" d="M166.964 390.812 L174.603 390.812 L174.603 364.446 L166.292 366.113 L166.292 361.853 L174.556 360.187 L179.232 360.187 L179.232 390.812 L186.871 390.812 L186.871 394.747 L166.964 394.747 L166.964 390.812 Z" fill="#000000" fill-rule="nonzero" fill-opacity="1"></path><path clip-path="url(#clip130)" d="M206.315 363.266 Q202.704 363.266 200.876 366.83 Q199.07 370.372 199.07 377.502 Q199.07 384.608 200.876 388.173 Q202.704 391.714 206.315 391.714 Q209.95 391.714 211.755 388.173 Q213.584 384.608 213.584 377.502 Q213.584 370.372 211.755 366.83 Q209.95 363.266 206.315 363.266 M206.315 359.562 Q212.126 359.562 215.181 364.168 Q218.26 368.752 218.26 377.502 Q218.26 386.228 215.181 390.835 Q212.126 395.418 206.315 395.418 Q200.505 395.418 197.427 390.835 Q194.371 386.228 194.371 377.502 Q194.371 368.752 197.427 364.168 Q200.505 359.562 206.315 359.562 Z" fill="#000000" fill-rule="nonzero" fill-opacity="1"></path><path clip-path="url(#clip130)" d="M101.756 168.576 Q98.1447 168.576 96.316 172.141 Q94.5104 175.682 94.5104 182.812 Q94.5104 189.918 96.316 193.483 Q98.1447 197.025 101.756 197.025 Q105.39 197.025 107.196 193.483 Q109.024 189.918 109.024 182.812 Q109.024 175.682 107.196 172.141 Q105.39 168.576 101.756 168.576 M101.756 164.872 Q107.566 164.872 110.621 169.479 Q113.7 174.062 113.7 182.812 Q113.7 191.539 110.621 196.145 Q107.566 200.729 101.756 200.729 Q95.9456 200.729 92.8669 196.145 Q89.8114 191.539 89.8114 182.812 Q89.8114 174.062 92.8669 169.479 Q95.9456 164.872 101.756 164.872 Z" fill="#000000" fill-rule="nonzero" fill-opacity="1"></path><path clip-path="url(#clip130)" d="M121.918 194.178 L126.802 194.178 L126.802 200.057 L121.918 200.057 L121.918 194.178 Z" fill="#000000" fill-rule="nonzero" fill-opacity="1"></path><path clip-path="url(#clip130)" d="M146.987 168.576 Q143.376 168.576 141.547 172.141 Q139.742 175.682 139.742 182.812 Q139.742 189.918 141.547 193.483 Q143.376 197.025 146.987 197.025 Q150.621 197.025 152.427 193.483 Q154.255 189.918 154.255 182.812 Q154.255 175.682 152.427 172.141 Q150.621 168.576 146.987 168.576 M146.987 164.872 Q152.797 164.872 155.853 169.479 Q158.931 174.062 158.931 182.812 Q158.931 191.539 155.853 196.145 Q152.797 200.729 146.987 200.729 Q141.177 200.729 138.098 196.145 Q135.043 191.539 135.043 182.812 Q135.043 174.062 138.098 169.479 Q141.177 164.872 146.987 164.872 Z" fill="#000000" fill-rule="nonzero" fill-opacity="1"></path><path clip-path="url(#clip130)" d="M167.959 196.122 L175.598 196.122 L175.598 169.756 L167.288 171.423 L167.288 167.164 L175.552 165.497 L180.228 165.497 L180.228 196.122 L187.866 196.122 L187.866 200.057 L167.959 200.057 L167.959 196.122 Z" fill="#000000" fill-rule="nonzero" fill-opacity="1"></path><path clip-path="url(#clip130)" d="M197.357 165.497 L215.713 165.497 L215.713 169.432 L201.639 169.432 L201.639 177.905 Q202.658 177.557 203.676 177.395 Q204.695 177.21 205.714 177.21 Q211.501 177.21 214.88 180.381 Q218.26 183.553 218.26 188.969 Q218.26 194.548 214.788 197.65 Q211.315 200.729 204.996 200.729 Q202.82 200.729 200.552 200.358 Q198.306 199.988 195.899 199.247 L195.899 194.548 Q197.982 195.682 200.204 196.238 Q202.426 196.793 204.903 196.793 Q208.908 196.793 211.246 194.687 Q213.584 192.58 213.584 188.969 Q213.584 185.358 211.246 183.252 Q208.908 181.145 204.903 181.145 Q203.028 181.145 201.153 181.562 Q199.302 181.979 197.357 182.858 L197.357 165.497 Z" fill="#000000" fill-rule="nonzero" fill-opacity="1"></path><polyline clip-path="url(#clip132)" style="stroke:#009af9; stroke-linecap:round; stroke-linejoin:round; stroke-width:12; stroke-opacity:1; fill:none" points="313.651,1271.59 316.298,1290.16 318.945,1307.82 321.591,1324.53 324.238,1340.26 326.885,1354.99 329.531,1368.68 332.178,1381.32 334.825,1392.88 337.471,1403.34 340.118,1412.69 342.765,1420.9 345.411,1427.97 348.058,1433.87 350.705,1438.61 353.351,1442.16 355.998,1444.53 358.645,1445.72 361.291,1445.71 363.938,1444.51 366.585,1442.12 369.231,1438.55 371.878,1433.8 374.525,1427.87 377.171,1420.79 379.818,1412.57 382.465,1403.2 385.111,1392.73 387.758,1381.15 390.405,1368.5 393.051,1354.79 395.698,1340.05 398.345,1324.3 400.991,1307.58 403.638,1289.91 406.285,1271.32 408.931,1251.84 411.578,1231.52 414.225,1210.38 416.871,1188.46 419.518,1165.8 422.165,1142.44 424.812,1118.42 427.458,1093.79 430.105,1068.58 432.752,1042.84 435.398,1016.62 438.045,989.962 440.692,962.911 443.338,935.516 445.985,907.825 448.632,879.887 451.278,851.751 453.925,823.465 456.572,795.08 459.218,766.646 461.865,738.212 464.512,709.828 467.158,681.545 469.805,653.41 472.452,625.475 475.098,597.788 477.745,570.398 480.392,543.352 483.038,516.698 485.685,490.483 488.332,464.753 490.978,439.553 493.625,414.927 496.272,390.919 498.918,367.57 501.565,344.921 504.212,323.013 506.858,301.883 509.505,281.569 512.152,262.106 514.798,243.529 517.445,225.87 520.092,209.16 522.739,193.428 525.385,178.702 528.032,165.008 530.679,152.37 533.325,140.81 535.972,130.348 538.619,121.003 541.265,112.791 543.912,105.726 546.559,99.8213 549.205,95.0866 551.852,91.5304 554.499,89.1589 557.145,87.9763 559.792,87.9847 562.439,89.184 565.085,91.5722 567.732,95.145 570.379,99.8962 573.025,105.818 575.672,112.898 578.319,121.127 580.965,130.488 583.612,140.965 586.259,152.54 588.905,165.194 591.552,178.902 594.199,193.642 596.845,209.388 599.492,226.112 602.139,243.784 604.785,262.374 607.432,281.849 610.079,302.174 612.725,323.315 615.372,345.234 618.019,367.893 620.666,391.252 623.312,415.269 625.959,439.904 628.606,465.111 631.252,490.849 633.899,517.07 636.546,543.73 639.192,570.781 641.839,598.176 644.486,625.867 647.132,653.805 649.779,681.941 652.426,710.227 655.072,738.612 657.719,767.046 660.366,795.48 663.012,823.864 665.659,852.147 668.306,880.282 670.952,908.217 673.599,935.904 676.246,963.294 678.892,990.34 681.539,1016.99 684.186,1043.21 686.832,1068.94 689.479,1094.14 692.126,1118.76 694.772,1142.77 697.419,1166.12 700.066,1188.77 702.712,1210.68 705.359,1231.81 708.006,1252.12 710.652,1271.59 713.299,1290.16 715.946,1307.82 718.593,1324.53 721.239,1340.26 723.886,1354.99 726.533,1368.68 729.179,1381.32 731.826,1392.88 734.473,1403.34 737.119,1412.69 739.766,1420.9 742.413,1427.97 745.059,1433.87 747.706,1438.61 750.353,1442.16 752.999,1444.53 755.646,1445.72 758.293,1445.71 760.939,1444.51 763.586,1442.12 766.233,1438.55 768.879,1433.8 771.526,1427.87 774.173,1420.79 776.819,1412.57 779.466,1403.2 782.113,1392.73 784.759,1381.15 787.406,1368.5 790.053,1354.79 792.699,1340.05 795.346,1324.3 797.993,1307.58 800.639,1289.91 803.286,1271.32 805.933,1251.84 808.579,1231.52 811.226,1210.38 813.873,1188.46 816.52,1165.8 819.166,1142.44 821.813,1118.42 824.46,1093.79 827.106,1068.58 829.753,1042.84 832.4,1016.62 835.046,989.962 837.693,962.911 840.34,935.516 842.986,907.825 845.633,879.887 848.28,851.751 850.926,823.465 853.573,795.08 856.22,766.646 858.866,738.212 861.513,709.828 864.16,681.545 866.806,653.41 869.453,625.475 872.1,597.788 874.746,570.398 877.393,543.352 880.04,516.698 882.686,490.483 885.333,464.753 887.98,439.553 890.626,414.927 893.273,390.919 895.92,367.57 898.566,344.921 901.213,323.013 903.86,301.883 906.506,281.569 909.153,262.106 911.8,243.529 914.447,225.87 917.093,209.16 919.74,193.428 922.387,178.702 925.033,165.008 927.68,152.37 930.327,140.81 932.973,130.348 935.62,121.003 938.267,112.791 940.913,105.726 943.56,99.8213 946.207,95.0866 948.853,91.5304 951.5,89.1589 954.147,87.9763 956.793,87.9847 959.44,89.184 962.087,91.5722 964.733,95.145 967.38,99.8962 970.027,105.818 972.673,112.898 975.32,121.127 977.967,130.488 980.613,140.965 983.26,152.54 985.907,165.194 988.553,178.902 991.2,193.642 993.847,209.388 996.493,226.112 999.14,243.784 1001.79,262.374 1004.43,281.849 1007.08,302.174 1009.73,323.315 1012.37,345.234 1015.02,367.893 1017.67,391.252 1020.31,415.269 1022.96,439.904 1025.61,465.111 1028.25,490.849 1030.9,517.07 1033.55,543.73 1036.19,570.781 1038.84,598.176 1041.49,625.867 1044.13,653.805 1046.78,681.941 1049.43,710.227 1052.07,738.612 1054.72,767.046 1057.37,795.48 1060.01,823.864 1062.66,852.147 1065.31,880.282 1067.95,908.217 1070.6,935.904 1073.25,963.294 1075.89,990.34 1078.54,1016.99 1081.19,1043.21 1083.83,1068.94 1086.48,1094.14 1089.13,1118.76 1091.77,1142.77 1094.42,1166.12 1097.07,1188.77 1099.71,1210.68 1102.36,1231.81 1105.01,1252.12 1107.65,1271.59 1110.3,1290.16 1112.95,1307.82 1115.59,1324.53 1118.24,1340.26 1120.89,1354.99 1123.53,1368.68 1126.18,1381.32 1128.83,1392.88 1131.47,1403.34 1134.12,1412.69 1136.77,1420.9 1139.41,1427.97 1142.06,1433.87 1144.71,1438.61 1147.35,1442.16 1150,1444.53 1152.65,1445.72 1155.29,1445.71 1157.94,1444.51 1160.59,1442.12 1163.23,1438.55 1165.88,1433.8 1168.53,1427.87 1171.17,1420.79 1173.82,1412.57 1176.47,1403.2 1179.11,1392.73 1181.76,1381.15 1184.41,1368.5 1187.05,1354.79 1189.7,1340.05 1192.35,1324.3 1194.99,1307.58 1197.64,1289.91 1200.29,1271.32 1202.93,1251.84 1205.58,1231.52 1208.23,1210.38 1210.87,1188.46 1213.52,1165.8 1216.17,1142.44 1218.81,1118.42 1221.46,1093.79 1224.11,1068.58 1226.75,1042.84 1229.4,1016.62 1232.05,989.962 1234.69,962.911 1237.34,935.516 1239.99,907.825 1242.63,879.887 1245.28,851.751 1247.93,823.465 1250.57,795.08 1253.22,766.646 1255.87,738.212 1258.51,709.828 1261.16,681.545 1263.81,653.41 1266.45,625.475 1269.1,597.788 1271.75,570.398 1274.39,543.352 1277.04,516.698 1279.69,490.483 1282.33,464.753 1284.98,439.553 1287.63,414.927 1290.27,390.919 1292.92,367.57 1295.57,344.921 1298.21,323.013 1300.86,301.883 1303.51,281.569 1306.15,262.106 1308.8,243.529 1311.45,225.87 1314.09,209.16 1316.74,193.428 1319.39,178.702 1322.03,165.008 1324.68,152.37 1327.33,140.81 1329.97,130.348 1332.62,121.003 1335.27,112.791 1337.91,105.726 1340.56,99.8213 1343.21,95.0866 1345.85,91.5304 1348.5,89.1589 1351.15,87.9763 1353.79,87.9847 1356.44,89.184 1359.09,91.5722 1361.73,95.145 1364.38,99.8962 1367.03,105.818 1369.67,112.898 1372.32,121.127 1374.97,130.488 1377.61,140.965 1380.26,152.54 1382.91,165.194 1385.55,178.902 1388.2,193.642 1390.85,209.388 1393.49,226.112 1396.14,243.784 1398.79,262.374 1401.43,281.849 1404.08,302.174 1406.73,323.315 1409.37,345.234 1412.02,367.893 1414.67,391.252 1417.31,415.269 1419.96,439.904 1422.61,465.111 1425.25,490.849 1427.9,517.07 1430.55,543.73 1433.19,570.781 1435.84,598.176 1438.49,625.867 1441.13,653.805 1443.78,681.941 1446.43,710.227 1449.07,738.612 1451.72,767.046 1454.37,795.48 1457.02,823.864 1459.66,852.147 1462.31,880.282 1464.96,908.217 1467.6,935.904 1470.25,963.294 1472.9,990.34 1475.54,1016.99 1478.19,1043.21 1480.84,1068.94 1483.48,1094.14 1486.13,1118.76 1488.78,1142.77 1491.42,1166.12 1494.07,1188.77 1496.72,1210.68 1499.36,1231.81 1502.01,1252.12 1504.66,1271.59 1507.3,1290.16 1509.95,1307.82 1512.6,1324.53 1515.24,1340.26 1517.89,1354.99 1520.54,1368.68 1523.18,1381.32 1525.83,1392.88 1528.48,1403.34 1531.12,1412.69 1533.77,1420.9 1536.42,1427.97 1539.06,1433.87 1541.71,1438.61 1544.36,1442.16 1547,1444.53 1549.65,1445.72 1552.3,1445.71 1554.94,1444.51 1557.59,1442.12 1560.24,1438.55 1562.88,1433.8 1565.53,1427.87 1568.18,1420.79 1570.82,1412.57 1573.47,1403.2 1576.12,1392.73 1578.76,1381.15 1581.41,1368.5 1584.06,1354.79 1586.7,1340.05 1589.35,1324.3 1592,1307.58 1594.64,1289.91 1597.29,1271.32 1599.94,1251.84 1602.58,1231.52 1605.23,1210.38 1607.88,1188.46 1610.52,1165.8 1613.17,1142.44 1615.82,1118.42 1618.46,1093.79 1621.11,1068.58 1623.76,1042.84 1626.4,1016.62 1629.05,989.962 1631.7,962.911 1634.34,935.516 1636.99,907.825 1639.64,879.887 1642.28,851.751 1644.93,823.465 1647.58,795.08 1650.22,766.646 1652.87,738.212 1655.52,709.828 1658.16,681.545 1660.81,653.41 1663.46,625.475 1666.1,597.788 1668.75,570.398 1671.4,543.352 1674.04,516.698 1676.69,490.483 1679.34,464.753 1681.98,439.553 1684.63,414.927 1687.28,390.919 1689.92,367.57 1692.57,344.921 1695.22,323.013 1697.86,301.883 1700.51,281.569 1703.16,262.106 1705.8,243.529 1708.45,225.87 1711.1,209.16 1713.74,193.428 1716.39,178.702 1719.04,165.008 1721.68,152.37 1724.33,140.81 1726.98,130.348 1729.62,121.003 1732.27,112.791 1734.92,105.726 1737.56,99.8213 1740.21,95.0866 1742.86,91.5304 1745.5,89.1589 1748.15,87.9763 1750.8,87.9847 1753.44,89.184 1756.09,91.5722 1758.74,95.145 1761.38,99.8962 1764.03,105.818 1766.68,112.898 1769.32,121.127 1771.97,130.488 1774.62,140.965 1777.26,152.54 1779.91,165.194 1782.56,178.902 1785.2,193.642 1787.85,209.388 1790.5,226.112 1793.14,243.784 1795.79,262.374 1798.44,281.849 1801.08,302.174 1803.73,323.315 1806.38,345.234 1809.02,367.893 1811.67,391.252 1814.32,415.269 1816.96,439.904 1819.61,465.111 1822.26,490.849 1824.9,517.07 1827.55,543.73 1830.2,570.781 1832.84,598.176 1835.49,625.867 1838.14,653.805 1840.78,681.941 1843.43,710.227 1846.08,738.612 1848.72,767.046 1851.37,795.48 1854.02,823.864 1856.66,852.147 1859.31,880.282 1861.96,908.217 1864.6,935.904 1867.25,963.294 1869.9,990.34 1872.54,1016.99 1875.19,1043.21 1877.84,1068.94 1880.48,1094.14 1883.13,1118.76 1885.78,1142.77 1888.42,1166.12 1891.07,1188.77 1893.72,1210.68 1896.36,1231.81 1899.01,1252.12 1901.66,1271.59 1904.3,1290.16 1906.95,1307.82 1909.6,1324.53 1912.24,1340.26 1914.89,1354.99 1917.54,1368.68 1920.18,1381.32 1922.83,1392.88 1925.48,1403.34 1928.12,1412.69 1930.77,1420.9 1933.42,1427.97 1936.06,1433.87 1938.71,1438.61 1941.36,1442.16 1944,1444.53 1946.65,1445.72 1949.3,1445.71 1951.94,1444.51 1954.59,1442.12 1957.24,1438.55 1959.88,1433.8 1962.53,1427.87 1965.18,1420.79 1967.82,1412.57 1970.47,1403.2 1973.12,1392.73 1975.76,1381.15 1978.41,1368.5 1981.06,1354.79 1983.7,1340.05 1986.35,1324.3 1989,1307.58 1991.64,1289.91 1994.29,1271.32 1996.94,1251.84 1999.58,1231.52 2002.23,1210.38 2004.88,1188.46 2007.52,1165.8 2010.17,1142.44 2012.82,1118.42 2015.46,1093.79 2018.11,1068.58 2020.76,1042.84 2023.4,1016.62 2026.05,989.962 2028.7,962.911 2031.34,935.516 2033.99,907.825 2036.64,879.887 2039.28,851.751 2041.93,823.465 2044.58,795.08 2047.22,766.646 2049.87,738.212 2052.52,709.828 2055.16,681.545 2057.81,653.41 2060.46,625.475 2063.1,597.788 2065.75,570.398 2068.4,543.352 2071.04,516.698 2073.69,490.483 2076.34,464.753 2078.98,439.553 2081.63,414.927 2084.28,390.919 2086.92,367.57 2089.57,344.921 2092.22,323.013 2094.86,301.883 2097.51,281.569 2100.16,262.106 2102.8,243.529 2105.45,225.87 2108.1,209.16 2110.74,193.428 2113.39,178.702 2116.04,165.008 2118.68,152.37 2121.33,140.81 2123.98,130.348 2126.62,121.003 2129.27,112.791 2131.92,105.726 2134.56,99.8213 2137.21,95.0866 2139.86,91.5304 2142.5,89.1589 2145.15,87.9763 2147.8,87.9847 2150.44,89.184 2153.09,91.5722 2155.74,95.145 2158.38,99.8962 2161.03,105.818 2163.68,112.898 2166.32,121.127 2168.97,130.488 2171.62,140.965 2174.26,152.54 2176.91,165.194 2179.56,178.902 2182.2,193.642 2184.85,209.388 2187.5,226.112 2190.14,243.784 2192.79,262.374 2195.44,281.849 2198.08,302.174 2200.73,323.315 2203.38,345.234 2206.02,367.893 2208.67,391.252 2211.32,415.269 2213.96,439.904 2216.61,465.111 2219.26,490.849 2221.9,517.07 2224.55,543.73 2227.2,570.781 2229.84,598.176 2232.49,625.867 2235.14,653.805 2237.78,681.941 2240.43,710.227 2243.08,738.612 2245.72,767.046 2248.37,795.48 2251.02,823.864 2253.66,852.147 2256.31,880.282 2258.96,908.217 2261.6,935.904 2264.25,963.294 2266.9,990.34 2269.54,1016.99 2272.19,1043.21 2274.84,1068.94 2277.48,1094.14 2280.13,1118.76 2282.78,1142.77 2285.42,1166.12 "></polyline>
<polyline clip-path="url(#clip132)" style="stroke:#e26f46; stroke-linecap:round; stroke-linejoin:round; stroke-width:4; stroke-opacity:1; fill:none" points="377.171,1399.75 387.758,1354.98 398.345,1293.75 408.931,1217.75 419.518,1129.13 430.105,1030.36 440.692,924.204 451.278,813.645 461.865,701.776 472.452,591.729 483.038,486.587 493.625,389.295 504.212,302.576 514.798,228.861 525.385,170.214 535.972,128.277 546.559,104.226 557.145,98.7326 567.732,111.952 578.319,143.514 588.905,192.533 599.492,257.639 610.079,337.006 620.666,428.411 631.252,529.296 641.839,636.834 652.426,748.014 663.012,859.721 673.599,968.826 684.186,1072.27 694.772,1167.17 705.359,1250.85 715.946,1320.98 726.533,1375.58 737.119,1413.14 747.706,1432.59 758.293,1433.4 768.879,1415.54 779.466,1379.51 790.053,1326.33 800.639,1257.47 811.226,1174.87 821.813,1080.84 832.4,978.02 842.986,869.284 853.573,757.678 864.16,646.33 874.746,538.357 885.333,436.783 895.92,344.454 906.506,263.955 917.093,197.541 927.68,147.072 938.267,113.962 948.853,99.1373 959.44,103.014 970.027,125.483 980.613,165.916 991.2,223.179 1001.79,295.669 1012.37,381.356 1022.96,477.84 1033.55,582.418 1044.13,692.162 1054.72,803.997 1065.31,914.792 1075.89,1021.44 1086.48,1120.96 1097.07,1210.57 1107.65,1287.74 1118.24,1350.33 1128.83,1396.57 1139.41,1425.18 1150,1435.34 1160.59,1426.79 1171.17,1399.75 1181.76,1354.98 1192.35,1293.75 1202.93,1217.75 1213.52,1129.13 1224.11,1030.35 1234.69,924.204 1245.28,813.645 1255.87,701.776 1266.45,591.729 1277.04,486.587 1287.63,389.294 1298.21,302.576 1308.8,228.861 1319.39,170.214 1329.97,128.277 1340.56,104.226 1351.15,98.7325 1361.73,111.952 1372.32,143.513 1382.91,192.533 1393.49,257.638 1404.08,337.005 1414.67,428.411 1425.25,529.296 1435.84,636.834 1446.43,748.014 1457.02,859.721 1467.6,968.826 1478.19,1072.27 1488.78,1167.17 1499.36,1250.85 1509.95,1320.98 1520.54,1375.58 1531.12,1413.14 1541.71,1432.59 1552.3,1433.4 1562.88,1415.54 1573.47,1379.51 1584.06,1326.33 1594.64,1257.47 1605.23,1174.87 1615.82,1080.84 1626.4,978.02 1636.99,869.284 1647.58,757.678 1658.16,646.33 1668.75,538.357 1679.34,436.783 1689.92,344.454 1700.51,263.955 1711.1,197.541 1721.68,147.072 1732.27,113.962 1742.86,99.1373 1753.44,103.014 1764.03,125.483 1774.62,165.916 1785.2,223.179 1795.79,295.669 1806.38,381.356 1816.96,477.84 1827.55,582.418 1838.14,692.162 1848.72,803.997 1859.31,914.792 1869.9,1021.44 1880.48,1120.96 1891.07,1210.57 1901.66,1287.74 1912.24,1350.33 1922.83,1396.57 1933.42,1425.18 1944,1435.34 1954.59,1426.79 1965.18,1399.75 1975.76,1354.98 1986.35,1293.75 1996.94,1217.75 2007.52,1129.13 2018.11,1030.35 2028.7,924.204 2039.28,813.645 2049.87,701.776 2060.46,591.729 2071.04,486.587 2081.63,389.294 2092.22,302.576 2102.8,228.861 2113.39,170.214 2123.98,128.277 2134.56,104.226 2145.15,98.7325 2155.74,111.952 2166.32,143.513 2176.91,192.533 2187.5,257.638 2198.08,337.005 2208.67,428.411 2219.26,529.296 2229.84,636.834 2240.43,748.014 2251.02,859.721 2261.6,968.826 2272.19,1072.27 2282.78,1167.17 2293.36,1250.85 "></polyline>
<circle clip-path="url(#clip132)" cx="377.171" cy="1399.75" r="14.4" fill="#e26f46" fill-rule="evenodd" fill-opacity="1" stroke="#000000" stroke-opacity="1" stroke-width="3.2"></circle>
<circle clip-path="url(#clip132)" cx="387.758" cy="1354.98" r="14.4" fill="#e26f46" fill-rule="evenodd" fill-opacity="1" stroke="#000000" stroke-opacity="1" stroke-width="3.2"></circle>
<circle clip-path="url(#clip132)" cx="398.345" cy="1293.75" r="14.4" fill="#e26f46" fill-rule="evenodd" fill-opacity="1" stroke="#000000" stroke-opacity="1" stroke-width="3.2"></circle>
<circle clip-path="url(#clip132)" cx="408.931" cy="1217.75" r="14.4" fill="#e26f46" fill-rule="evenodd" fill-opacity="1" stroke="#000000" stroke-opacity="1" stroke-width="3.2"></circle>
<circle clip-path="url(#clip132)" cx="419.518" cy="1129.13" r="14.4" fill="#e26f46" fill-rule="evenodd" fill-opacity="1" stroke="#000000" stroke-opacity="1" stroke-width="3.2"></circle>
<circle clip-path="url(#clip132)" cx="430.105" cy="1030.36" r="14.4" fill="#e26f46" fill-rule="evenodd" fill-opacity="1" stroke="#000000" stroke-opacity="1" stroke-width="3.2"></circle>
<circle clip-path="url(#clip132)" cx="440.692" cy="924.204" r="14.4" fill="#e26f46" fill-rule="evenodd" fill-opacity="1" stroke="#000000" stroke-opacity="1" stroke-width="3.2"></circle>
<circle clip-path="url(#clip132)" cx="451.278" cy="813.645" r="14.4" fill="#e26f46" fill-rule="evenodd" fill-opacity="1" stroke="#000000" stroke-opacity="1" stroke-width="3.2"></circle>
<circle clip-path="url(#clip132)" cx="461.865" cy="701.776" r="14.4" fill="#e26f46" fill-rule="evenodd" fill-opacity="1" stroke="#000000" stroke-opacity="1" stroke-width="3.2"></circle>
<circle clip-path="url(#clip132)" cx="472.452" cy="591.729" r="14.4" fill="#e26f46" fill-rule="evenodd" fill-opacity="1" stroke="#000000" stroke-opacity="1" stroke-width="3.2"></circle>
<circle clip-path="url(#clip132)" cx="483.038" cy="486.587" r="14.4" fill="#e26f46" fill-rule="evenodd" fill-opacity="1" stroke="#000000" stroke-opacity="1" stroke-width="3.2"></circle>
<circle clip-path="url(#clip132)" cx="493.625" cy="389.295" r="14.4" fill="#e26f46" fill-rule="evenodd" fill-opacity="1" stroke="#000000" stroke-opacity="1" stroke-width="3.2"></circle>
<circle clip-path="url(#clip132)" cx="504.212" cy="302.576" r="14.4" fill="#e26f46" fill-rule="evenodd" fill-opacity="1" stroke="#000000" stroke-opacity="1" stroke-width="3.2"></circle>
<circle clip-path="url(#clip132)" cx="514.798" cy="228.861" r="14.4" fill="#e26f46" fill-rule="evenodd" fill-opacity="1" stroke="#000000" stroke-opacity="1" stroke-width="3.2"></circle>
<circle clip-path="url(#clip132)" cx="525.385" cy="170.214" r="14.4" fill="#e26f46" fill-rule="evenodd" fill-opacity="1" stroke="#000000" stroke-opacity="1" stroke-width="3.2"></circle>
<circle clip-path="url(#clip132)" cx="535.972" cy="128.277" r="14.4" fill="#e26f46" fill-rule="evenodd" fill-opacity="1" stroke="#000000" stroke-opacity="1" stroke-width="3.2"></circle>
<circle clip-path="url(#clip132)" cx="546.559" cy="104.226" r="14.4" fill="#e26f46" fill-rule="evenodd" fill-opacity="1" stroke="#000000" stroke-opacity="1" stroke-width="3.2"></circle>
<circle clip-path="url(#clip132)" cx="557.145" cy="98.7326" r="14.4" fill="#e26f46" fill-rule="evenodd" fill-opacity="1" stroke="#000000" stroke-opacity="1" stroke-width="3.2"></circle>
<circle clip-path="url(#clip132)" cx="567.732" cy="111.952" r="14.4" fill="#e26f46" fill-rule="evenodd" fill-opacity="1" stroke="#000000" stroke-opacity="1" stroke-width="3.2"></circle>
<circle clip-path="url(#clip132)" cx="578.319" cy="143.514" r="14.4" fill="#e26f46" fill-rule="evenodd" fill-opacity="1" stroke="#000000" stroke-opacity="1" stroke-width="3.2"></circle>
<circle clip-path="url(#clip132)" cx="588.905" cy="192.533" r="14.4" fill="#e26f46" fill-rule="evenodd" fill-opacity="1" stroke="#000000" stroke-opacity="1" stroke-width="3.2"></circle>
<circle clip-path="url(#clip132)" cx="599.492" cy="257.639" r="14.4" fill="#e26f46" fill-rule="evenodd" fill-opacity="1" stroke="#000000" stroke-opacity="1" stroke-width="3.2"></circle>
<circle clip-path="url(#clip132)" cx="610.079" cy="337.006" r="14.4" fill="#e26f46" fill-rule="evenodd" fill-opacity="1" stroke="#000000" stroke-opacity="1" stroke-width="3.2"></circle>
<circle clip-path="url(#clip132)" cx="620.666" cy="428.411" r="14.4" fill="#e26f46" fill-rule="evenodd" fill-opacity="1" stroke="#000000" stroke-opacity="1" stroke-width="3.2"></circle>
<circle clip-path="url(#clip132)" cx="631.252" cy="529.296" r="14.4" fill="#e26f46" fill-rule="evenodd" fill-opacity="1" stroke="#000000" stroke-opacity="1" stroke-width="3.2"></circle>
<circle clip-path="url(#clip132)" cx="641.839" cy="636.834" r="14.4" fill="#e26f46" fill-rule="evenodd" fill-opacity="1" stroke="#000000" stroke-opacity="1" stroke-width="3.2"></circle>
<circle clip-path="url(#clip132)" cx="652.426" cy="748.014" r="14.4" fill="#e26f46" fill-rule="evenodd" fill-opacity="1" stroke="#000000" stroke-opacity="1" stroke-width="3.2"></circle>
<circle clip-path="url(#clip132)" cx="663.012" cy="859.721" r="14.4" fill="#e26f46" fill-rule="evenodd" fill-opacity="1" stroke="#000000" stroke-opacity="1" stroke-width="3.2"></circle>
<circle clip-path="url(#clip132)" cx="673.599" cy="968.826" r="14.4" fill="#e26f46" fill-rule="evenodd" fill-opacity="1" stroke="#000000" stroke-opacity="1" stroke-width="3.2"></circle>
<circle clip-path="url(#clip132)" cx="684.186" cy="1072.27" r="14.4" fill="#e26f46" fill-rule="evenodd" fill-opacity="1" stroke="#000000" stroke-opacity="1" stroke-width="3.2"></circle>
<circle clip-path="url(#clip132)" cx="694.772" cy="1167.17" r="14.4" fill="#e26f46" fill-rule="evenodd" fill-opacity="1" stroke="#000000" stroke-opacity="1" stroke-width="3.2"></circle>
<circle clip-path="url(#clip132)" cx="705.359" cy="1250.85" r="14.4" fill="#e26f46" fill-rule="evenodd" fill-opacity="1" stroke="#000000" stroke-opacity="1" stroke-width="3.2"></circle>
<circle clip-path="url(#clip132)" cx="715.946" cy="1320.98" r="14.4" fill="#e26f46" fill-rule="evenodd" fill-opacity="1" stroke="#000000" stroke-opacity="1" stroke-width="3.2"></circle>
<circle clip-path="url(#clip132)" cx="726.533" cy="1375.58" r="14.4" fill="#e26f46" fill-rule="evenodd" fill-opacity="1" stroke="#000000" stroke-opacity="1" stroke-width="3.2"></circle>
<circle clip-path="url(#clip132)" cx="737.119" cy="1413.14" r="14.4" fill="#e26f46" fill-rule="evenodd" fill-opacity="1" stroke="#000000" stroke-opacity="1" stroke-width="3.2"></circle>
<circle clip-path="url(#clip132)" cx="747.706" cy="1432.59" r="14.4" fill="#e26f46" fill-rule="evenodd" fill-opacity="1" stroke="#000000" stroke-opacity="1" stroke-width="3.2"></circle>
<circle clip-path="url(#clip132)" cx="758.293" cy="1433.4" r="14.4" fill="#e26f46" fill-rule="evenodd" fill-opacity="1" stroke="#000000" stroke-opacity="1" stroke-width="3.2"></circle>
<circle clip-path="url(#clip132)" cx="768.879" cy="1415.54" r="14.4" fill="#e26f46" fill-rule="evenodd" fill-opacity="1" stroke="#000000" stroke-opacity="1" stroke-width="3.2"></circle>
<circle clip-path="url(#clip132)" cx="779.466" cy="1379.51" r="14.4" fill="#e26f46" fill-rule="evenodd" fill-opacity="1" stroke="#000000" stroke-opacity="1" stroke-width="3.2"></circle>
<circle clip-path="url(#clip132)" cx="790.053" cy="1326.33" r="14.4" fill="#e26f46" fill-rule="evenodd" fill-opacity="1" stroke="#000000" stroke-opacity="1" stroke-width="3.2"></circle>
<circle clip-path="url(#clip132)" cx="800.639" cy="1257.47" r="14.4" fill="#e26f46" fill-rule="evenodd" fill-opacity="1" stroke="#000000" stroke-opacity="1" stroke-width="3.2"></circle>
<circle clip-path="url(#clip132)" cx="811.226" cy="1174.87" r="14.4" fill="#e26f46" fill-rule="evenodd" fill-opacity="1" stroke="#000000" stroke-opacity="1" stroke-width="3.2"></circle>
<circle clip-path="url(#clip132)" cx="821.813" cy="1080.84" r="14.4" fill="#e26f46" fill-rule="evenodd" fill-opacity="1" stroke="#000000" stroke-opacity="1" stroke-width="3.2"></circle>
<circle clip-path="url(#clip132)" cx="832.4" cy="978.02" r="14.4" fill="#e26f46" fill-rule="evenodd" fill-opacity="1" stroke="#000000" stroke-opacity="1" stroke-width="3.2"></circle>
<circle clip-path="url(#clip132)" cx="842.986" cy="869.284" r="14.4" fill="#e26f46" fill-rule="evenodd" fill-opacity="1" stroke="#000000" stroke-opacity="1" stroke-width="3.2"></circle>
<circle clip-path="url(#clip132)" cx="853.573" cy="757.678" r="14.4" fill="#e26f46" fill-rule="evenodd" fill-opacity="1" stroke="#000000" stroke-opacity="1" stroke-width="3.2"></circle>
<circle clip-path="url(#clip132)" cx="864.16" cy="646.33" r="14.4" fill="#e26f46" fill-rule="evenodd" fill-opacity="1" stroke="#000000" stroke-opacity="1" stroke-width="3.2"></circle>
<circle clip-path="url(#clip132)" cx="874.746" cy="538.357" r="14.4" fill="#e26f46" fill-rule="evenodd" fill-opacity="1" stroke="#000000" stroke-opacity="1" stroke-width="3.2"></circle>
<circle clip-path="url(#clip132)" cx="885.333" cy="436.783" r="14.4" fill="#e26f46" fill-rule="evenodd" fill-opacity="1" stroke="#000000" stroke-opacity="1" stroke-width="3.2"></circle>
<circle clip-path="url(#clip132)" cx="895.92" cy="344.454" r="14.4" fill="#e26f46" fill-rule="evenodd" fill-opacity="1" stroke="#000000" stroke-opacity="1" stroke-width="3.2"></circle>
<circle clip-path="url(#clip132)" cx="906.506" cy="263.955" r="14.4" fill="#e26f46" fill-rule="evenodd" fill-opacity="1" stroke="#000000" stroke-opacity="1" stroke-width="3.2"></circle>
<circle clip-path="url(#clip132)" cx="917.093" cy="197.541" r="14.4" fill="#e26f46" fill-rule="evenodd" fill-opacity="1" stroke="#000000" stroke-opacity="1" stroke-width="3.2"></circle>
<circle clip-path="url(#clip132)" cx="927.68" cy="147.072" r="14.4" fill="#e26f46" fill-rule="evenodd" fill-opacity="1" stroke="#000000" stroke-opacity="1" stroke-width="3.2"></circle>
<circle clip-path="url(#clip132)" cx="938.267" cy="113.962" r="14.4" fill="#e26f46" fill-rule="evenodd" fill-opacity="1" stroke="#000000" stroke-opacity="1" stroke-width="3.2"></circle>
<circle clip-path="url(#clip132)" cx="948.853" cy="99.1373" r="14.4" fill="#e26f46" fill-rule="evenodd" fill-opacity="1" stroke="#000000" stroke-opacity="1" stroke-width="3.2"></circle>
<circle clip-path="url(#clip132)" cx="959.44" cy="103.014" r="14.4" fill="#e26f46" fill-rule="evenodd" fill-opacity="1" stroke="#000000" stroke-opacity="1" stroke-width="3.2"></circle>
<circle clip-path="url(#clip132)" cx="970.027" cy="125.483" r="14.4" fill="#e26f46" fill-rule="evenodd" fill-opacity="1" stroke="#000000" stroke-opacity="1" stroke-width="3.2"></circle>
<circle clip-path="url(#clip132)" cx="980.613" cy="165.916" r="14.4" fill="#e26f46" fill-rule="evenodd" fill-opacity="1" stroke="#000000" stroke-opacity="1" stroke-width="3.2"></circle>
<circle clip-path="url(#clip132)" cx="991.2" cy="223.179" r="14.4" fill="#e26f46" fill-rule="evenodd" fill-opacity="1" stroke="#000000" stroke-opacity="1" stroke-width="3.2"></circle>
<circle clip-path="url(#clip132)" cx="1001.79" cy="295.669" r="14.4" fill="#e26f46" fill-rule="evenodd" fill-opacity="1" stroke="#000000" stroke-opacity="1" stroke-width="3.2"></circle>
<circle clip-path="url(#clip132)" cx="1012.37" cy="381.356" r="14.4" fill="#e26f46" fill-rule="evenodd" fill-opacity="1" stroke="#000000" stroke-opacity="1" stroke-width="3.2"></circle>
<circle clip-path="url(#clip132)" cx="1022.96" cy="477.84" r="14.4" fill="#e26f46" fill-rule="evenodd" fill-opacity="1" stroke="#000000" stroke-opacity="1" stroke-width="3.2"></circle>
<circle clip-path="url(#clip132)" cx="1033.55" cy="582.418" r="14.4" fill="#e26f46" fill-rule="evenodd" fill-opacity="1" stroke="#000000" stroke-opacity="1" stroke-width="3.2"></circle>
<circle clip-path="url(#clip132)" cx="1044.13" cy="692.162" r="14.4" fill="#e26f46" fill-rule="evenodd" fill-opacity="1" stroke="#000000" stroke-opacity="1" stroke-width="3.2"></circle>
<circle clip-path="url(#clip132)" cx="1054.72" cy="803.997" r="14.4" fill="#e26f46" fill-rule="evenodd" fill-opacity="1" stroke="#000000" stroke-opacity="1" stroke-width="3.2"></circle>
<circle clip-path="url(#clip132)" cx="1065.31" cy="914.792" r="14.4" fill="#e26f46" fill-rule="evenodd" fill-opacity="1" stroke="#000000" stroke-opacity="1" stroke-width="3.2"></circle>
<circle clip-path="url(#clip132)" cx="1075.89" cy="1021.44" r="14.4" fill="#e26f46" fill-rule="evenodd" fill-opacity="1" stroke="#000000" stroke-opacity="1" stroke-width="3.2"></circle>
<circle clip-path="url(#clip132)" cx="1086.48" cy="1120.96" r="14.4" fill="#e26f46" fill-rule="evenodd" fill-opacity="1" stroke="#000000" stroke-opacity="1" stroke-width="3.2"></circle>
<circle clip-path="url(#clip132)" cx="1097.07" cy="1210.57" r="14.4" fill="#e26f46" fill-rule="evenodd" fill-opacity="1" stroke="#000000" stroke-opacity="1" stroke-width="3.2"></circle>
<circle clip-path="url(#clip132)" cx="1107.65" cy="1287.74" r="14.4" fill="#e26f46" fill-rule="evenodd" fill-opacity="1" stroke="#000000" stroke-opacity="1" stroke-width="3.2"></circle>
<circle clip-path="url(#clip132)" cx="1118.24" cy="1350.33" r="14.4" fill="#e26f46" fill-rule="evenodd" fill-opacity="1" stroke="#000000" stroke-opacity="1" stroke-width="3.2"></circle>
<circle clip-path="url(#clip132)" cx="1128.83" cy="1396.57" r="14.4" fill="#e26f46" fill-rule="evenodd" fill-opacity="1" stroke="#000000" stroke-opacity="1" stroke-width="3.2"></circle>
<circle clip-path="url(#clip132)" cx="1139.41" cy="1425.18" r="14.4" fill="#e26f46" fill-rule="evenodd" fill-opacity="1" stroke="#000000" stroke-opacity="1" stroke-width="3.2"></circle>
<circle clip-path="url(#clip132)" cx="1150" cy="1435.34" r="14.4" fill="#e26f46" fill-rule="evenodd" fill-opacity="1" stroke="#000000" stroke-opacity="1" stroke-width="3.2"></circle>
<circle clip-path="url(#clip132)" cx="1160.59" cy="1426.79" r="14.4" fill="#e26f46" fill-rule="evenodd" fill-opacity="1" stroke="#000000" stroke-opacity="1" stroke-width="3.2"></circle>
<circle clip-path="url(#clip132)" cx="1171.17" cy="1399.75" r="14.4" fill="#e26f46" fill-rule="evenodd" fill-opacity="1" stroke="#000000" stroke-opacity="1" stroke-width="3.2"></circle>
<circle clip-path="url(#clip132)" cx="1181.76" cy="1354.98" r="14.4" fill="#e26f46" fill-rule="evenodd" fill-opacity="1" stroke="#000000" stroke-opacity="1" stroke-width="3.2"></circle>
<circle clip-path="url(#clip132)" cx="1192.35" cy="1293.75" r="14.4" fill="#e26f46" fill-rule="evenodd" fill-opacity="1" stroke="#000000" stroke-opacity="1" stroke-width="3.2"></circle>
<circle clip-path="url(#clip132)" cx="1202.93" cy="1217.75" r="14.4" fill="#e26f46" fill-rule="evenodd" fill-opacity="1" stroke="#000000" stroke-opacity="1" stroke-width="3.2"></circle>
<circle clip-path="url(#clip132)" cx="1213.52" cy="1129.13" r="14.4" fill="#e26f46" fill-rule="evenodd" fill-opacity="1" stroke="#000000" stroke-opacity="1" stroke-width="3.2"></circle>
<circle clip-path="url(#clip132)" cx="1224.11" cy="1030.35" r="14.4" fill="#e26f46" fill-rule="evenodd" fill-opacity="1" stroke="#000000" stroke-opacity="1" stroke-width="3.2"></circle>
<circle clip-path="url(#clip132)" cx="1234.69" cy="924.204" r="14.4" fill="#e26f46" fill-rule="evenodd" fill-opacity="1" stroke="#000000" stroke-opacity="1" stroke-width="3.2"></circle>
<circle clip-path="url(#clip132)" cx="1245.28" cy="813.645" r="14.4" fill="#e26f46" fill-rule="evenodd" fill-opacity="1" stroke="#000000" stroke-opacity="1" stroke-width="3.2"></circle>
<circle clip-path="url(#clip132)" cx="1255.87" cy="701.776" r="14.4" fill="#e26f46" fill-rule="evenodd" fill-opacity="1" stroke="#000000" stroke-opacity="1" stroke-width="3.2"></circle>
<circle clip-path="url(#clip132)" cx="1266.45" cy="591.729" r="14.4" fill="#e26f46" fill-rule="evenodd" fill-opacity="1" stroke="#000000" stroke-opacity="1" stroke-width="3.2"></circle>
<circle clip-path="url(#clip132)" cx="1277.04" cy="486.587" r="14.4" fill="#e26f46" fill-rule="evenodd" fill-opacity="1" stroke="#000000" stroke-opacity="1" stroke-width="3.2"></circle>
<circle clip-path="url(#clip132)" cx="1287.63" cy="389.294" r="14.4" fill="#e26f46" fill-rule="evenodd" fill-opacity="1" stroke="#000000" stroke-opacity="1" stroke-width="3.2"></circle>
<circle clip-path="url(#clip132)" cx="1298.21" cy="302.576" r="14.4" fill="#e26f46" fill-rule="evenodd" fill-opacity="1" stroke="#000000" stroke-opacity="1" stroke-width="3.2"></circle>
<circle clip-path="url(#clip132)" cx="1308.8" cy="228.861" r="14.4" fill="#e26f46" fill-rule="evenodd" fill-opacity="1" stroke="#000000" stroke-opacity="1" stroke-width="3.2"></circle>
<circle clip-path="url(#clip132)" cx="1319.39" cy="170.214" r="14.4" fill="#e26f46" fill-rule="evenodd" fill-opacity="1" stroke="#000000" stroke-opacity="1" stroke-width="3.2"></circle>
<circle clip-path="url(#clip132)" cx="1329.97" cy="128.277" r="14.4" fill="#e26f46" fill-rule="evenodd" fill-opacity="1" stroke="#000000" stroke-opacity="1" stroke-width="3.2"></circle>
<circle clip-path="url(#clip132)" cx="1340.56" cy="104.226" r="14.4" fill="#e26f46" fill-rule="evenodd" fill-opacity="1" stroke="#000000" stroke-opacity="1" stroke-width="3.2"></circle>
<circle clip-path="url(#clip132)" cx="1351.15" cy="98.7325" r="14.4" fill="#e26f46" fill-rule="evenodd" fill-opacity="1" stroke="#000000" stroke-opacity="1" stroke-width="3.2"></circle>
<circle clip-path="url(#clip132)" cx="1361.73" cy="111.952" r="14.4" fill="#e26f46" fill-rule="evenodd" fill-opacity="1" stroke="#000000" stroke-opacity="1" stroke-width="3.2"></circle>
<circle clip-path="url(#clip132)" cx="1372.32" cy="143.513" r="14.4" fill="#e26f46" fill-rule="evenodd" fill-opacity="1" stroke="#000000" stroke-opacity="1" stroke-width="3.2"></circle>
<circle clip-path="url(#clip132)" cx="1382.91" cy="192.533" r="14.4" fill="#e26f46" fill-rule="evenodd" fill-opacity="1" stroke="#000000" stroke-opacity="1" stroke-width="3.2"></circle>
<circle clip-path="url(#clip132)" cx="1393.49" cy="257.638" r="14.4" fill="#e26f46" fill-rule="evenodd" fill-opacity="1" stroke="#000000" stroke-opacity="1" stroke-width="3.2"></circle>
<circle clip-path="url(#clip132)" cx="1404.08" cy="337.005" r="14.4" fill="#e26f46" fill-rule="evenodd" fill-opacity="1" stroke="#000000" stroke-opacity="1" stroke-width="3.2"></circle>
<circle clip-path="url(#clip132)" cx="1414.67" cy="428.411" r="14.4" fill="#e26f46" fill-rule="evenodd" fill-opacity="1" stroke="#000000" stroke-opacity="1" stroke-width="3.2"></circle>
<circle clip-path="url(#clip132)" cx="1425.25" cy="529.296" r="14.4" fill="#e26f46" fill-rule="evenodd" fill-opacity="1" stroke="#000000" stroke-opacity="1" stroke-width="3.2"></circle>
<circle clip-path="url(#clip132)" cx="1435.84" cy="636.834" r="14.4" fill="#e26f46" fill-rule="evenodd" fill-opacity="1" stroke="#000000" stroke-opacity="1" stroke-width="3.2"></circle>
<circle clip-path="url(#clip132)" cx="1446.43" cy="748.014" r="14.4" fill="#e26f46" fill-rule="evenodd" fill-opacity="1" stroke="#000000" stroke-opacity="1" stroke-width="3.2"></circle>
<circle clip-path="url(#clip132)" cx="1457.02" cy="859.721" r="14.4" fill="#e26f46" fill-rule="evenodd" fill-opacity="1" stroke="#000000" stroke-opacity="1" stroke-width="3.2"></circle>
<circle clip-path="url(#clip132)" cx="1467.6" cy="968.826" r="14.4" fill="#e26f46" fill-rule="evenodd" fill-opacity="1" stroke="#000000" stroke-opacity="1" stroke-width="3.2"></circle>
<circle clip-path="url(#clip132)" cx="1478.19" cy="1072.27" r="14.4" fill="#e26f46" fill-rule="evenodd" fill-opacity="1" stroke="#000000" stroke-opacity="1" stroke-width="3.2"></circle>
<circle clip-path="url(#clip132)" cx="1488.78" cy="1167.17" r="14.4" fill="#e26f46" fill-rule="evenodd" fill-opacity="1" stroke="#000000" stroke-opacity="1" stroke-width="3.2"></circle>
<circle clip-path="url(#clip132)" cx="1499.36" cy="1250.85" r="14.4" fill="#e26f46" fill-rule="evenodd" fill-opacity="1" stroke="#000000" stroke-opacity="1" stroke-width="3.2"></circle>
<circle clip-path="url(#clip132)" cx="1509.95" cy="1320.98" r="14.4" fill="#e26f46" fill-rule="evenodd" fill-opacity="1" stroke="#000000" stroke-opacity="1" stroke-width="3.2"></circle>
<circle clip-path="url(#clip132)" cx="1520.54" cy="1375.58" r="14.4" fill="#e26f46" fill-rule="evenodd" fill-opacity="1" stroke="#000000" stroke-opacity="1" stroke-width="3.2"></circle>
<circle clip-path="url(#clip132)" cx="1531.12" cy="1413.14" r="14.4" fill="#e26f46" fill-rule="evenodd" fill-opacity="1" stroke="#000000" stroke-opacity="1" stroke-width="3.2"></circle>
<circle clip-path="url(#clip132)" cx="1541.71" cy="1432.59" r="14.4" fill="#e26f46" fill-rule="evenodd" fill-opacity="1" stroke="#000000" stroke-opacity="1" stroke-width="3.2"></circle>
<circle clip-path="url(#clip132)" cx="1552.3" cy="1433.4" r="14.4" fill="#e26f46" fill-rule="evenodd" fill-opacity="1" stroke="#000000" stroke-opacity="1" stroke-width="3.2"></circle>
<circle clip-path="url(#clip132)" cx="1562.88" cy="1415.54" r="14.4" fill="#e26f46" fill-rule="evenodd" fill-opacity="1" stroke="#000000" stroke-opacity="1" stroke-width="3.2"></circle>
<circle clip-path="url(#clip132)" cx="1573.47" cy="1379.51" r="14.4" fill="#e26f46" fill-rule="evenodd" fill-opacity="1" stroke="#000000" stroke-opacity="1" stroke-width="3.2"></circle>
<circle clip-path="url(#clip132)" cx="1584.06" cy="1326.33" r="14.4" fill="#e26f46" fill-rule="evenodd" fill-opacity="1" stroke="#000000" stroke-opacity="1" stroke-width="3.2"></circle>
<circle clip-path="url(#clip132)" cx="1594.64" cy="1257.47" r="14.4" fill="#e26f46" fill-rule="evenodd" fill-opacity="1" stroke="#000000" stroke-opacity="1" stroke-width="3.2"></circle>
<circle clip-path="url(#clip132)" cx="1605.23" cy="1174.87" r="14.4" fill="#e26f46" fill-rule="evenodd" fill-opacity="1" stroke="#000000" stroke-opacity="1" stroke-width="3.2"></circle>
<circle clip-path="url(#clip132)" cx="1615.82" cy="1080.84" r="14.4" fill="#e26f46" fill-rule="evenodd" fill-opacity="1" stroke="#000000" stroke-opacity="1" stroke-width="3.2"></circle>
<circle clip-path="url(#clip132)" cx="1626.4" cy="978.02" r="14.4" fill="#e26f46" fill-rule="evenodd" fill-opacity="1" stroke="#000000" stroke-opacity="1" stroke-width="3.2"></circle>
<circle clip-path="url(#clip132)" cx="1636.99" cy="869.284" r="14.4" fill="#e26f46" fill-rule="evenodd" fill-opacity="1" stroke="#000000" stroke-opacity="1" stroke-width="3.2"></circle>
<circle clip-path="url(#clip132)" cx="1647.58" cy="757.678" r="14.4" fill="#e26f46" fill-rule="evenodd" fill-opacity="1" stroke="#000000" stroke-opacity="1" stroke-width="3.2"></circle>
<circle clip-path="url(#clip132)" cx="1658.16" cy="646.33" r="14.4" fill="#e26f46" fill-rule="evenodd" fill-opacity="1" stroke="#000000" stroke-opacity="1" stroke-width="3.2"></circle>
<circle clip-path="url(#clip132)" cx="1668.75" cy="538.357" r="14.4" fill="#e26f46" fill-rule="evenodd" fill-opacity="1" stroke="#000000" stroke-opacity="1" stroke-width="3.2"></circle>
<circle clip-path="url(#clip132)" cx="1679.34" cy="436.783" r="14.4" fill="#e26f46" fill-rule="evenodd" fill-opacity="1" stroke="#000000" stroke-opacity="1" stroke-width="3.2"></circle>
<circle clip-path="url(#clip132)" cx="1689.92" cy="344.454" r="14.4" fill="#e26f46" fill-rule="evenodd" fill-opacity="1" stroke="#000000" stroke-opacity="1" stroke-width="3.2"></circle>
<circle clip-path="url(#clip132)" cx="1700.51" cy="263.955" r="14.4" fill="#e26f46" fill-rule="evenodd" fill-opacity="1" stroke="#000000" stroke-opacity="1" stroke-width="3.2"></circle>
<circle clip-path="url(#clip132)" cx="1711.1" cy="197.541" r="14.4" fill="#e26f46" fill-rule="evenodd" fill-opacity="1" stroke="#000000" stroke-opacity="1" stroke-width="3.2"></circle>
<circle clip-path="url(#clip132)" cx="1721.68" cy="147.072" r="14.4" fill="#e26f46" fill-rule="evenodd" fill-opacity="1" stroke="#000000" stroke-opacity="1" stroke-width="3.2"></circle>
<circle clip-path="url(#clip132)" cx="1732.27" cy="113.962" r="14.4" fill="#e26f46" fill-rule="evenodd" fill-opacity="1" stroke="#000000" stroke-opacity="1" stroke-width="3.2"></circle>
<circle clip-path="url(#clip132)" cx="1742.86" cy="99.1373" r="14.4" fill="#e26f46" fill-rule="evenodd" fill-opacity="1" stroke="#000000" stroke-opacity="1" stroke-width="3.2"></circle>
<circle clip-path="url(#clip132)" cx="1753.44" cy="103.014" r="14.4" fill="#e26f46" fill-rule="evenodd" fill-opacity="1" stroke="#000000" stroke-opacity="1" stroke-width="3.2"></circle>
<circle clip-path="url(#clip132)" cx="1764.03" cy="125.483" r="14.4" fill="#e26f46" fill-rule="evenodd" fill-opacity="1" stroke="#000000" stroke-opacity="1" stroke-width="3.2"></circle>
<circle clip-path="url(#clip132)" cx="1774.62" cy="165.916" r="14.4" fill="#e26f46" fill-rule="evenodd" fill-opacity="1" stroke="#000000" stroke-opacity="1" stroke-width="3.2"></circle>
<circle clip-path="url(#clip132)" cx="1785.2" cy="223.179" r="14.4" fill="#e26f46" fill-rule="evenodd" fill-opacity="1" stroke="#000000" stroke-opacity="1" stroke-width="3.2"></circle>
<circle clip-path="url(#clip132)" cx="1795.79" cy="295.669" r="14.4" fill="#e26f46" fill-rule="evenodd" fill-opacity="1" stroke="#000000" stroke-opacity="1" stroke-width="3.2"></circle>
<circle clip-path="url(#clip132)" cx="1806.38" cy="381.356" r="14.4" fill="#e26f46" fill-rule="evenodd" fill-opacity="1" stroke="#000000" stroke-opacity="1" stroke-width="3.2"></circle>
<circle clip-path="url(#clip132)" cx="1816.96" cy="477.84" r="14.4" fill="#e26f46" fill-rule="evenodd" fill-opacity="1" stroke="#000000" stroke-opacity="1" stroke-width="3.2"></circle>
<circle clip-path="url(#clip132)" cx="1827.55" cy="582.418" r="14.4" fill="#e26f46" fill-rule="evenodd" fill-opacity="1" stroke="#000000" stroke-opacity="1" stroke-width="3.2"></circle>
<circle clip-path="url(#clip132)" cx="1838.14" cy="692.162" r="14.4" fill="#e26f46" fill-rule="evenodd" fill-opacity="1" stroke="#000000" stroke-opacity="1" stroke-width="3.2"></circle>
<circle clip-path="url(#clip132)" cx="1848.72" cy="803.997" r="14.4" fill="#e26f46" fill-rule="evenodd" fill-opacity="1" stroke="#000000" stroke-opacity="1" stroke-width="3.2"></circle>
<circle clip-path="url(#clip132)" cx="1859.31" cy="914.792" r="14.4" fill="#e26f46" fill-rule="evenodd" fill-opacity="1" stroke="#000000" stroke-opacity="1" stroke-width="3.2"></circle>
<circle clip-path="url(#clip132)" cx="1869.9" cy="1021.44" r="14.4" fill="#e26f46" fill-rule="evenodd" fill-opacity="1" stroke="#000000" stroke-opacity="1" stroke-width="3.2"></circle>
<circle clip-path="url(#clip132)" cx="1880.48" cy="1120.96" r="14.4" fill="#e26f46" fill-rule="evenodd" fill-opacity="1" stroke="#000000" stroke-opacity="1" stroke-width="3.2"></circle>
<circle clip-path="url(#clip132)" cx="1891.07" cy="1210.57" r="14.4" fill="#e26f46" fill-rule="evenodd" fill-opacity="1" stroke="#000000" stroke-opacity="1" stroke-width="3.2"></circle>
<circle clip-path="url(#clip132)" cx="1901.66" cy="1287.74" r="14.4" fill="#e26f46" fill-rule="evenodd" fill-opacity="1" stroke="#000000" stroke-opacity="1" stroke-width="3.2"></circle>
<circle clip-path="url(#clip132)" cx="1912.24" cy="1350.33" r="14.4" fill="#e26f46" fill-rule="evenodd" fill-opacity="1" stroke="#000000" stroke-opacity="1" stroke-width="3.2"></circle>
<circle clip-path="url(#clip132)" cx="1922.83" cy="1396.57" r="14.4" fill="#e26f46" fill-rule="evenodd" fill-opacity="1" stroke="#000000" stroke-opacity="1" stroke-width="3.2"></circle>
<circle clip-path="url(#clip132)" cx="1933.42" cy="1425.18" r="14.4" fill="#e26f46" fill-rule="evenodd" fill-opacity="1" stroke="#000000" stroke-opacity="1" stroke-width="3.2"></circle>
<circle clip-path="url(#clip132)" cx="1944" cy="1435.34" r="14.4" fill="#e26f46" fill-rule="evenodd" fill-opacity="1" stroke="#000000" stroke-opacity="1" stroke-width="3.2"></circle>
<circle clip-path="url(#clip132)" cx="1954.59" cy="1426.79" r="14.4" fill="#e26f46" fill-rule="evenodd" fill-opacity="1" stroke="#000000" stroke-opacity="1" stroke-width="3.2"></circle>
<circle clip-path="url(#clip132)" cx="1965.18" cy="1399.75" r="14.4" fill="#e26f46" fill-rule="evenodd" fill-opacity="1" stroke="#000000" stroke-opacity="1" stroke-width="3.2"></circle>
<circle clip-path="url(#clip132)" cx="1975.76" cy="1354.98" r="14.4" fill="#e26f46" fill-rule="evenodd" fill-opacity="1" stroke="#000000" stroke-opacity="1" stroke-width="3.2"></circle>
<circle clip-path="url(#clip132)" cx="1986.35" cy="1293.75" r="14.4" fill="#e26f46" fill-rule="evenodd" fill-opacity="1" stroke="#000000" stroke-opacity="1" stroke-width="3.2"></circle>
<circle clip-path="url(#clip132)" cx="1996.94" cy="1217.75" r="14.4" fill="#e26f46" fill-rule="evenodd" fill-opacity="1" stroke="#000000" stroke-opacity="1" stroke-width="3.2"></circle>
<circle clip-path="url(#clip132)" cx="2007.52" cy="1129.13" r="14.4" fill="#e26f46" fill-rule="evenodd" fill-opacity="1" stroke="#000000" stroke-opacity="1" stroke-width="3.2"></circle>
<circle clip-path="url(#clip132)" cx="2018.11" cy="1030.35" r="14.4" fill="#e26f46" fill-rule="evenodd" fill-opacity="1" stroke="#000000" stroke-opacity="1" stroke-width="3.2"></circle>
<circle clip-path="url(#clip132)" cx="2028.7" cy="924.204" r="14.4" fill="#e26f46" fill-rule="evenodd" fill-opacity="1" stroke="#000000" stroke-opacity="1" stroke-width="3.2"></circle>
<circle clip-path="url(#clip132)" cx="2039.28" cy="813.645" r="14.4" fill="#e26f46" fill-rule="evenodd" fill-opacity="1" stroke="#000000" stroke-opacity="1" stroke-width="3.2"></circle>
<circle clip-path="url(#clip132)" cx="2049.87" cy="701.776" r="14.4" fill="#e26f46" fill-rule="evenodd" fill-opacity="1" stroke="#000000" stroke-opacity="1" stroke-width="3.2"></circle>
<circle clip-path="url(#clip132)" cx="2060.46" cy="591.729" r="14.4" fill="#e26f46" fill-rule="evenodd" fill-opacity="1" stroke="#000000" stroke-opacity="1" stroke-width="3.2"></circle>
<circle clip-path="url(#clip132)" cx="2071.04" cy="486.587" r="14.4" fill="#e26f46" fill-rule="evenodd" fill-opacity="1" stroke="#000000" stroke-opacity="1" stroke-width="3.2"></circle>
<circle clip-path="url(#clip132)" cx="2081.63" cy="389.294" r="14.4" fill="#e26f46" fill-rule="evenodd" fill-opacity="1" stroke="#000000" stroke-opacity="1" stroke-width="3.2"></circle>
<circle clip-path="url(#clip132)" cx="2092.22" cy="302.576" r="14.4" fill="#e26f46" fill-rule="evenodd" fill-opacity="1" stroke="#000000" stroke-opacity="1" stroke-width="3.2"></circle>
<circle clip-path="url(#clip132)" cx="2102.8" cy="228.861" r="14.4" fill="#e26f46" fill-rule="evenodd" fill-opacity="1" stroke="#000000" stroke-opacity="1" stroke-width="3.2"></circle>
<circle clip-path="url(#clip132)" cx="2113.39" cy="170.214" r="14.4" fill="#e26f46" fill-rule="evenodd" fill-opacity="1" stroke="#000000" stroke-opacity="1" stroke-width="3.2"></circle>
<circle clip-path="url(#clip132)" cx="2123.98" cy="128.277" r="14.4" fill="#e26f46" fill-rule="evenodd" fill-opacity="1" stroke="#000000" stroke-opacity="1" stroke-width="3.2"></circle>
<circle clip-path="url(#clip132)" cx="2134.56" cy="104.226" r="14.4" fill="#e26f46" fill-rule="evenodd" fill-opacity="1" stroke="#000000" stroke-opacity="1" stroke-width="3.2"></circle>
<circle clip-path="url(#clip132)" cx="2145.15" cy="98.7325" r="14.4" fill="#e26f46" fill-rule="evenodd" fill-opacity="1" stroke="#000000" stroke-opacity="1" stroke-width="3.2"></circle>
<circle clip-path="url(#clip132)" cx="2155.74" cy="111.952" r="14.4" fill="#e26f46" fill-rule="evenodd" fill-opacity="1" stroke="#000000" stroke-opacity="1" stroke-width="3.2"></circle>
<circle clip-path="url(#clip132)" cx="2166.32" cy="143.513" r="14.4" fill="#e26f46" fill-rule="evenodd" fill-opacity="1" stroke="#000000" stroke-opacity="1" stroke-width="3.2"></circle>
<circle clip-path="url(#clip132)" cx="2176.91" cy="192.533" r="14.4" fill="#e26f46" fill-rule="evenodd" fill-opacity="1" stroke="#000000" stroke-opacity="1" stroke-width="3.2"></circle>
<circle clip-path="url(#clip132)" cx="2187.5" cy="257.638" r="14.4" fill="#e26f46" fill-rule="evenodd" fill-opacity="1" stroke="#000000" stroke-opacity="1" stroke-width="3.2"></circle>
<circle clip-path="url(#clip132)" cx="2198.08" cy="337.005" r="14.4" fill="#e26f46" fill-rule="evenodd" fill-opacity="1" stroke="#000000" stroke-opacity="1" stroke-width="3.2"></circle>
<circle clip-path="url(#clip132)" cx="2208.67" cy="428.411" r="14.4" fill="#e26f46" fill-rule="evenodd" fill-opacity="1" stroke="#000000" stroke-opacity="1" stroke-width="3.2"></circle>
<circle clip-path="url(#clip132)" cx="2219.26" cy="529.296" r="14.4" fill="#e26f46" fill-rule="evenodd" fill-opacity="1" stroke="#000000" stroke-opacity="1" stroke-width="3.2"></circle>
<circle clip-path="url(#clip132)" cx="2229.84" cy="636.834" r="14.4" fill="#e26f46" fill-rule="evenodd" fill-opacity="1" stroke="#000000" stroke-opacity="1" stroke-width="3.2"></circle>
<circle clip-path="url(#clip132)" cx="2240.43" cy="748.014" r="14.4" fill="#e26f46" fill-rule="evenodd" fill-opacity="1" stroke="#000000" stroke-opacity="1" stroke-width="3.2"></circle>
<circle clip-path="url(#clip132)" cx="2251.02" cy="859.721" r="14.4" fill="#e26f46" fill-rule="evenodd" fill-opacity="1" stroke="#000000" stroke-opacity="1" stroke-width="3.2"></circle>
<circle clip-path="url(#clip132)" cx="2261.6" cy="968.826" r="14.4" fill="#e26f46" fill-rule="evenodd" fill-opacity="1" stroke="#000000" stroke-opacity="1" stroke-width="3.2"></circle>
<circle clip-path="url(#clip132)" cx="2272.19" cy="1072.27" r="14.4" fill="#e26f46" fill-rule="evenodd" fill-opacity="1" stroke="#000000" stroke-opacity="1" stroke-width="3.2"></circle>
<circle clip-path="url(#clip132)" cx="2282.78" cy="1167.17" r="14.4" fill="#e26f46" fill-rule="evenodd" fill-opacity="1" stroke="#000000" stroke-opacity="1" stroke-width="3.2"></circle>
<circle clip-path="url(#clip132)" cx="2293.36" cy="1250.85" r="14.4" fill="#e26f46" fill-rule="evenodd" fill-opacity="1" stroke="#000000" stroke-opacity="1" stroke-width="3.2"></circle>
<path clip-path="url(#clip130)" d="M1867.68 1438.47 L2282.81 1438.47 L2282.81 1282.95 L1867.68 1282.95  Z" fill="#ffffff" fill-rule="evenodd" fill-opacity="1"></path>
<polyline clip-path="url(#clip130)" style="stroke:#000000; stroke-linecap:round; stroke-linejoin:round; stroke-width:4; stroke-opacity:1; fill:none" points="1867.68,1438.47 2282.81,1438.47 2282.81,1282.95 1867.68,1282.95 1867.68,1438.47 "></polyline>
<polyline clip-path="url(#clip130)" style="stroke:#009af9; stroke-linecap:round; stroke-linejoin:round; stroke-width:12; stroke-opacity:1; fill:none" points="1891,1334.79 2030.9,1334.79 "></polyline>
<path clip-path="url(#clip130)" d="M2054.21 1317.51 L2083.45 1317.51 L2083.45 1321.45 L2071.18 1321.45 L2071.18 1352.07 L2066.48 1352.07 L2066.48 1321.45 L2054.21 1321.45 L2054.21 1317.51 Z" fill="#000000" fill-rule="nonzero" fill-opacity="1"></path><path clip-path="url(#clip130)" d="M2109.33 1336.43 L2109.33 1352.07 L2105.07 1352.07 L2105.07 1336.57 Q2105.07 1332.88 2103.63 1331.06 Q2102.2 1329.23 2099.33 1329.23 Q2095.88 1329.23 2093.89 1331.43 Q2091.9 1333.63 2091.9 1337.42 L2091.9 1352.07 L2087.62 1352.07 L2087.62 1316.06 L2091.9 1316.06 L2091.9 1330.18 Q2093.43 1327.84 2095.49 1326.68 Q2097.57 1325.52 2100.28 1325.52 Q2104.74 1325.52 2107.04 1328.3 Q2109.33 1331.06 2109.33 1336.43 Z" fill="#000000" fill-rule="nonzero" fill-opacity="1"></path><path clip-path="url(#clip130)" d="M2140 1338.05 L2140 1340.13 L2120.42 1340.13 Q2120.69 1344.53 2123.05 1346.84 Q2125.44 1349.13 2129.68 1349.13 Q2132.13 1349.13 2134.42 1348.53 Q2136.74 1347.93 2139 1346.73 L2139 1350.75 Q2136.71 1351.73 2134.3 1352.24 Q2131.9 1352.75 2129.42 1352.75 Q2123.22 1352.75 2119.58 1349.13 Q2115.97 1345.52 2115.97 1339.37 Q2115.97 1333 2119.4 1329.27 Q2122.85 1325.52 2128.68 1325.52 Q2133.91 1325.52 2136.94 1328.9 Q2140 1332.26 2140 1338.05 M2135.74 1336.8 Q2135.69 1333.3 2133.77 1331.22 Q2131.87 1329.13 2128.73 1329.13 Q2125.16 1329.13 2123.01 1331.15 Q2120.88 1333.16 2120.55 1336.82 L2135.74 1336.8 Z" fill="#000000" fill-rule="nonzero" fill-opacity="1"></path><path clip-path="url(#clip130)" d="M2157.04 1329.13 Q2153.61 1329.13 2151.62 1331.82 Q2149.63 1334.48 2149.63 1339.13 Q2149.63 1343.79 2151.6 1346.47 Q2153.59 1349.13 2157.04 1349.13 Q2160.44 1349.13 2162.43 1346.45 Q2164.42 1343.76 2164.42 1339.13 Q2164.42 1334.53 2162.43 1331.84 Q2160.44 1329.13 2157.04 1329.13 M2157.04 1325.52 Q2162.59 1325.52 2165.76 1329.13 Q2168.93 1332.75 2168.93 1339.13 Q2168.93 1345.5 2165.76 1349.13 Q2162.59 1352.75 2157.04 1352.75 Q2151.46 1352.75 2148.29 1349.13 Q2145.14 1345.5 2145.14 1339.13 Q2145.14 1332.75 2148.29 1329.13 Q2151.46 1325.52 2157.04 1325.52 Z" fill="#000000" fill-rule="nonzero" fill-opacity="1"></path><path clip-path="url(#clip130)" d="M2191.25 1317.51 L2195.92 1317.51 L2195.92 1348.14 L2212.75 1348.14 L2212.75 1352.07 L2191.25 1352.07 L2191.25 1317.51 Z" fill="#000000" fill-rule="nonzero" fill-opacity="1"></path><path clip-path="url(#clip130)" d="M2217.48 1326.15 L2221.73 1326.15 L2221.73 1352.07 L2217.48 1352.07 L2217.48 1326.15 M2217.48 1316.06 L2221.73 1316.06 L2221.73 1321.45 L2217.48 1321.45 L2217.48 1316.06 Z" fill="#000000" fill-rule="nonzero" fill-opacity="1"></path><path clip-path="url(#clip130)" d="M2243.77 1316.06 L2243.77 1319.6 L2239.7 1319.6 Q2237.41 1319.6 2236.5 1320.52 Q2235.62 1321.45 2235.62 1323.86 L2235.62 1326.15 L2242.64 1326.15 L2242.64 1329.46 L2235.62 1329.46 L2235.62 1352.07 L2231.34 1352.07 L2231.34 1329.46 L2227.27 1329.46 L2227.27 1326.15 L2231.34 1326.15 L2231.34 1324.34 Q2231.34 1320.01 2233.36 1318.05 Q2235.37 1316.06 2239.74 1316.06 L2243.77 1316.06 Z" fill="#000000" fill-rule="nonzero" fill-opacity="1"></path><path clip-path="url(#clip130)" d="M2250.72 1318.79 L2250.72 1326.15 L2259.49 1326.15 L2259.49 1329.46 L2250.72 1329.46 L2250.72 1343.53 Q2250.72 1346.7 2251.57 1347.61 Q2252.45 1348.51 2255.11 1348.51 L2259.49 1348.51 L2259.49 1352.07 L2255.11 1352.07 Q2250.18 1352.07 2248.31 1350.25 Q2246.43 1348.39 2246.43 1343.53 L2246.43 1329.46 L2243.31 1329.46 L2243.31 1326.15 L2246.43 1326.15 L2246.43 1318.79 L2250.72 1318.79 Z" fill="#000000" fill-rule="nonzero" fill-opacity="1"></path><polyline clip-path="url(#clip130)" style="stroke:#e26f46; stroke-linecap:round; stroke-linejoin:round; stroke-width:4; stroke-opacity:1; fill:none" points="1891,1386.63 2030.9,1386.63 "></polyline>
<circle clip-path="url(#clip130)" cx="1960.95" cy="1386.63" r="19.4305" fill="#e26f46" fill-rule="evenodd" fill-opacity="1" stroke="#000000" stroke-opacity="1" stroke-width="4.55111"></circle>
<path clip-path="url(#clip130)" d="M2058.89 1387.41 L2058.89 1400.07 L2066.39 1400.07 Q2070.16 1400.07 2071.97 1398.52 Q2073.8 1396.95 2073.8 1393.73 Q2073.8 1390.49 2071.97 1388.96 Q2070.16 1387.41 2066.39 1387.41 L2058.89 1387.41 M2058.89 1373.2 L2058.89 1383.61 L2065.81 1383.61 Q2069.24 1383.61 2070.9 1382.34 Q2072.59 1381.04 2072.59 1378.41 Q2072.59 1375.79 2070.9 1374.49 Q2069.24 1373.2 2065.81 1373.2 L2058.89 1373.2 M2054.21 1369.35 L2066.16 1369.35 Q2071.5 1369.35 2074.4 1371.58 Q2077.29 1373.8 2077.29 1377.9 Q2077.29 1381.07 2075.81 1382.94 Q2074.33 1384.82 2071.46 1385.28 Q2074.91 1386.02 2076.81 1388.38 Q2078.73 1390.72 2078.73 1394.24 Q2078.73 1398.87 2075.58 1401.39 Q2072.43 1403.91 2066.62 1403.91 L2054.21 1403.91 L2054.21 1369.35 Z" fill="#000000" fill-rule="nonzero" fill-opacity="1"></path><path clip-path="url(#clip130)" d="M2086.74 1369.35 L2108.59 1369.35 L2108.59 1373.29 L2091.41 1373.29 L2091.41 1383.52 L2107.87 1383.52 L2107.87 1387.46 L2091.41 1387.46 L2091.41 1399.98 L2109 1399.98 L2109 1403.91 L2086.74 1403.91 L2086.74 1369.35 Z" fill="#000000" fill-rule="nonzero" fill-opacity="1"></path><path clip-path="url(#clip130)" d="M2116.69 1369.35 L2123.66 1369.35 L2132.48 1392.87 L2141.34 1369.35 L2148.31 1369.35 L2148.31 1403.91 L2143.75 1403.91 L2143.75 1373.57 L2134.84 1397.27 L2130.14 1397.27 L2121.23 1373.57 L2121.23 1403.91 L2116.69 1403.91 L2116.69 1369.35 Z" fill="#000000" fill-rule="nonzero" fill-opacity="1"></path><path clip-path="url(#clip130)" d="M2172.66 1369.35 L2177.34 1369.35 L2177.34 1399.98 L2194.17 1399.98 L2194.17 1403.91 L2172.66 1403.91 L2172.66 1369.35 Z" fill="#000000" fill-rule="nonzero" fill-opacity="1"></path><path clip-path="url(#clip130)" d="M2198.89 1377.99 L2203.15 1377.99 L2203.15 1403.91 L2198.89 1403.91 L2198.89 1377.99 M2198.89 1367.9 L2203.15 1367.9 L2203.15 1373.29 L2198.89 1373.29 L2198.89 1367.9 Z" fill="#000000" fill-rule="nonzero" fill-opacity="1"></path><path clip-path="url(#clip130)" d="M2225.18 1367.9 L2225.18 1371.44 L2221.11 1371.44 Q2218.82 1371.44 2217.92 1372.36 Q2217.04 1373.29 2217.04 1375.7 L2217.04 1377.99 L2224.05 1377.99 L2224.05 1381.3 L2217.04 1381.3 L2217.04 1403.91 L2212.75 1403.91 L2212.75 1381.3 L2208.68 1381.3 L2208.68 1377.99 L2212.75 1377.99 L2212.75 1376.18 Q2212.75 1371.85 2214.77 1369.89 Q2216.78 1367.9 2221.16 1367.9 L2225.18 1367.9 Z" fill="#000000" fill-rule="nonzero" fill-opacity="1"></path><path clip-path="url(#clip130)" d="M2232.13 1370.63 L2232.13 1377.99 L2240.9 1377.99 L2240.9 1381.3 L2232.13 1381.3 L2232.13 1395.37 Q2232.13 1398.54 2232.98 1399.45 Q2233.86 1400.35 2236.53 1400.35 L2240.9 1400.35 L2240.9 1403.91 L2236.53 1403.91 Q2231.6 1403.91 2229.72 1402.09 Q2227.85 1400.23 2227.85 1395.37 L2227.85 1381.3 L2224.72 1381.3 L2224.72 1377.99 L2227.85 1377.99 L2227.85 1370.63 L2232.13 1370.63 Z" fill="#000000" fill-rule="nonzero" fill-opacity="1"></path></svg>