<?xml version="1.0" encoding="UTF-8" standalone="no"?>
<svg
   xmlns:dc="http://purl.org/dc/elements/1.1/"
   xmlns:cc="http://creativecommons.org/ns#"
   xmlns:rdf="http://www.w3.org/1999/02/22-rdf-syntax-ns#"
   xmlns:svg="http://www.w3.org/2000/svg"
   xmlns="http://www.w3.org/2000/svg"
   xmlns:sodipodi="http://sodipodi.sourceforge.net/DTD/sodipodi-0.dtd"
   xmlns:inkscape="http://www.inkscape.org/namespaces/inkscape"
   sodipodi:docname="puffer.svg"
   inkscape:version="1.0 (4035a4fb49, 2020-05-01)"
   id="svg8"
   version="1.1"
   viewBox="0 0 210 297"
   height="297mm"
   width="210mm">
  <defs
     id="defs2">
    <rect
       id="rect1326"
       height="48.643054"
       width="109.04597"
       y="104.50239"
       x="83.922632" />
  </defs>
  <sodipodi:namedview
     inkscape:window-maximized="0"
     inkscape:window-y="309"
     inkscape:window-x="1905"
     inkscape:window-height="1368"
     inkscape:window-width="1719"
     inkscape:snap-bbox="true"
     showgrid="false"
     inkscape:document-rotation="0"
     inkscape:current-layer="layer1"
     inkscape:document-units="mm"
     inkscape:cy="593.36159"
     inkscape:cx="357.27565"
     inkscape:zoom="0.7"
     inkscape:pageshadow="2"
     inkscape:pageopacity="0.0"
     borderopacity="1.0"
     bordercolor="#666666"
     pagecolor="#ffffff"
     id="base"
     showguides="true" />
  <metadata
     id="metadata5">
    <rdf:RDF>
      <cc:Work
         rdf:about="">
        <dc:format>image/svg+xml</dc:format>
        <dc:type
           rdf:resource="http://purl.org/dc/dcmitype/StillImage" />
        <dc:title></dc:title>
      </cc:Work>
    </rdf:RDF>
  </metadata>
  <g
     id="layer1"
     inkscape:groupmode="layer"
     inkscape:label="Layer 1">
    <path
       d="m 285.58594,171.42773 c -77.27019,0.0465 -139.87208,40.96751 -139.8711,91.42969 -9.75953,-26.27405 19.5773,109.95087 -17.14257,198.57031 3.11266,89.87741 31.88387,157.8111 67.07031,158.47071 -0.0437,-1.1518 -0.1466,-2.30108 -0.17774,-3.45313 0,0 0,0 0,0 0.0311,1.15205 0.13402,2.30133 0.17774,3.45313 0.97819,0.0183 1.94196,0.18851 2.92969,0.10156 1.49671,-0.13175 2.96148,-0.53233 4.43554,-0.85547 36.45432,-7.99143 65.56465,-73.54351 65.56446,-157.7168 5.19771,-42.89836 -6.32544,-76.18854 -25.32813,-104.08007 6.66084,0.32883 12.90621,-1.53538 19.23633,-8.11328 77.31937,0 151.11257,-33.86315 151.11328,-84.35743 9.4e-4,-50.49504 -50.55838,-93.44922 -127.87891,-93.44922 z"
       transform="scale(0.26458333)"
       style="fill:none;stroke:#000000;stroke-width:10.6667;stroke-miterlimit:4;stroke-dasharray:none"
       id="path835" />
    <ellipse
       ry="9.0714283"
       rx="10.583333"
       cy="50.694664"
       cx="55.130795"
       id="path837"
       style="fill:#ca3c32;fill-opacity:1;stroke:#000000;stroke-width:2.82222;stroke-miterlimit:4;stroke-dasharray:none" />
    <ellipse
       style="fill:#9259a3;fill-opacity:1;stroke:#000000;stroke-width:2.82222;stroke-miterlimit:4;stroke-dasharray:none"
       id="path837-6"
       cx="83.146889"
       cy="70.877449"
       rx="10.583333"
       ry="9.0714283" />
    <ellipse
       style="fill:#399746;fill-opacity:1;stroke:#000000;stroke-width:2.82222;stroke-miterlimit:4;stroke-dasharray:none"
       id="path837-66"
       cx="88.904984"
       cy="43.706322"
       rx="10.583333"
       ry="9.0714283" />
    <g
       transform="matrix(1.1380146,0,0,1.1960154,-7.1533165,-34.935884)"
       id="g1341">
      <path
         id="path864-3"
         d="m 66.545915,148.91997 c 0,0 -20.701259,37.16152 4.6901,41.03366"
         style="fill:none;stroke:#000000;stroke-width:2.82222;stroke-linecap:butt;stroke-linejoin:miter;stroke-miterlimit:4;stroke-dasharray:none;stroke-opacity:1"
         sodipodi:nodetypes="cc" />
      <path
         style="fill:none;stroke:#000000;stroke-width:2.82222;stroke-linecap:butt;stroke-linejoin:miter;stroke-miterlimit:4;stroke-dasharray:none;stroke-opacity:1"
         d="m 38.219542,147.53278 c 0,0 18.563102,31.81613 -6.828256,35.68827"
         id="path864-3-4"
         sodipodi:nodetypes="cc" />
      <path
         style="fill:none;stroke:#000000;stroke-width:2.82222;stroke-linecap:butt;stroke-linejoin:miter;stroke-miterlimit:4;stroke-dasharray:none;stroke-opacity:1"
         d="m 31.391285,183.22105 c 0,0 14.596444,-1.62778 39.844729,6.73258"
         id="path913" />
    </g>
    <path
       d="m 34.018079,122.08609 c 0,0 8.47188,2.20788 11.253513,13.01722 m 6.219117,-21.95444 c 0,0 -9.960582,15.11928 -6.219117,21.95444 M 45.7952,108.37615 c 0,0 -7.131329,11.21915 -11.777121,13.70994"
       style="fill:#000000;fill-opacity:0;stroke:#000000;stroke-width:2.82222;stroke-linecap:butt;stroke-linejoin:miter;stroke-miterlimit:4;stroke-dasharray:none;stroke-opacity:1"
       id="path917" />
    <path
       style="fill:none;stroke:#000000;stroke-width:2.35818;stroke-linecap:butt;stroke-linejoin:miter;stroke-miterlimit:4;stroke-dasharray:none;stroke-opacity:1"
       d="m 70.821726,108.79733 c 0,0 8.347629,5.81165 12.021411,5.49558"
       id="path883-4" />
    <path
       style="fill:none;stroke:#000000;stroke-width:1.70296;stroke-linecap:butt;stroke-linejoin:miter;stroke-miterlimit:4;stroke-dasharray:none;stroke-opacity:1"
       d="m 71.193267,117.64064 c 0,0 9.384709,4.86965 9.613208,9.82439"
       id="path915-5" />
    <path
       style="fill:none;stroke:#000000;stroke-width:2.49693;stroke-linecap:butt;stroke-linejoin:miter;stroke-miterlimit:4;stroke-dasharray:none;stroke-opacity:1"
       d="m 83.694891,114.78942 c 0,0 -6.351157,4.71887 -2.888416,12.67561"
       id="path917-0" />
    <text
       transform="translate(-8.489404,3.7116527)"
       style="font-style:normal;font-variant:normal;font-weight:normal;font-stretch:normal;font-size:42.3333px;line-height:1.25;font-family:Sans;-inkscape-font-specification:'Sans, Normal';font-variant-ligatures:normal;font-variant-caps:normal;font-variant-numeric:normal;font-variant-east-asian:normal;letter-spacing:0px;white-space:pre;shape-inside:url(#rect1326);fill:#000000;fill-opacity:1;stroke:none;"
       id="text1324"
       xml:space="preserve"><tspan
         x="83.921875"
         y="143.12391"><tspan
           style="font-style:normal;font-variant:normal;font-weight:normal;font-stretch:normal;font-size:42.3333px;font-family:Sans;-inkscape-font-specification:'Sans, Normal';font-variant-ligatures:normal;font-variant-caps:normal;font-variant-numeric:normal;font-variant-east-asian:normal">uffer</tspan></tspan></text>
  </g>
</svg>
