<?xml version="1.0" encoding="UTF-8" standalone="no"?>
<svg
   xmlns:dc="http://purl.org/dc/elements/1.1/"
   xmlns:cc="http://creativecommons.org/ns#"
   xmlns:rdf="http://www.w3.org/1999/02/22-rdf-syntax-ns#"
   xmlns:svg="http://www.w3.org/2000/svg"
   xmlns="http://www.w3.org/2000/svg"
   xmlns:sodipodi="http://sodipodi.sourceforge.net/DTD/sodipodi-0.dtd"
   xmlns:inkscape="http://www.inkscape.org/namespaces/inkscape"
   sodipodi:docname="puffer.svg"
   inkscape:version="1.0 (4035a4fb49, 2020-05-01)"
   id="svg8"
   version="1.1"
   viewBox="0 0 210 297"
   height="297mm"
   width="210mm">
  <defs
     id="defs2">
    <rect
       id="rect1326"
       height="48.643054"
       width="109.04597"
       y="104.50239"
       x="83.922632" />
  </defs>
  <sodipodi:namedview
     inkscape:window-maximized="0"
     inkscape:window-y="309"
     inkscape:window-x="1905"
     inkscape:window-height="1368"
     inkscape:window-width="1719"
     inkscape:snap-bbox="true"
     showgrid="false"
     inkscape:document-rotation="0"
     inkscape:current-layer="layer1"
     inkscape:document-units="mm"
     inkscape:cy="593.36159"
     inkscape:cx="357.27565"
     inkscape:zoom="0.7"
     inkscape:pageshadow="2"
     inkscape:pageopacity="0.0"
     borderopacity="1.0"
     bordercolor="#666666"
     pagecolor="#ffffff"
     id="base"
     showguides="true" />
  <metadata
     id="metadata5">
    <rdf:RDF>
      <cc:Work
         rdf:about="">
        <dc:format>image/svg+xml</dc:format>
        <dc:type
           rdf:resource="http://purl.org/dc/dcmitype/StillImage" />
        <dc:title></dc:title>
      </cc:Work>
    </rdf:RDF>
  </metadata>
  <g
     id="layer1"
     inkscape:groupmode="layer"
     inkscape:label="Layer 1">
    <path
       d="m 68.093007,97.164858 c -29.327855,0.01653 -53.088366,14.559052 -53.087994,32.492322 -3.704224,-9.33729 7.430553,39.07438 -6.5064527,70.56799 1.1814085,31.94067 12.1015037,56.08297 25.4564977,56.31739 -0.01659,-0.40934 -0.05564,-0.81777 -0.06746,-1.22718 0,0 0,0 0,0 0.0118,0.40941 0.05086,0.81784 0.06746,1.22718 0.37127,0.006 0.737069,0.067 1.111962,0.0361 0.568075,-0.0468 1.124028,-0.18918 1.683507,-0.30401 13.836215,-2.84 24.885024,-26.13592 24.884952,-56.04946 1.972787,-15.24523 -2.400817,-27.07591 -9.613277,-36.98801 2.528118,0.11686 4.898545,-0.54564 7.301138,-2.8833 29.346518,0 57.35469,-12.03431 57.35496,-29.97898 3.6e-4,-17.94495 -19.189401,-33.210022 -48.536369,-33.210022 z"
       style="fill:none;stroke:#000000;stroke-width:3.91752;stroke-miterlimit:4;stroke-dasharray:none"
       id="path835" />
    <ellipse
       ry="12.18447"
       rx="15.181976"
       cy="104.33436"
       cx="38.785118"
       id="path837"
       style="fill:#ca3c32;fill-opacity:1;stroke:#000000;stroke-width:3.9175;stroke-miterlimit:4;stroke-dasharray:none" />
    <ellipse
       style="fill:#9259a3;fill-opacity:1;stroke:#000000;stroke-width:3.9175;stroke-miterlimit:4;stroke-dasharray:none"
       id="path837-6"
       cx="78.974701"
       cy="131.44327"
       rx="15.181976"
       ry="12.18447" />
    <ellipse
       style="fill:#399746;fill-opacity:1;stroke:#000000;stroke-width:3.9175;stroke-miterlimit:4;stroke-dasharray:none"
       id="path837-66"
       cx="87.234787"
       cy="94.947823"
       rx="15.181976"
       ry="12.18447" />
    <g
       transform="matrix(1.6325019,0,0,1.606452,-50.562527,-10.682027)"
       id="g1341">
      <path
         id="path864-3"
         d="m 66.545915,148.91997 c 0,0 -20.701259,37.16152 4.6901,41.03366"
         style="fill:none;stroke:#000000;stroke-width:2.82222;stroke-linecap:butt;stroke-linejoin:miter;stroke-miterlimit:4;stroke-dasharray:none;stroke-opacity:1"
         sodipodi:nodetypes="cc" />
      <path
         style="fill:none;stroke:#000000;stroke-width:2.82222;stroke-linecap:butt;stroke-linejoin:miter;stroke-miterlimit:4;stroke-dasharray:none;stroke-opacity:1"
         d="m 38.219542,147.53278 c 0,0 18.563102,31.81613 -6.828256,35.68827"
         id="path864-3-4"
         sodipodi:nodetypes="cc" />
      <path
         style="fill:none;stroke:#000000;stroke-width:2.82222;stroke-linecap:butt;stroke-linejoin:miter;stroke-miterlimit:4;stroke-dasharray:none;stroke-opacity:1"
         d="m 31.391285,183.22105 c 0,0 14.596444,-1.62778 39.844729,6.73258"
         id="path913" />
    </g>
    <path
       d="m 8.4985603,200.22518 c 0,0 12.1530597,2.96555 16.1433607,17.48434 m 8.921432,-29.48855 c 0,0 -14.288628,20.30776 -8.921432,29.48855 m 0.751126,-35.89912 c 0,0 -10.230017,15.06922 -16.8944867,18.41478"
       style="fill:#000000;fill-opacity:0;stroke:#000000;stroke-width:3.9175;stroke-linecap:butt;stroke-linejoin:miter;stroke-miterlimit:4;stroke-dasharray:none;stroke-opacity:1"
       id="path917" />
    <path
       style="fill:none;stroke:#000000;stroke-width:3.27338;stroke-linecap:butt;stroke-linejoin:miter;stroke-miterlimit:4;stroke-dasharray:none;stroke-opacity:1"
       d="m 61.294036,182.37611 c 0,0 11.97482,7.80603 17.244924,7.38151"
       id="path883-4" />
    <path
       style="fill:none;stroke:#000000;stroke-width:2.36386;stroke-linecap:butt;stroke-linejoin:miter;stroke-miterlimit:4;stroke-dasharray:none;stroke-opacity:1"
       d="m 61.827018,194.25418 c 0,0 13.462529,6.54077 13.790315,13.19583"
       id="path915-5" />
    <path
       style="fill:none;stroke:#000000;stroke-width:3.46597;stroke-linecap:butt;stroke-linejoin:miter;stroke-miterlimit:4;stroke-dasharray:none;stroke-opacity:1"
       d="m 79.760816,190.42451 c 0,0 -9.110846,6.33824 -4.143483,17.0255"
       id="path917-0" />
    <text
       transform="matrix(1.4345175,0,0,1.34317,-52.479168,41.228184)"
       style="font-style:normal;font-variant:normal;font-weight:normal;font-stretch:normal;font-size:42.3333px;line-height:1.25;font-family:Sans;-inkscape-font-specification:'Sans, Normal';font-variant-ligatures:normal;font-variant-caps:normal;font-variant-numeric:normal;font-variant-east-asian:normal;letter-spacing:0px;white-space:pre;shape-inside:url(#rect1326);fill:#000000;fill-opacity:1;stroke:none;"
       id="text1324"
       xml:space="preserve"><tspan
         x="83.921875"
         y="143.12391"><tspan
           style="font-style:normal;font-variant:normal;font-weight:normal;font-stretch:normal;font-size:42.3333px;font-family:Sans;-inkscape-font-specification:'Sans, Normal';font-variant-ligatures:normal;font-variant-caps:normal;font-variant-numeric:normal;font-variant-east-asian:normal">uffer</tspan></tspan></text>
  </g>
</svg>
