<?xml version="1.0" encoding="UTF-8" standalone="no"?>
<svg
   sodipodi:docname="puffer.svg"
   inkscape:version="1.2.2 (732a01da63, 2022-12-09, custom)"
   id="svg8"
   version="1.1"
   viewBox="0 0 210 215"
   height="215mm"
   width="210mm"
   xmlns:inkscape="http://www.inkscape.org/namespaces/inkscape"
   xmlns:sodipodi="http://sodipodi.sourceforge.net/DTD/sodipodi-0.dtd"
   xmlns="http://www.w3.org/2000/svg"
   xmlns:svg="http://www.w3.org/2000/svg"
   xmlns:rdf="http://www.w3.org/1999/02/22-rdf-syntax-ns#"
   xmlns:cc="http://creativecommons.org/ns#"
   xmlns:dc="http://purl.org/dc/elements/1.1/">
  <defs
     id="defs2">
    <rect
       id="rect1326"
       height="48.643055"
       width="109.04597"
       y="104.50239"
       x="83.92263" />
  </defs>
  <sodipodi:namedview
     inkscape:window-maximized="1"
     inkscape:window-y="27"
     inkscape:window-x="1920"
     inkscape:window-height="1376"
     inkscape:window-width="2560"
     inkscape:snap-bbox="true"
     showgrid="false"
     inkscape:document-rotation="0"
     inkscape:current-layer="layer1"
     inkscape:document-units="mm"
     inkscape:cy="491.5"
     inkscape:cx="449.5"
     inkscape:zoom="1"
     inkscape:pageshadow="2"
     inkscape:pageopacity="0.0"
     borderopacity="1.0"
     bordercolor="#666666"
     pagecolor="#ffffff"
     id="base"
     showguides="true"
     inkscape:showpageshadow="2"
     inkscape:pagecheckerboard="0"
     inkscape:deskcolor="#d1d1d1" />
  <metadata
     id="metadata5">
    <rdf:RDF>
      <cc:Work
         rdf:about="">
        <dc:format>image/svg+xml</dc:format>
        <dc:type
           rdf:resource="http://purl.org/dc/dcmitype/StillImage" />
      </cc:Work>
    </rdf:RDF>
  </metadata>
  <g
     id="layer1"
     inkscape:groupmode="layer"
     inkscape:label="Layer 1">
    <text
       transform="matrix(1.4345175,0,0,1.34317,-53.745723,-37.647628)"
       style="font-style:normal;font-variant:normal;font-weight:normal;font-stretch:normal;font-size:42.3333px;line-height:1.25;font-family:Sans;-inkscape-font-specification:'Sans, Normal';font-variant-ligatures:normal;font-variant-caps:normal;font-variant-numeric:normal;font-variant-east-asian:normal;letter-spacing:0px;white-space:pre;shape-inside:url(#rect1326);fill:#000000;fill-opacity:1;stroke:none"
       id="text1324"
       xml:space="preserve"><tspan
         x="83.921875"
         y="141.957"
         id="tspan1614">uffer</tspan></text>
    <path
       d="m 66.436308,11.16216 c -29.327855,0.01653 -53.762735,10.130399 -51.753796,31.837342 -1.005093,-8.22277 6.096355,39.729363 -7.8406508,71.222978 1.1814085,31.94067 12.1015038,56.08297 25.4564978,56.31739 -0.01659,-0.40934 -0.05564,-0.81777 -0.06746,-1.22718 v 0 c 0.0118,0.40941 0.05086,0.81784 0.06746,1.22718 0.37127,0.006 0.737069,0.067 1.111962,0.0361 0.568075,-0.0468 1.124028,-0.18918 1.683507,-0.30401 13.836215,-2.84 24.885024,-26.13592 24.884952,-56.04946 1.972787,-15.245235 -3.68989,-28.781952 -10.90235,-38.694052 3.402695,0.932886 6.950768,1.068752 10.576201,1.015583 29.346518,0 55.368709,-14.227156 55.368979,-32.171826 C 115.02197,26.427255 95.8322,11.16218 66.485232,11.16218 Z"
       style="fill:none;stroke:#000000;stroke-width:3.91752;stroke-miterlimit:4;stroke-dasharray:none"
       id="path835"
       sodipodi:nodetypes="ccccsscscccccsc" />
    <ellipse
       ry="12.18447"
       rx="15.181976"
       cy="20.721989"
       cx="46.506962"
       id="path837"
       style="fill:#ca3c32;fill-opacity:1;stroke:#000000;stroke-width:3.9175;stroke-miterlimit:4;stroke-dasharray:none" />
    <ellipse
       style="fill:#9259a3;fill-opacity:1;stroke:#000000;stroke-width:3.9175;stroke-miterlimit:4;stroke-dasharray:none"
       id="path837-6"
       cx="78.652817"
       cy="50.243362"
       rx="15.181976"
       ry="12.18447" />
    <ellipse
       style="fill:#399746;fill-opacity:1;stroke:#000000;stroke-width:3.9175;stroke-miterlimit:4;stroke-dasharray:none"
       id="path837-66"
       cx="86.912903"
       cy="14.277084"
       rx="15.181976"
       ry="12.18447" />
    <g
       transform="matrix(1.6325019,0,0,1.606452,-50.892976,-91.789381)"
       id="g1341"
       style="stroke-width:2.39625582;stroke-dasharray:none">
      <path
         id="path864-3"
         d="m 65.239079,147.36194 c -1.27306,3.02723 -19.904242,39.46529 6.275848,41.46189"
         style="fill:none;stroke:#000000;stroke-width:2.39625582;stroke-linecap:butt;stroke-linejoin:miter;stroke-miterlimit:4;stroke-dasharray:none;stroke-opacity:1"
         sodipodi:nodetypes="cc" />
      <path
         style="fill:none;stroke:#000000;stroke-width:2.39625582;stroke-linecap:butt;stroke-linejoin:miter;stroke-miterlimit:4;stroke-dasharray:none;stroke-opacity:1"
         d="m 38.415077,147.77579 c 4.478598,13.82853 18.367567,31.57312 -7.023791,35.44526"
         id="path864-3-4"
         sodipodi:nodetypes="cc" />
      <path
         style="fill:none;stroke:#000000;stroke-width:2.39625582;stroke-linecap:butt;stroke-linejoin:miter;stroke-miterlimit:4;stroke-dasharray:none;stroke-opacity:1"
         d="m 31.391285,183.22105 c 8.888922,6.24805 10.290256,-2.94027 33.606787,4.06225"
         id="path913"
         sodipodi:nodetypes="cc" />
    </g>
    <path
       d="m 7.6545667,116.37849 c 5.7159783,1.92392 10.5166793,-1.13047 16.1433603,17.48434 m 8.921432,-29.48855 c -0.900083,0.65482 -12.083589,21.47209 -8.901278,29.39395 m 0.730972,-35.804521 c 0,0 -12.054252,15.296431 -18.7187209,18.641991"
       style="fill:#000000;fill-opacity:0;stroke:#000000;stroke-width:3.9175;stroke-linecap:butt;stroke-linejoin:miter;stroke-miterlimit:4;stroke-dasharray:none;stroke-opacity:1"
       id="path917"
       sodipodi:nodetypes="cccccc" />
    <path
       style="fill:none;stroke:#000000;stroke-width:3.27338;stroke-linecap:butt;stroke-linejoin:miter;stroke-miterlimit:4;stroke-dasharray:none;stroke-opacity:1"
       d="m 60.972151,101.17621 c 0,0 11.97482,7.80603 17.244924,7.38151"
       id="path883-4" />
    <path
       style="fill:none;stroke:#000000;stroke-width:2.36386;stroke-linecap:butt;stroke-linejoin:miter;stroke-miterlimit:4;stroke-dasharray:none;stroke-opacity:1"
       d="m 61.505133,113.05428 c 0,0 13.462529,6.54077 13.790315,13.19583"
       id="path915-5" />
    <path
       style="fill:none;stroke:#000000;stroke-width:3.46597;stroke-linecap:butt;stroke-linejoin:miter;stroke-miterlimit:4;stroke-dasharray:none;stroke-opacity:1"
       d="m 79.100842,106.86292 c 0.500937,9.04984 -3.999006,10.91336 -3.583354,22.77654"
       id="path917-0"
       sodipodi:nodetypes="cc" />
    <path
       style="fill:none;stroke-width:1.41111111;stroke:#000000;stroke-opacity:1;stroke-dasharray:none"
       d="m 19.919149,112.27889 -5.702446,5.10267"
       id="path356" />
    <path
       style="fill:none;stroke:#000000;stroke-width:1.41111;stroke-dasharray:none;stroke-opacity:1"
       d="m 17.358033,121.71246 4.214063,-6.46111"
       id="path1449" />
    <path
       style="fill:none;stroke:#000000;stroke-width:1.41111;stroke-dasharray:none;stroke-opacity:1"
       d="m 69.585604,113.5067 c 1.922345,0.95738 3.908074,1.67879 5.382455,4.30391"
       id="path1451"
       sodipodi:nodetypes="cc" />
    <path
       style="fill:none;stroke:#000000;stroke-width:1.41111;stroke-dasharray:none;stroke-opacity:1"
       d="m 71.417148,110.70782 c 1.938199,0.77042 4.436129,1.20088 5.806675,3.14479"
       id="path1453"
       sodipodi:nodetypes="cc" />
    <path
       style="fill:none;stroke:#000000;stroke-width:1.41111;stroke-dasharray:none;stroke-opacity:1"
       d="m 14.300812,204.85482 c 1.184573,-0.435 7.262866,-3.02777 8.734545,-7.01953"
       id="path1455" />
    <path
       style="fill:none;stroke:#000000;stroke-width:1.41111;stroke-dasharray:none;stroke-opacity:1"
       d="m 26.1915,204.39894 c 0,0 2.799282,-2.47208 2.886851,-6.34283"
       id="path1457" />
    <path
       style="fill:none;stroke:#000000;stroke-width:1.41111;stroke-dasharray:none;stroke-opacity:1"
       d="m 35.98501,204.04452 c 0,0 -3.421782,-3.87056 -1.159256,-6.8448"
       id="path1459" />
    <path
       style="fill:none;stroke:#000000;stroke-width:1.41111;stroke-dasharray:none;stroke-opacity:1"
       d="m 42.205161,204.21711 c 0,0 -4.76844,-1.35256 -3.247562,-7.38465"
       id="path1461" />
  </g>
</svg>
